<svg width="259" height="330" fill="none" xmlns="http://www.w3.org/2000/svg"><g opacity=".4"><path d="M-8.037 298.797l1.43 8.501 5.825.02 1.47-8.491m0-.001c.67-.11 1.34-.23 2.011-.39.03 0 .06-.01.09-.02.15-.03.3-.07.44-.1l.11-.03c.1-.03.21-.05.31-.08l.321-.09c.18-.05.36-.1.53-.15.03-.01.05-.02.08-.02.01 0 .01-.01.02-.01.65-.2 1.301-.42 1.932-.66m0 0l5.484 6.651 5.053-2.89-2.962-8.102m-.001 0c.53-.42 1.041-.86 1.541-1.33.01 0 .01-.01.02-.01l.06-.06c.13-.12.27-.25.4-.38l.23-.23c.08-.08.161-.15.231-.23.03-.03.06-.05.08-.08.11-.11.21-.21.31-.32.02-.03.04-.05.07-.07.47-.5.91-1.02 1.341-1.54m.001 0l8.074 3.02 2.932-5.041-6.624-5.521m.001 0c.25-.63.48-1.28.68-1.93l.03-.09.15-.54.09-.31c.02-.09.05-.17.07-.26 0-.01 0-.02.01-.03 0-.01 0-.02.01-.03.04-.18.09-.36.13-.54.01-.03.01-.06.02-.09.16-.67.29-1.341.4-2.011m.001 0l8.505-1.42.01-5.821-8.495-1.48m-.001 0c-.1-.67-.23-1.34-.38-2.011 0-.03-.01-.06-.02-.09-.04-.18-.08-.36-.13-.54-.03-.11-.06-.22-.08-.32l-.09-.32-.15-.53-.03-.09c-.2-.66-.42-1.3-.66-1.94m-.001 0l6.655-5.481-2.902-5.051-8.095 2.97m0 0c-.421-.53-.871-1.05-1.332-1.55-.02-.02-.04-.05-.07-.07-.12-.14-.25-.27-.38-.41-.08-.07-.15-.15-.23-.23-.08-.07-.15-.15-.23-.23-.13-.13-.27-.26-.4-.38-.03-.03-.05-.05-.08-.07-.49-.47-1.011-.92-1.531-1.35m0 0l3.012-8.072-5.033-2.93-5.524 6.621m0 0c-.63-.25-1.28-.47-1.93-.68-.03 0-.06-.01-.09-.02-.181-.06-.361-.11-.541-.16l-.31-.09c-.11-.03-.21-.05-.32-.08-.18-.05-.36-.09-.541-.14-.03 0-.06-.01-.1-.02-.66-.16-1.33-.29-2.001-.39m0 0l-1.421-8.502-5.824-.02-1.48 8.492m.239 37.646c1.23.52 2.581.8 4.002.81 1.421 0 2.772-.28 4.003-.78m0 0l6.294 10.962m0 0a23.326 23.326 0 01-9.766 2.401m-.481-30.656c4.183.02 7.565 3.421 7.555 7.601-.01 4.171-3.422 7.552-7.595 7.542-4.182-.01-7.565-3.421-7.555-7.592.02-4.17 3.423-7.561 7.595-7.551v0zm5.184 16.693c.01-.01.03-.02.04-.03-.01.01-.03.02-.04.03zm15.049 1.99c-.02.03-.03.06-.05.1-.07.12-.15.251-.22.381-.09.14-.17.28-.25.42l-.06.09a23.139 23.139 0 01-7.005 7.201m0 0L2.8 279.203m0 0a10.539 10.539 0 004.022-6.921m0 0l12.648.04m0 0a23.19 23.19 0 01-2.801 9.651m-9.777-10.331v-.08.08zm2.312-20.004a23.259 23.259 0 016.964 7.241c.02.041.04.071.06.101l.24.42c.07.13.15.26.22.39.02.03.03.06.05.1a23.198 23.198 0 012.742 9.661m0 0l-12.647-.04m0 0a10.495 10.495 0 00-3.983-6.941m0 0l6.354-10.932m-2.302 18.594a.25.25 0 010 0zm-5.223-8.452a.076.076 0 000 0zm-15.519-11.602a23.244 23.244 0 019.755-2.401h1.151c3.382.1 6.714.951 9.746 2.471m0 0L.448 261.17m0 0c-1.23-.51-2.582-.8-4.003-.8-1.41-.01-2.771.27-4.002.78m25.617 86.205l9.505-10.872-6.164-7.561-12.567 7.111m-.001 0c-.85-.76-1.73-1.5-2.631-2.2-.04-.03-.08-.06-.13-.09-.24-.19-.49-.38-.75-.57-.14-.11-.291-.211-.431-.321-.15-.11-.3-.22-.45-.32-.26-.18-.51-.36-.77-.53-.04-.03-.091-.06-.141-.09a48.64 48.64 0 00-2.912-1.81m0 0l2.791-14.163-9.115-3.46-7.335 12.432" stroke="#F6FFFF" stroke-width="3.49" stroke-miterlimit="10" stroke-linecap="round" stroke-linejoin="round"/><path d="M75.525 234.205l1.1-1.1m-16.76 16.763l5.324-5.321-5.324 5.321zm6.285 7.001l19.762-19.744m-32.92 32.906l6.573-6.581-6.574 6.581zm38.654-25.354l12.608-12.612m-41.486 41.467l6.494-6.491-6.494 6.491zm41.396-28.085l4.823-4.821m-51.092 51.069l12.147-12.142-12.148 12.142zm19.001-52.209l6.344-6.341m-20.082 20.073l6.484-6.491-6.484 6.491zm32.43-19.123l5.383-5.391m-43.337 43.318l16.47-16.463-16.47 16.463zm22.524-22.504l11.007-11.002-11.007 11.002zm18.432-5.141l6.094-6.091m-48.851 48.828l3.582-3.58-3.582 3.58zm7.785-7.781l5.363-5.361-5.363 5.361zm45.268-31.966l11.548-11.542m-54.785 54.76l6.314-6.311-6.314 6.311zm47.3-40.637l11.347-11.342m-54.124 54.109l4.383-4.39-4.383 4.39zm46.24-39.587l4.362-4.35m-49.401 49.378l6.364-6.361-6.364 6.361zm47.94-41.267l4.433-4.441m-53.624 53.61l11.367-11.372-11.367 11.372zm51.463-44.808l9.706-9.692m-50.072 50.049l4.643-4.651-4.643 4.651zm41.897-35.236l12.518-12.512m-49.702 49.678l5.043-5.041-5.043 5.041zm37.684-31.035l5.814-5.801m-41.387 41.367l9.076-9.072-9.076 9.072zm34.052-27.395l10.146-10.142m-43.758 43.738l16.801-16.793-16.8 16.793zm40.847-34.186l8.115-8.111m-42.927 42.907l1.15-1.15-1.15 1.15zm10.736-10.722l23.225-23.214-23.225 23.214zm-29.038-67.311l5.683-5.691m-20.393 20.383l5.914-5.901-5.914 5.901zm35.353-22.044l1.09-1.09m-42.917 42.897l8.105-8.091-8.105 8.091zm9.016-9.011l23.195-23.184-23.195 23.184zm31.3-17.993l9.116-9.122m-41.386 41.378l5.813-5.812-5.813 5.812zm43.537-30.236l4.653-4.651m-50.102 50.079l9.746-9.742-9.746 9.742zm53.584-40.277l6.424-6.411m-49.461 49.439l4.363-4.361-4.363 4.361zm48.821-35.507l6.264-6.271m-54.745 54.73l11.538-11.542-11.538 11.542zm60.909-47.608l3.702-3.691m-48.831 48.808l6.054-6.051-6.054 6.051zm35.693-35.676l5.363-5.361-5.363 5.361zm-45.95-27.165l6.995-6.981m-31.21 31.196l2.642-2.641-2.642 2.641zm11.447-11.442l7.065-7.062-7.065 7.062zm22.355-9.062l16.821-16.813m-43.748 43.728l10.196-10.192-10.196 10.192zm41.266-27.955l5.053-5.051m-49.692 49.669l12.528-12.522-12.528 12.522zm54.135-40.828l11.367-11.362m-53.624 53.6l4.442-4.441-4.442 4.441zm49.191-35.876l4.393-4.391m-54.134 54.109l11.347-11.342-11.347 11.342zm54.264-40.957l12.148-12.132M83.5 302.647l4.814-4.821-4.813 4.821zm39.756-26.455l6.484-6.481m-41.487 41.468l12.558-12.553-12.558 12.553zm30.26-23.604l16.33-16.323m-43.337 43.327l5.433-5.441-5.433 5.441zm9.796-9.791l10.897-10.902-10.897 10.902zm31.6-24.945l6.624-6.631m-32.941 32.926l19.813-19.794-19.813 19.794zm29.879-26.535l2.692-2.691m-31.23 31.216l6.995-6.991-6.995 6.991zm12.678-12.682l7.085-7.071-7.085 7.071zm2.231 1.1l6.495-6.501m-20.073 20.073l6.344-6.351-6.344 6.351zm15.81-12.482l5.913-5.911m-20.393 20.374l5.704-5.691-5.704 5.691zm16.711-13.373l5.334-5.331m-16.821 16.823l1.161-1.17-1.161 1.17z" stroke="#F6FFFF" stroke-width="1.765" stroke-miterlimit="10"/><path d="M129.51 267.321l-.09-.66-.06-.38c-.02-.13-.04-.26-.06-.38-.04-.22-.08-.44-.121-.65l-.03-.12c-.01-.05-.02-.11-.03-.17-.11-.541-.23-1.071-.37-1.601-.05-.2-.1-.39-.15-.58m0 0l8.486-5.701-2.832-6.291-9.897 2.561" stroke="#F6FFFF" stroke-width="3.49" stroke-miterlimit="10" stroke-linecap="round" stroke-linejoin="round"/><path d="M124.357 253.349a37.447 37.447 0 00-1.391-1.981.55.55 0 01-.07-.09c-.14-.18-.27-.35-.411-.52l-.24-.3c-.09-.1-.17-.2-.25-.3-.14-.17-.29-.34-.43-.51a.572.572 0 01-.07-.08c-.541-.61-1.091-1.2-1.671-1.77" stroke="#F6FFFF" stroke-width="3.49" stroke-miterlimit="10" stroke-linecap="round" stroke-linejoin="round"/><path d="M119.824 247.798l4.503-9.172-5.604-4.031-7.285 7.162m0-.001c-.71-.36-1.451-.71-2.201-1.02-.03-.01-.07-.03-.1-.04-.21-.09-.41-.17-.61-.25-.121-.05-.251-.09-.371-.14-.12-.05-.24-.09-.36-.14-.21-.07-.41-.15-.62-.22l-.11-.03c-.771-.27-1.541-.5-2.322-.7m0 0l-.69-10.192-6.875-.7-2.722 9.842m0 0c-.81.05-1.61.12-2.411.22-.04.01-.08.01-.12.02-.17.02-.35.04-.53.07-.04 0-.08.01-.12.02l-.391.06c-.12.02-.25.04-.38.06l-.65.12c-.03.01-.06.01-.09.02h-.02c-.801.16-1.582.35-2.362.56m0 0l-5.693-8.481-6.304 2.83 2.571 9.892" stroke="#F6FFFF" stroke-width="3.49" stroke-miterlimit="10" stroke-linecap="round" stroke-linejoin="round"/><path d="M77.957 243.557l-.51.33c-.45.31-.89.62-1.33.95-.05.04-.1.08-.15.11 0 .01-.01.01-.01.02-.03.01-.05.03-.081.05-.17.14-.35.27-.52.41l-.3.24c-.1.08-.2.17-.3.25-.03.03-.07.05-.1.08-.13.12-.27.23-.401.35-.03.02-.06.05-.09.07-.61.54-1.2 1.09-1.761 1.66m0 .001l-9.176-4.491-4.043 5.591 7.165 7.291m0 0c-.36.71-.7 1.45-1.01 2.191-.02.04-.03.08-.051.11-.08.21-.17.41-.25.61-.04.12-.09.25-.14.37-.04.12-.09.24-.13.36-.08.21-.15.41-.22.62-.02.04-.03.07-.04.11-.26.77-.49 1.54-.7 2.32m-.001 0l-10.196.69-.69 6.872 9.846 2.72m0 0c.04.8.11 1.61.22 2.41 0 .04.01.08.01.12l.09.651.06.39c.03.12.05.25.07.38.04.21.08.43.12.65.01.03.01.07.02.11.16.8.34 1.58.56 2.36" stroke="#F6FFFF" stroke-width="3.49" stroke-miterlimit="10" stroke-linecap="round" stroke-linejoin="round"/><path d="M63.918 280.513l-8.485 5.691 2.831 6.301 9.887-2.57" stroke="#F6FFFF" stroke-width="3.49" stroke-miterlimit="10" stroke-linecap="round" stroke-linejoin="round"/><path d="M68.15 289.935c.441.68.911 1.34 1.402 1.98.02.04.04.07.07.1.13.17.27.34.4.52.08.1.17.2.25.3l.24.3c.15.17.29.331.43.501.03.03.05.06.08.09.531.61 1.091 1.2 1.662 1.76m0 0l-4.503 9.172 5.604 4.04 7.284-7.171m.001 0c.72.37 1.45.71 2.201 1.02.03.02.07.03.1.05.21.08.41.16.62.25.12.04.24.09.36.13.121.05.241.1.361.14.21.08.42.15.62.22.04.01.08.03.12.04.761.26 1.542.49 2.312.7m-.001 0l.7 10.192 6.865.69 2.732-9.841m0 0c.8-.04 1.601-.12 2.412-.22.04 0 .07-.01.11-.01.18-.03.35-.05.53-.07.04-.01.08-.02.13-.02.13-.02.25-.05.38-.07.13-.02.261-.04.381-.06.22-.04.44-.08.65-.12.03 0 .06-.01.09-.02h.03c.791-.16 1.581-.34 2.352-.561" stroke="#F6FFFF" stroke-width="3.49" stroke-miterlimit="10" stroke-linecap="round" stroke-linejoin="round"/><path d="M105.124 303.967l5.704 8.482 6.294-2.831-2.562-9.881" stroke="#F6FFFF" stroke-width="3.49" stroke-miterlimit="10" stroke-linecap="round" stroke-linejoin="round"/><path d="M114.56 299.737c.67-.441 1.331-.911 1.981-1.401.01 0 .01-.01.02-.01.02-.02.04-.04.07-.06.17-.13.351-.27.521-.41.1-.07.2-.16.3-.24.1-.08.2-.16.3-.25.04-.02.07-.05.1-.08.14-.11.27-.23.4-.34.03-.03.06-.05.09-.08a34.77 34.77 0 001.772-1.66m0 0l9.176 4.501 4.032-5.601-7.164-7.282m0 0c.36-.72.7-1.45 1.02-2.2.01-.04.03-.07.04-.11.09-.2.17-.4.251-.61.01-.01.01-.02.02-.04 0-.01 0-.02.01-.03.04-.1.07-.19.11-.29.04-.12.09-.24.14-.36.07-.21.14-.42.22-.63.01-.03.02-.07.03-.11.27-.761.5-1.541.7-2.321m0 0l10.197-.69.7-6.861-9.856-2.731m0 0c-.04-.8-.11-1.6-.21-2.41-.01-.04-.01-.08-.02-.11m-21.523 29.055c-.181.08-.351.16-.521.23-.16.08-.32.15-.48.22-.05.02-.09.03-.13.05a27.663 27.663 0 01-12.678 2.061c-.05-.01-.09-.01-.14-.01l-.57-.061c-.17-.02-.35-.03-.521-.05a.583.583 0 00-.13-.019 27.668 27.668 0 01-12.018-4.561c-.03-.02-.07-.05-.11-.07l-.46-.34c-.14-.1-.29-.2-.43-.31a2.78 2.78 0 01-.11-.08 27.615 27.615 0 01-8.115-9.952l-.06-.12c-.08-.17-.16-.35-.24-.53-.07-.15-.14-.31-.21-.47-.02-.04-.03-.08-.05-.12a27.668 27.668 0 01-2.062-12.683c.01-.04.01-.08.01-.13l.06-.57c.02-.18.03-.35.05-.53.01-.04.01-.08.02-.12a27.663 27.663 0 014.563-12.022l.07-.1c.1-.15.21-.29.31-.43.11-.16.22-.31.34-.47a.7.7 0 01.08-.1 27.54 27.54 0 019.957-8.122c.04-.02.08-.04.12-.05.16-.08.32-.15.49-.23.17-.07.34-.15.51-.23.04-.01.08-.03.12-.05a27.696 27.696 0 0112.689-2.05c.04 0 .09 0 .13.01.18.01.36.03.54.05l.56.06c.04 0 .08.01.13.02a27.54 27.54 0 0112.008 4.551c.04.03.08.05.11.08.15.1.29.21.44.31l.451.33c.04.03.07.06.11.08a27.606 27.606 0 018.125 9.952c.02.04.04.08.05.12.08.16.15.32.22.48.08.17.16.35.24.53.01.04.03.08.05.12a27.604 27.604 0 012.051 12.672c0 .05-.01.09-.01.14-.01.18-.03.35-.05.52l-.06.57c-.01.04-.01.09-.02.14a27.515 27.515 0 01-4.553 11.992c-.03.04-.05.08-.08.12-.11.15-.22.311-.34.471l-.3.42a.7.7 0 00-.08.1 27.627 27.627 0 01-10.076 8.181v0z" stroke="#F6FFFF" stroke-width="3.49" stroke-miterlimit="10" stroke-linecap="round" stroke-linejoin="round"/><path d="M-99.725 363.168c4.042-38.867 36.913-69.162 76.869-69.162 39.955 0 72.826 30.295 76.868 69.162" stroke="#F6FFFF" stroke-width="1.765" stroke-miterlimit="10"/><path d="M-173.052 363.168c4.202-79.274 69.834-142.255 150.195-142.255 80.36 0 145.992 62.981 150.195 142.255" stroke="#F6FFFF" stroke-width=".882" stroke-miterlimit="10"/><path d="M83.981 363.168v-75.794h89.497v75.794" stroke="#F6FFFF" stroke-width="2.607" stroke-miterlimit="10"/><path d="M82.04 301.927v61.241h1.94v-61.241h-1.94z" fill="#F6FFFF"/></g><path d="M62.174 374c-34.972-20.892-52.408-80.682-43.602-121.266 11.072-51.02 50.687-87.454 66.48-137.244 11.373-35.862 9.852-75.58-4.237-110.487-1.689-4.187-3.558-8.321-5.234-12.516H-402V374H62.174z" fill="url(#paint0_linear)"/><g filter="url(#filter0_d)"><path d="M43.74 360.829c-24.71-30.67-35.752-72.557-27.469-111.209 10.415-48.59 47.195-87.572 62.05-134.991C89.02 80.474 87.59 42.649 74.338 9.403c-1.589-3.987-3.347-7.925-4.924-11.92h-453.502V360.83H43.739z" fill="#fff"/></g><mask id="a" maskUnits="userSpaceOnUse" x="-385" y="-3" width="471" height="364"><path d="M43.74 360.829c-24.71-30.67-35.752-72.557-27.469-111.209 10.415-48.59 47.195-87.572 62.05-134.991C89.02 80.474 87.59 42.649 74.338 9.403c-1.589-3.987-3.347-7.925-4.924-11.92h-453.502V360.83H43.739z" fill="#fff"/></mask><g mask="url(#a)"><path d="M-8.038 298.796l1.43 8.502 5.825.02 1.47-8.492m.001 0c.67-.11 1.34-.23 2.01-.39.03 0 .06-.01.09-.02.15-.03.301-.07.441-.1l.11-.03c.1-.03.21-.05.31-.08l.32-.09c.18-.05.36-.1.53-.15.03-.01.051-.02.081-.02.01 0 .01-.01.02-.01.65-.2 1.3-.42 1.931-.66m0 0l5.484 6.651 5.053-2.89-2.962-8.102m0 0c.53-.42 1.041-.86 1.541-1.33.01 0 .01-.01.02-.01l.06-.06c.13-.12.27-.25.4-.38l.23-.23c.08-.08.161-.15.231-.23.03-.03.06-.05.08-.08.11-.11.21-.21.31-.32.02-.03.04-.05.07-.07.47-.5.91-1.02 1.341-1.541m0 .001l8.075 3.02 2.932-5.041-6.625-5.521m0 0c.25-.63.48-1.28.68-1.93l.03-.09.151-.54.09-.31c.02-.09.05-.17.07-.26 0-.01 0-.02.01-.03 0-.01 0-.02.01-.03.04-.18.09-.36.13-.54.01-.03.01-.06.02-.09a28.7 28.7 0 00.4-2.011m.001 0l8.505-1.42.01-5.821-8.495-1.48m0 0a28.32 28.32 0 00-.38-2.011c0-.03-.01-.06-.02-.09-.04-.18-.08-.36-.13-.54-.03-.11-.06-.22-.08-.32l-.09-.32-.15-.53-.03-.09c-.2-.66-.421-1.3-.661-1.94m-.001 0l6.654-5.481-2.901-5.051-8.096 2.97" stroke="#F2F2F2" stroke-width="3.49" stroke-miterlimit="10" stroke-linecap="round" stroke-linejoin="round"/><path d="M18.499 253.188c-.42-.53-.87-1.05-1.331-1.55-.02-.02-.04-.05-.07-.07-.12-.14-.25-.27-.38-.41-.08-.07-.15-.15-.23-.23-.08-.07-.15-.15-.23-.23-.13-.13-.27-.26-.4-.38-.03-.03-.05-.05-.08-.07a28.287 28.287 0 00-1.532-1.351m0 0l3.012-8.071-5.033-2.931-5.524 6.622" stroke="#F2F2F2" stroke-width="3.49" stroke-miterlimit="10" stroke-linecap="round" stroke-linejoin="round"/><path d="M6.701 244.517c-.63-.25-1.28-.47-1.93-.68-.03 0-.06-.01-.09-.02-.181-.06-.361-.11-.541-.16l-.31-.09c-.11-.03-.21-.05-.32-.08-.18-.05-.36-.09-.541-.14-.03 0-.06-.01-.1-.02-.66-.16-1.33-.291-2.001-.391m0 .001l-1.421-8.502-5.824-.02-1.48 8.492m.239 37.646c1.23.52 2.581.8 4.002.81 1.421 0 2.772-.28 4.003-.78m0 0l6.294 10.962m.001 0a23.325 23.325 0 01-9.766 2.4m-.481-30.655c4.182.02 7.564 3.421 7.554 7.601-.01 4.171-3.422 7.552-7.594 7.542-4.183-.01-7.565-3.421-7.555-7.592.02-4.17 3.422-7.561 7.595-7.551v0zm5.183 16.693c.01-.01.03-.02.04-.03-.01.01-.03.02-.04.03zm15.05 1.99c-.02.03-.03.06-.05.1-.07.12-.15.25-.22.38-.09.14-.17.28-.25.42l-.06.09a23.142 23.142 0 01-7.005 7.202m-.001 0l-6.284-10.962m0 0a10.539 10.539 0 004.023-6.921m0 0l12.648.04m.001 0a23.19 23.19 0 01-2.802 9.651m-9.776-10.331v-.081.081zm2.311-20.004a23.247 23.247 0 017.024 7.341l.24.42c.07.13.15.26.22.39.02.03.03.06.05.1a23.206 23.206 0 012.742 9.662m.001 0l-12.648-.04m0 0a10.495 10.495 0 00-3.983-6.941m.001 0l6.353-10.932m-2.301 18.593a.249.249 0 010 0zm-5.224-8.451a.076.076 0 000 0zm-15.52-11.602a23.23 23.23 0 019.756-2.401h1.151a23.3 23.3 0 019.746 2.471m0 0L.447 261.17m0 0c-1.23-.51-2.581-.8-4.002-.8-1.411-.01-2.772.27-4.003.78m25.616 86.205l9.506-10.872-6.163-7.561-12.568 7.111m0 0c-.85-.76-1.731-1.5-2.632-2.2a1.282 1.282 0 00-.13-.091c-.24-.19-.49-.38-.75-.57-.14-.11-.29-.21-.43-.32-.15-.11-.3-.22-.45-.32-.261-.18-.511-.36-.771-.53-.04-.03-.09-.06-.14-.09a48.973 48.973 0 00-2.912-1.81m-.001 0l2.792-14.163-9.116-3.46-7.334 12.432" stroke="#F2F2F2" stroke-width="3.49" stroke-miterlimit="10" stroke-linecap="round" stroke-linejoin="round"/><path d="M75.525 234.205l1.1-1.1m-16.76 16.763l5.324-5.321-5.324 5.321zm6.285 7.001l19.762-19.744M52.99 270.031l6.574-6.581-6.574 6.581zm38.655-25.354l12.608-12.612m-41.486 41.467l6.494-6.491-6.494 6.491zm41.396-28.085l4.823-4.821m-51.092 51.069l12.148-12.142-12.148 12.142zm19.002-52.209l6.344-6.341m-20.083 20.073l6.484-6.491-6.484 6.491zm32.43-19.123l5.384-5.391m-43.338 43.317l16.47-16.462-16.47 16.462zm22.525-22.503l11.007-11.002-11.007 11.002zm18.432-5.141l6.093-6.091m-48.851 48.828l3.582-3.58-3.582 3.58zm7.785-7.781l5.363-5.361-5.363 5.361zm45.269-31.966l11.547-11.542m-54.785 54.76l6.314-6.311-6.314 6.311zm47.3-40.637l11.348-11.342m-54.125 54.109l4.383-4.391-4.383 4.391zm46.24-39.587l4.363-4.35m-49.401 49.378l6.364-6.361-6.364 6.361zm47.94-41.267l4.433-4.441m-53.624 53.609l11.367-11.372-11.367 11.372zm51.462-44.807l9.706-9.692m-50.071 50.049l4.643-4.651-4.643 4.651zm41.896-35.236l12.518-12.513m-49.701 49.679l5.043-5.041-5.043 5.041zm-9.717-66.692l5.684-5.691m-20.393 20.384l5.914-5.901-5.914 5.901zm35.352-22.044l1.09-1.09m-42.916 42.897l8.105-8.091-8.105 8.091zm9.015-9.011l23.195-23.184-23.195 23.184zm31.301-17.993l9.115-9.122m-41.386 41.377l5.814-5.811-5.814 5.811zm43.537-30.235l4.653-4.651m-50.101 50.079l9.746-9.742-9.747 9.742zm53.584-40.277l6.424-6.411m-49.462 49.439l4.363-4.361-4.363 4.361zm48.821-35.507l6.264-6.271m-54.744 54.73l11.537-11.542-11.537 11.542zm5.523-65.332l6.995-6.981M53.36 266.33l2.642-2.64-2.642 2.64zm11.447-11.442l7.065-7.061-7.065 7.061zm22.355-9.061l16.821-16.813m-43.748 43.728l10.197-10.192-10.197 10.192zm41.266-27.955l5.053-5.051m-49.691 49.669l12.528-12.523-12.528 12.523zm54.134-40.828l11.367-11.362m-53.624 53.6l4.443-4.441-4.443 4.441zm49.192-35.877l4.393-4.39M68.19 304.657l11.348-11.342-11.348 11.342zm54.265-40.957l12.147-12.132M83.5 302.647l4.813-4.821-4.813 4.821z" stroke="#F2F2F2" stroke-width="1.765" stroke-miterlimit="10"/><path d="M87.382 239.316l-5.693-8.482-6.304 2.831 2.571 9.892" stroke="#F2F2F2" stroke-width="3.49" stroke-miterlimit="10" stroke-linecap="round" stroke-linejoin="round"/><path d="M77.956 243.556l-.51.331a40.354 40.354 0 00-1.481 1.06c0 .01-.01.01-.01.02-.03.01-.05.03-.08.05-.17.14-.35.27-.52.41l-.301.24c-.1.08-.2.17-.3.25-.03.03-.07.05-.1.08-.13.12-.27.23-.4.35-.03.02-.06.05-.09.07-.61.54-1.201 1.09-1.762 1.66m0 0l-9.175-4.49-4.043 5.591 7.165 7.291m0 0c-.36.71-.7 1.45-1.01 2.19-.02.04-.03.08-.05.11-.081.21-.171.41-.251.61-.04.12-.09.25-.14.371-.04.12-.09.24-.13.36-.08.21-.15.41-.22.62-.02.04-.03.07-.04.11-.26.77-.49 1.54-.7 2.32m-.001 0l-10.196.69-.69 6.871 9.846 2.721m0 0c.04.8.11 1.61.22 2.41 0 .04.01.08.01.12l.09.65.06.39c.03.12.05.25.07.38.04.21.08.431.12.651.01.03.01.07.02.11.16.8.34 1.58.56 2.36" stroke="#F2F2F2" stroke-width="3.49" stroke-miterlimit="10" stroke-linecap="round" stroke-linejoin="round"/><path d="M63.917 280.513l-8.485 5.691 2.831 6.301 9.887-2.57m0 0c.44.68.91 1.34 1.4 1.98.02.04.04.07.07.1.13.17.27.34.4.52.08.1.17.2.25.3l.24.3c.151.17.291.33.431.5.03.03.05.06.08.09.53.61 1.09 1.201 1.661 1.761m.001 0l-4.503 9.171 5.604 4.041 7.284-7.171" stroke="#F2F2F2" stroke-width="3.49" stroke-miterlimit="10" stroke-linecap="round" stroke-linejoin="round"/><path d="M81.068 301.527c.72.37 1.451.71 2.202 1.02.03.02.07.03.1.05.21.08.41.16.62.25.12.04.24.09.36.13.12.05.24.1.36.14.21.08.421.15.621.22.04.01.08.03.12.04.76.26 1.541.49 2.312.7m20.222-7.701c-.18.08-.35.16-.52.23-.16.08-.32.15-.481.22-.05.02-.09.03-.13.05a27.658 27.658 0 01-12.678 2.06c-.05-.01-.09-.01-.14-.01l-.57-.06c-.17-.02-.35-.03-.52-.05a.587.587 0 00-.13-.02 27.643 27.643 0 01-12.018-4.561c-.03-.02-.07-.05-.11-.07l-.46-.34c-.14-.1-.29-.2-.43-.31a2.78 2.78 0 01-.11-.08 27.604 27.604 0 01-8.176-10.071c-.08-.17-.16-.351-.24-.531-.07-.15-.14-.31-.21-.47-.02-.04-.03-.08-.05-.12a27.66 27.66 0 01-2.062-12.682c.01-.04.01-.08.01-.13l.06-.57c.02-.18.03-.35.05-.53.01-.04.01-.08.02-.12a27.66 27.66 0 014.563-12.022l.07-.1c.1-.15.21-.29.31-.43.11-.16.22-.31.34-.47a.7.7 0 01.08-.1 27.53 27.53 0 019.957-8.122c.04-.02.08-.04.12-.05.16-.08.32-.15.49-.23.17-.07.34-.15.51-.23.04-.01.08-.03.12-.05a27.697 27.697 0 0112.689-2.05c.04 0 .09 0 .13.01.18.01.36.03.54.05l.56.06c.04 0 .08.01.13.02 4.304.55 8.426 2.11 12.008 4.551.041.03.081.05.111.08.15.1.29.21.44.31l.45.33c.04.03.07.06.11.08a27.611 27.611 0 018.125 9.951c.02.04.04.08.05.12.08.16.15.32.221.48.08.171.16.351.24.531.01.04.03.08.05.12 1.671 4 2.371 8.351 2.051 12.672 0 .05-.01.09-.01.14-.01.18-.03.35-.05.52l-.06.57c-.01.04-.01.09-.02.14a27.515 27.515 0 01-4.553 11.992c-.03.04-.05.08-.08.12-.11.15-.22.31-.34.47l-.3.42a.7.7 0 00-.08.1 27.625 27.625 0 01-10.077 8.182v0z" stroke="#F2F2F2" stroke-width="3.49" stroke-miterlimit="10" stroke-linecap="round" stroke-linejoin="round"/><path d="M-99.726 363.168c4.043-38.867 36.913-69.162 76.869-69.162 39.955 0 72.826 30.295 76.868 69.162" stroke="#F2F2F2" stroke-width="1.765" stroke-miterlimit="10"/><path d="M-173.053 363.168c4.202-79.274 69.834-142.255 150.195-142.255 80.36 0 145.992 62.981 150.195 142.255" stroke="#F2F2F2" stroke-width=".882" stroke-miterlimit="10"/><path d="M83.98 363.168v-75.794h89.497v75.794" stroke="#F2F2F2" stroke-width="2.607" stroke-miterlimit="10"/><path d="M82.04 301.927v61.241h1.94v-61.241h-1.94z" fill="#F2F2F2"/></g><path fill-rule="evenodd" clip-rule="evenodd" d="M65.576 43h-1.464c-.2.017-.4.044-.6.048-.188.005-.295.066-.354.268-.305 1.068-.63 2.13-.939 3.196-.051.18-.127.269-.32.325-.609.178-1.204.4-1.812.586a.426.426 0 01-.332-.053c-.97-.722-1.93-1.457-2.95-2.23-4.579.178-9.448.26-14.03.377-6.38.164-12.76.327-19.141.493-3.06.079-6.118.163-9.176.244-.113.004-.224.01-.336.09H55.22c-.195.15-.393.295-.59.448a.186.186 0 00-.044.071c-3.913.128-7.959.204-11.81.303l-19.142.492c-3.06.08-6.118.164-9.176.245a.559.559 0 00-.336.09h40.786l.22.606c-4.082.138-8.323.217-12.352.32-6.38.165-12.762.327-19.142.493-3.06.079-6.118.162-9.176.244-.113.003-.224.01-.336.09h41.42c.065.177.127.355.192.532-4.264.152-8.729.233-12.958.342-6.38.164-12.762.327-19.142.492-3.06.08-6.118.163-9.176.245-.113.004-.224.01-.336.09H57.29l.752.552c-4.621.14-11.183.217-15.265.321-6.38.164-12.762.328-19.142.494-3.06.078-6.118.162-9.176.244a.556.556 0 00-.336.089l45.492.007a7.157 7.157 0 015.192-2.23c4.008-.003 7.212 3.217 7.216 7.252a7.322 7.322 0 01-.704 3.14l3.974 2.771a.549.549 0 01.166-.021c1.116.04 2.232.066 3.349.105.183.007.284-.036.347-.229.27-.822.558-1.636.842-2.462l-1.63-1.098c-.486-.33-.976-.655-1.454-.997a.393.393 0 01-.14-.278c-.011-.583.01-1.165-.004-1.747-.005-.225.05-.365.249-.494.931-.61 1.85-1.243 2.776-1.86.114-.077.16-.135.114-.279-.264-.823-.516-1.65-.774-2.483-1.194.035-2.329.05-3.46.111-.342.019-.532-.067-.721-.363-.33-.516-.731-.988-1.091-1.486a.355.355 0 01-.053-.28c.368-1.048.743-2.094 1.13-3.135.083-.222.075-.37-.132-.51-.649-.445-1.292-.9-1.936-1.356-.138-.1-.238-.086-.376.02-.906.699-1.823 1.382-2.73 2.08-.126.097-.227.091-.363.046a70.43 70.43 0 00-1.91-.6c-.143-.045-.218-.102-.262-.257-.313-1.073-.645-2.142-.958-3.216-.054-.18-.125-.271-.323-.256-.122.01-.248-.026-.372-.042z" fill="url(#paint1_linear)"/><path d="M32.7 60.303l-.552 2.57h-5.362l.537-2.57h-.804L23.97 70.72h.805l.804-3.044h5.63l-1.442 4.228c-.28 1.105-.877 1.658-1.792 1.658h-8.83c-1.05 0-1.402-.678-1.055-2.03l3.166-12.178c.358-1.352 1.083-2.03 2.179-2.03h4.858c1.787-.022 2.938 0 3.452.068.793.295 1.19.807 1.19 1.54 0 .36-.079.817-.236 1.37zm19.887 0l-3.35 13.26H43.74l3.402-13.26h-.804l-3.335 13.26h-5.496l3.402-13.26h-.737l-3.485 13.26h-5.462l4.222-16.238h16.051c.882.34 1.324.875 1.324 1.607 0 .361-.08.818-.236 1.37zm13.656 0l-.686 2.368h-5.161l.469-2.368h-.804l-.737 3.246h5.964l-.737 3.384h-6.032l-1.005 3.788h.803l.805-2.774h5.16l-.97 3.958c-.28 1.105-.878 1.658-1.794 1.658h-8.83c-1.05 0-1.402-.678-1.055-2.03L54.8 59.355c.357-1.352 1.083-2.03 2.178-2.03h4.858c1.788-.022 2.938 0 3.452.068.793.295 1.19.807 1.19 1.54 0 .36-.079.817-.235 1.37zM16.768 78.87h-1.196l.13-.485h-.177l-.34 1.29h.172l.099-.367h1.2l-.287 1.068h-2.015a.295.295 0 01-.08-.015.334.334 0 01-.116-.05.355.355 0 01-.105-.1.289.289 0 01-.05-.157.297.297 0 01.008-.115c.007-.044.019-.09.034-.146l.437-1.653a.52.52 0 01.177-.284c.09-.075.222-.11.398-.11h1.574c.102 0 .18.008.23.027.052.02.087.044.106.071.02.028.028.063.028.099-.004.036-.004.075-.007.111l-.22.816zm2.049-1.712l-.856 3.22h-1.313l.856-3.22h1.313zm-.107 1.463h1.188L19.6 79.75h.2l.312-1.186c.003-.02-.004-.036-.024-.056a.206.206 0 00-.086-.035h-1.258l.196-.726h2.031a.28.28 0 01.137.035.52.52 0 01.11.095c.027.04.05.079.065.122a.38.38 0 01.024.123l-.504 1.901c-.003.012-.015.039-.031.079a.513.513 0 01-.219.229.486.486 0 01-.223.046h-1.625c-.07 0-.129-.004-.18-.007a.253.253 0 01-.12-.035.148.148 0 01-.068-.091.53.53 0 01-.015-.166l.386-1.456zm3.787.518h-1.18l.282-1.062c.057-.22.241-.33.558-.33h1.672c.059 0 .11.003.156.007a.244.244 0 01.114.035c.027.02.046.052.054.092a.36.36 0 01-.015.165l-.184.69H22.79l.098-.358h-.189l-.202.76zm.218-.142h1.173l-.282 1.053c-.054.217-.238.326-.55.326h-1.735a.267.267 0 01-.13-.027.225.225 0 01-.084-.075.208.208 0 01-.04-.1.194.194 0 010-.097l.187-.694h1.177l-.099.363h.185l.198-.75zm2.592.142h-1.18l.282-1.062c.058-.22.242-.33.559-.33h1.672c.059 0 .109.003.156.007a.244.244 0 01.114.035c.026.02.046.052.054.092a.346.346 0 01-.016.165l-.183.69H25.6l.099-.358h-.189l-.203.76zm.219-.142h1.173l-.283 1.053c-.054.217-.237.326-.55.326h-1.734a.267.267 0 01-.13-.027.225.225 0 01-.085-.075.207.207 0 01-.04-.1.194.194 0 010-.097l.188-.694h1.176l-.098.363h.185l.198-.75zm1.784-1.256h1.175l-.156.585h-1.175l.156-.585zm-.2.758h1.176l-.5 1.877H26.61l.5-1.877zm3.835.371h-1.196l.13-.485h-.177l-.34 1.29h.172l.099-.367h1.199l-.286 1.068h-2.015a.281.281 0 01-.078-.015.34.34 0 01-.118-.05.352.352 0 01-.105-.1.28.28 0 01-.051-.157.297.297 0 01.008-.115c.008-.044.02-.09.035-.146l.437-1.653a.52.52 0 01.177-.284c.09-.075.222-.11.398-.11h1.574c.102 0 .18.008.232.027.05.02.085.044.104.071.02.028.028.063.028.099-.004.036-.004.075-.008.111l-.22.816zm1.871-1.129h3.416c.14 0 .242.02.308.065.063.042.078.12.047.243l-.617 2.327h-1.149l.532-1.998h-.22l-.53 1.998h-1.13l.532-1.998h-.223l-.531 1.998h-1.133l.698-2.635zm4.721 2.031h.211l.371-1.396h-.211l-.371 1.396zm1.328.313c-.05.193-.176.29-.367.29h-1.923c-.1 0-.175-.026-.218-.078-.043-.05-.05-.133-.024-.243l.523-1.977c.059-.22.243-.33.556-.33h1.645c.105 0 .183.019.239.062a.42.42 0 01.12.197l-.551 2.08zm3.538-2.312l-.2.754h-.788l-.494 1.85h-1.175l.492-1.85h-.68l.199-.754h.7l.164-.615h1.18l-.164.615h.766zm.877 1.999h.21l.371-1.396h-.21l-.372 1.396zm1.328.313c-.052.193-.176.29-.367.29h-1.923c-.101 0-.176-.026-.219-.078-.043-.05-.05-.133-.024-.243l.523-1.977c.06-.22.243-.33.556-.33H44.8c.106 0 .184.019.239.062.05.044.092.107.121.197l-.55 2.08zm1.915-1.72l-.536 2.012h-1.18l.614-2.312c.058-.217.242-.324.55-.324h1.81a.21.21 0 01.105.025.173.173 0 01.063.059c.012.028.024.054.028.082.004.032.004.063.004.091l-.239.891h-1.164l.14-.523h-.195zm2.611.774h-1.179l.28-1.062c.059-.22.242-.33.56-.33h1.671c.06 0 .11.003.157.007a.244.244 0 01.114.035c.026.02.045.052.053.092a.346.346 0 01-.015.165l-.184.69h-1.164l.098-.358h-.188l-.203.76zm.218-.142h1.173l-.28 1.053c-.056.217-.24.326-.552.326H47.96a.267.267 0 01-.13-.027.225.225 0 01-.085-.075.207.207 0 01-.04-.1.194.194 0 010-.097l.187-.694h1.177l-.099.363h.185l.198-.75zm5.081.497h-1.185l.297-1.118h-.207l-.316 1.184c-.004.02.004.04.027.055a.263.263 0 00.09.036h1.26l-.193.726h-2.032a.241.241 0 01-.137-.04.481.481 0 01-.184-.213.288.288 0 01-.026-.118l.483-1.822a1.07 1.07 0 01.122-.214.646.646 0 01.137-.133.443.443 0 01.156-.068.866.866 0 01.183-.02h1.529c.12 0 .21.02.277.057.066.035.098.117.102.24l-.383 1.448zm2.599.883h-1.189l.532-2h-.18l-.53 2h-1.18l.698-2.63h2.11c.101 0 .184.015.243.046.058.036.1.102.128.205l-.632 2.38zm1.49-.222h-.739c-.204-.015-.32-.101-.348-.255l.496-1.862a.244.244 0 01.059-.106.427.427 0 01.105-.096.69.69 0 01.13-.067.336.336 0 01.132-.028h1.662a.68.68 0 01.202.095c.047.04.079.084.098.134a.478.478 0 01.027.166l-.012.198L59.627 81h-2.152l.15-.576h1.037l.516-1.945h-.211l-.445 1.676zm2.247-2.414h1.177l-.157.585h-1.176l.156-.585zm-.2.758h1.177l-.5 1.877H60.07l.5-1.877zm3.505 1.878h-1.189l.532-2h-.18l-.532 2h-1.179l.7-2.63h2.11c.1 0 .182.015.24.046.06.036.103.102.13.205l-.632 2.38zm2.982-.883h-1.184l.297-1.118h-.208l-.316 1.184c-.004.02.004.04.028.055a.247.247 0 00.089.036h1.26l-.193.726h-2.032a.235.235 0 01-.136-.04.343.343 0 01-.11-.094.418.418 0 01-.101-.237l.485-1.822a1.01 1.01 0 01.121-.214.614.614 0 01.136-.133.443.443 0 01.156-.068.867.867 0 01.185-.02h1.527c.12 0 .21.02.277.057.067.035.098.117.102.24l-.383 1.448zm2.755 0h-1.183l.296-1.118h-.206L68.4 79.56c-.004.02.005.04.027.055a.263.263 0 00.09.036h1.259l-.192.726h-2.032a.241.241 0 01-.137-.04.481.481 0 01-.184-.213.292.292 0 01-.027-.118l.485-1.822a1.07 1.07 0 01.121-.214.621.621 0 01.137-.133.433.433 0 01.156-.068.856.856 0 01.184-.02h1.528c.121 0 .21.02.278.057.066.035.097.117.1.24l-.383 1.448zm1.768-1.129l-.536 2.012h-1.179l.614-2.312c.057-.217.241-.324.55-.324h1.809a.187.187 0 01.17.084c.01.028.022.054.025.082a.798.798 0 01.004.091l-.238.891h-1.164l.14-.523h-.195zm1.803-.624h1.175l-.156.585h-1.175l.156-.585zm-.2.758h1.176l-.5 1.877h-1.176l.5-1.877zm3.503 1.878h-1.187l.53-2h-.18l-.53 2h-1.18l.698-2.63h2.11a.52.52 0 01.243.046c.06.036.102.102.129.205l-.633 2.38zm1.49-.222h-.738c-.203-.015-.32-.101-.348-.255l.496-1.862a.257.257 0 01.059-.106.427.427 0 01.105-.096.73.73 0 01.13-.067.341.341 0 01.133-.028h1.66c.09.028.156.06.203.095.047.04.078.084.097.134.02.052.028.107.028.166l-.012.198L79.281 81h-2.153l.153-.576h1.035l.516-1.945h-.211l-.446 1.676z" fill="#373738"/><defs><linearGradient id="paint0_linear" x1="62.401" y1="418.056" x2="-234.471" y2="279.019" gradientUnits="userSpaceOnUse"><stop stop-color="#E52D2D"/><stop offset=".251" stop-color="#E11F28"/><stop offset=".49" stop-color="#333867"/><stop offset=".812" stop-color="#46A8DE"/><stop offset="1" stop-color="#46A8DE"/></linearGradient><linearGradient id="paint1_linear" x1="68.821" y1="74.433" x2="27.165" y2="33.179" gradientUnits="userSpaceOnUse"><stop stop-color="#E52D2D"/><stop offset=".251" stop-color="#E11F28"/><stop offset=".49" stop-color="#333867"/><stop offset=".812" stop-color="#46A8DE"/><stop offset="1" stop-color="#46A8DE"/></linearGradient><filter id="filter0_d" x="-386.089" y="-10.517" width="485.514" height="379.345" filterUnits="userSpaceOnUse" color-interpolation-filters="sRGB"><feFlood flood-opacity="0" result="BackgroundImageFix"/><feColorMatrix in="SourceAlpha" values="0 0 0 0 0 0 0 0 0 0 0 0 0 0 0 0 0 0 127 0"/><feOffset dx="6"/><feGaussianBlur stdDeviation="4"/><feColorMatrix values="0 0 0 0 0 0 0 0 0 0 0 0 0 0 0 0 0 0 0.25 0"/><feBlend in2="BackgroundImageFix" result="effect1_dropShadow"/><feBlend in="SourceGraphic" in2="effect1_dropShadow" result="shape"/></filter></defs></svg>