<svg width="648" height="382" viewBox="0 0 648 382" fill="none" xmlns="http://www.w3.org/2000/svg">
<g clip-path="url(#clip0)">
<path d="M431.969 154.097C431.983 154.262 431.997 154.44 432.024 154.605C432.038 154.701 432.052 154.797 432.065 154.907C432.079 155.003 432.093 155.099 432.106 155.195C432.134 155.373 432.161 155.538 432.203 155.703C432.203 155.73 432.203 155.771 432.216 155.799C432.216 155.84 432.23 155.881 432.23 155.936C432.313 156.348 432.409 156.773 432.505 157.185C432.532 157.336 432.574 157.487 432.615 157.638" stroke="#F2F2F2" stroke-width="1.76499" stroke-miterlimit="10"/>
<path d="M432.615 157.638L425.946 161.948L428.077 166.862L435.791 165.009" stroke="#F2F2F2" stroke-width="1.76499" stroke-miterlimit="10"/>
<path d="M435.791 165.009C436.121 165.531 436.478 166.052 436.849 166.56C436.877 166.587 436.891 166.601 436.904 166.629C437.014 166.766 437.111 166.903 437.221 167.04C437.276 167.123 437.344 167.191 437.399 167.274C437.468 167.356 437.523 167.438 437.592 167.507C437.702 167.644 437.812 167.782 437.922 167.905C437.936 167.933 437.949 167.96 437.977 167.974C438.376 168.454 438.802 168.921 439.242 169.374" stroke="#F2F2F2" stroke-width="1.76499" stroke-miterlimit="10"/>
<path d="M439.242 169.374L435.626 176.429L439.929 179.641L445.69 174.164" stroke="#F2F2F2" stroke-width="1.76499" stroke-miterlimit="10"/>
<path d="M445.69 174.164C446.24 174.452 446.804 174.727 447.381 174.988C447.409 174.988 447.436 175.001 447.464 175.015C447.629 175.084 447.78 175.152 447.945 175.221C448.028 175.262 448.124 175.29 448.22 175.331C448.316 175.372 448.399 175.399 448.495 175.441C448.66 175.495 448.825 175.564 448.976 175.619C449.004 175.633 449.031 175.646 449.073 175.646C449.664 175.866 450.255 176.058 450.86 176.223" stroke="#F2F2F2" stroke-width="1.76499" stroke-miterlimit="10"/>
<path d="M450.86 176.223L451.272 184.143L456.607 184.774L458.848 177.156" stroke="#F2F2F2" stroke-width="1.76499" stroke-miterlimit="10"/>
<path d="M458.849 177.156C459.467 177.129 460.1 177.088 460.719 177.019C460.76 177.019 460.787 177.019 460.815 177.005C460.952 176.992 461.09 176.978 461.227 176.964C461.255 176.95 461.296 176.95 461.323 176.95C461.42 176.937 461.516 176.923 461.626 176.909C461.722 176.895 461.818 176.882 461.915 176.854C462.093 176.827 462.258 176.799 462.423 176.772C462.451 176.772 462.478 176.772 462.492 176.758C462.506 176.758 462.506 176.758 462.52 176.758C463.138 176.648 463.743 176.511 464.362 176.36" stroke="#F2F2F2" stroke-width="1.76499" stroke-miterlimit="10"/>
<path d="M464.362 176.36L468.679 183.017L473.602 180.89L471.745 173.189" stroke="#F2F2F2" stroke-width="1.76499" stroke-miterlimit="10"/>
<path d="M471.745 173.189C471.869 173.107 472.007 173.025 472.13 172.929C472.488 172.709 472.845 172.462 473.189 172.215C473.217 172.187 473.258 172.16 473.299 172.133C473.299 172.119 473.313 172.119 473.313 172.119C473.327 172.105 473.354 172.091 473.368 172.078C473.505 171.968 473.643 171.872 473.78 171.762C473.863 171.707 473.932 171.638 474.014 171.584C474.097 171.515 474.179 171.46 474.248 171.391C474.275 171.364 474.303 171.35 474.33 171.323C474.44 171.24 474.537 171.158 474.647 171.062C474.674 171.048 474.702 171.021 474.715 171.007C475.197 170.595 475.664 170.183 476.104 169.744" stroke="#F2F2F2" stroke-width="1.76499" stroke-miterlimit="10"/>
<path d="M476.104 169.744L483.185 173.341L486.402 169.044L480.916 163.307" stroke="#F2F2F2" stroke-width="1.76499" stroke-miterlimit="10"/>
<path d="M480.916 163.307C481.205 162.758 481.48 162.195 481.741 161.619C481.741 161.591 481.755 161.564 481.769 161.523C481.837 161.372 481.906 161.221 481.975 161.056C482.016 160.96 482.044 160.877 482.085 160.781C482.126 160.685 482.154 160.589 482.195 160.507C482.25 160.342 482.319 160.177 482.374 160.013C482.387 159.985 482.401 159.958 482.401 159.93C482.621 159.34 482.814 158.75 482.979 158.146" stroke="#F2F2F2" stroke-width="1.76499" stroke-miterlimit="10"/>
<path d="M482.979 158.146L490.912 157.734L491.544 152.409L483.914 150.171" stroke="#F2F2F2" stroke-width="1.76499" stroke-miterlimit="10"/>
<path d="M483.914 150.171C483.886 149.553 483.845 148.922 483.776 148.291C483.776 148.263 483.776 148.236 483.762 148.208C483.749 148.044 483.721 147.865 483.707 147.7C483.694 147.604 483.68 147.495 483.666 147.398C483.652 147.302 483.639 147.206 483.611 147.097C483.584 146.932 483.556 146.767 483.529 146.602C483.529 146.575 483.515 146.534 483.515 146.506C483.405 145.889 483.267 145.271 483.116 144.667" stroke="#F2F2F2" stroke-width="1.76499" stroke-miterlimit="10"/>
<path d="M483.116 144.667L489.785 140.357L487.653 135.429L479.94 137.296" stroke="#F2F2F2" stroke-width="1.76499" stroke-miterlimit="10"/>
<path d="M479.94 137.296C479.596 136.775 479.252 136.253 478.881 135.745C478.854 135.718 478.84 135.69 478.826 135.677C478.716 135.539 478.62 135.402 478.51 135.265C478.455 135.183 478.386 135.1 478.331 135.032C478.262 134.949 478.207 134.867 478.139 134.785C478.029 134.661 477.919 134.524 477.809 134.4C477.795 134.373 477.767 134.345 477.754 134.332C477.341 133.851 476.929 133.385 476.489 132.932" stroke="#F2F2F2" stroke-width="1.76499" stroke-miterlimit="10"/>
<path d="M476.489 132.931L480.091 125.876L475.788 122.664L470.04 128.141" stroke="#F2F2F2" stroke-width="1.76499" stroke-miterlimit="10"/>
<path d="M470.041 128.141C469.491 127.853 468.927 127.578 468.349 127.318C468.322 127.304 468.294 127.304 468.267 127.29C468.102 127.221 467.951 127.153 467.786 127.084C467.689 127.043 467.607 127.016 467.511 126.974C467.414 126.933 467.318 126.906 467.222 126.865C467.071 126.796 466.906 126.741 466.755 126.686C466.713 126.672 466.686 126.659 466.658 126.659C466.067 126.439 465.476 126.247 464.871 126.082" stroke="#F2F2F2" stroke-width="1.76499" stroke-miterlimit="10"/>
<path d="M464.871 126.082L464.458 118.162L459.123 117.531L456.882 125.149" stroke="#F2F2F2" stroke-width="1.76499" stroke-miterlimit="10"/>
<path d="M456.882 125.149C456.264 125.162 455.631 125.217 454.999 125.286C454.971 125.286 454.944 125.286 454.916 125.3C454.779 125.313 454.641 125.327 454.504 125.341C454.476 125.341 454.435 125.355 454.407 125.355C454.311 125.368 454.201 125.382 454.105 125.396C454.009 125.41 453.912 125.423 453.802 125.437C453.637 125.464 453.472 125.492 453.307 125.533C453.28 125.533 453.252 125.533 453.225 125.547C453.225 125.547 453.225 125.547 453.211 125.547C452.592 125.657 451.974 125.794 451.369 125.945" stroke="#F2F2F2" stroke-width="1.76499" stroke-miterlimit="10"/>
<path d="M451.369 125.945L447.051 119.288L442.115 121.415L443.985 129.116" stroke="#F2F2F2" stroke-width="1.76499" stroke-miterlimit="10"/>
<path d="M443.985 129.116C443.463 129.445 442.941 129.802 442.432 130.173C442.432 130.186 442.418 130.186 442.418 130.186C442.404 130.2 442.377 130.214 442.363 130.228C442.226 130.324 442.088 130.434 441.951 130.543C441.868 130.598 441.799 130.667 441.717 130.722C441.634 130.79 441.552 130.845 441.469 130.914C441.456 130.928 441.428 130.955 441.401 130.969C441.291 131.065 441.181 131.147 441.084 131.23C441.057 131.257 441.029 131.271 441.016 131.298C440.534 131.71 440.067 132.122 439.613 132.561" stroke="#F2F2F2" stroke-width="1.76499" stroke-miterlimit="10"/>
<path d="M439.613 132.561L432.546 128.965L429.329 133.247L434.814 138.998" stroke="#F2F2F2" stroke-width="1.76499" stroke-miterlimit="10"/>
<path d="M434.814 138.998C434.526 139.547 434.251 140.11 433.99 140.686C433.976 140.714 433.976 140.741 433.962 140.769C433.893 140.934 433.825 141.085 433.756 141.249C433.756 141.249 433.742 141.263 433.742 141.277C433.742 141.277 433.742 141.29 433.728 141.304C433.701 141.373 433.673 141.455 433.646 141.524C433.605 141.62 433.563 141.716 433.536 141.798C433.467 141.963 433.412 142.128 433.357 142.279C433.343 142.306 433.33 142.334 433.33 142.375C433.11 142.965 432.917 143.555 432.752 144.159" stroke="#F2F2F2" stroke-width="1.76499" stroke-miterlimit="10"/>
<path d="M432.752 144.159L424.819 144.571L424.186 149.897L431.817 152.134" stroke="#F2F2F2" stroke-width="1.76499" stroke-miterlimit="10"/>
<path d="M431.817 152.134C431.831 152.752 431.886 153.383 431.955 154.001C431.955 154.042 431.955 154.069 431.968 154.097" stroke="#F2F2F2" stroke-width="1.76499" stroke-miterlimit="10"/>
<path d="M449.059 131.806C449.196 131.751 449.334 131.682 449.471 131.627C449.595 131.573 449.719 131.518 449.843 131.463C449.87 131.463 449.911 131.449 449.939 131.435C453.074 130.186 456.47 129.692 459.825 129.994C459.852 129.994 459.893 129.994 459.921 130.008C460.072 130.022 460.223 130.035 460.375 130.049C460.512 130.076 460.636 130.09 460.773 130.104C460.815 130.104 460.842 130.118 460.883 130.118C464.211 130.598 467.401 131.861 470.15 133.81C470.192 133.824 470.219 133.851 470.247 133.865C470.37 133.947 470.48 134.043 470.604 134.126C470.714 134.208 470.824 134.29 470.934 134.373C470.962 134.4 470.989 134.414 471.017 134.441C473.657 136.528 475.788 139.204 477.204 142.265C477.218 142.293 477.231 142.334 477.245 142.361C477.3 142.498 477.369 142.636 477.424 142.773C477.479 142.896 477.534 143.02 477.575 143.144C477.589 143.171 477.603 143.212 477.616 143.24C478.868 146.369 479.363 149.759 479.06 153.109C479.06 153.136 479.046 153.177 479.046 153.205C479.033 153.356 479.019 153.507 478.991 153.658C478.978 153.795 478.964 153.932 478.95 154.056C478.95 154.097 478.936 154.124 478.936 154.152C478.455 157.487 477.176 160.671 475.238 163.43C475.224 163.458 475.196 163.485 475.183 163.513C475.1 163.623 475.018 163.732 474.935 163.842C474.853 163.952 474.757 164.075 474.66 164.199C474.647 164.226 474.619 164.254 474.605 164.281C472.515 166.917 469.82 169.044 466.768 170.458C466.727 170.472 466.699 170.485 466.672 170.499C466.548 170.554 466.411 170.609 466.287 170.664C466.149 170.719 466.012 170.774 465.888 170.829C465.847 170.842 465.819 170.856 465.792 170.87C462.657 172.119 459.261 172.613 455.906 172.311C455.865 172.311 455.837 172.297 455.796 172.297C455.659 172.284 455.521 172.27 455.384 172.256C455.232 172.229 455.095 172.215 454.944 172.201C454.916 172.201 454.889 172.187 454.847 172.187C451.506 171.707 448.33 170.431 445.567 168.495C445.539 168.482 445.512 168.454 445.484 168.44C445.374 168.358 445.264 168.276 445.154 168.193C445.03 168.097 444.92 168.015 444.797 167.932C444.769 167.905 444.742 167.878 444.714 167.864C442.074 165.777 439.943 163.087 438.527 160.04C438.513 159.999 438.499 159.971 438.486 159.944C438.431 159.82 438.376 159.697 438.321 159.573C438.266 159.436 438.211 159.299 438.142 159.162C438.128 159.12 438.128 159.093 438.114 159.066C436.863 155.936 436.368 152.546 436.671 149.197C436.671 149.155 436.671 149.128 436.685 149.087C436.698 148.95 436.712 148.812 436.726 148.689C436.74 148.538 436.753 148.387 436.781 148.25C436.781 148.208 436.795 148.167 436.795 148.14C437.276 144.804 438.541 141.634 440.493 138.875C440.507 138.847 440.534 138.82 440.548 138.792C440.631 138.669 440.727 138.559 440.823 138.436C440.906 138.326 440.974 138.216 441.057 138.106C441.084 138.079 441.098 138.051 441.126 138.024C443.215 135.388 445.897 133.261 448.963 131.847C448.99 131.833 449.031 131.82 449.059 131.806V131.806Z" stroke="#F2F2F2" stroke-width="1.76499" stroke-miterlimit="10"/>
<path d="M623.951 209.014C623.923 208.781 623.896 208.547 623.868 208.314C623.841 208.177 623.827 208.04 623.8 207.902C623.786 207.779 623.772 207.642 623.745 207.504C623.703 207.271 623.676 207.038 623.635 206.818C623.621 206.777 623.621 206.736 623.607 206.694C623.593 206.626 623.593 206.571 623.58 206.502C623.47 205.94 623.346 205.363 623.208 204.8C623.167 204.594 623.112 204.389 623.057 204.196L632.145 198.308L629.258 191.61L618.726 194.149C618.272 193.422 617.791 192.722 617.282 192.021C617.255 191.994 617.241 191.967 617.214 191.925C617.076 191.747 616.939 191.555 616.787 191.376C616.705 191.267 616.622 191.157 616.54 191.047C616.457 190.937 616.361 190.827 616.279 190.731C616.127 190.539 615.99 190.361 615.839 190.182C615.811 190.155 615.784 190.127 615.756 190.1C615.206 189.441 614.629 188.81 614.024 188.206L618.946 178.57L613.089 174.205L605.252 181.658C604.495 181.26 603.725 180.89 602.928 180.547C602.901 180.533 602.859 180.519 602.818 180.505C602.612 180.409 602.392 180.313 602.172 180.231C602.048 180.176 601.924 180.121 601.801 180.08C601.663 180.025 601.539 179.97 601.416 179.929C601.196 179.833 600.976 179.764 600.756 179.682C600.714 179.668 600.687 179.654 600.646 179.641C599.834 179.352 599.009 179.092 598.198 178.858L597.634 168.07L590.375 167.219L587.322 177.582C586.47 177.609 585.604 177.678 584.751 177.774C584.71 177.774 584.669 177.774 584.641 177.788C584.449 177.801 584.256 177.829 584.078 177.856C584.036 177.856 583.981 177.87 583.94 177.87C583.803 177.884 583.665 177.911 583.528 177.925C583.39 177.952 583.266 177.966 583.129 177.994C582.895 178.021 582.661 178.062 582.441 178.103C582.4 178.103 582.373 178.117 582.345 178.117C582.331 178.117 582.318 178.117 582.318 178.131C581.465 178.282 580.627 178.46 579.802 178.68L573.917 169.607L567.193 172.49L569.751 182.99C569.572 183.113 569.38 183.223 569.215 183.333C568.72 183.649 568.238 183.978 567.771 184.321C567.73 184.362 567.675 184.404 567.62 184.431C567.62 184.445 567.606 184.445 567.606 184.459C567.578 184.472 567.551 184.486 567.523 184.513C567.331 184.651 567.152 184.788 566.96 184.925C566.85 185.021 566.753 185.104 566.643 185.186C566.533 185.268 566.423 185.351 566.313 185.447C566.286 185.474 566.245 185.502 566.217 185.529C566.066 185.639 565.928 185.762 565.777 185.886C565.75 185.913 565.722 185.941 565.681 185.968C565.035 186.517 564.402 187.094 563.784 187.684L554.145 182.784L549.773 188.631L557.239 196.455C556.84 197.21 556.469 197.979 556.125 198.761C556.111 198.802 556.098 198.843 556.07 198.884C555.988 199.09 555.891 199.31 555.809 199.516C555.754 199.653 555.699 199.777 555.644 199.9C555.603 200.024 555.548 200.161 555.493 200.284C555.41 200.504 555.328 200.724 555.259 200.943C555.245 200.971 555.231 201.012 555.218 201.053C554.915 201.863 554.668 202.673 554.434 203.496L543.627 204.059L542.761 211.306L553.155 214.354C553.183 215.205 553.252 216.056 553.348 216.907C553.348 216.948 553.348 216.989 553.362 217.03C553.375 217.263 553.417 217.497 553.444 217.73C553.458 217.867 553.485 217.991 553.499 218.128C553.513 218.265 553.54 218.403 553.554 218.54C553.595 218.773 553.637 218.993 553.678 219.226C553.678 219.267 553.692 219.309 553.692 219.35C553.857 220.187 554.035 221.024 554.242 221.848L545.167 227.736L548.054 234.435L558.573 231.895C559.026 232.623 559.508 233.323 560.016 234.009C560.044 234.05 560.071 234.078 560.099 234.119C560.236 234.297 560.374 234.489 560.511 234.668C560.594 234.778 560.69 234.887 560.772 234.997C560.855 235.107 560.937 235.203 561.02 235.313C561.171 235.491 561.322 235.67 561.474 235.848C561.501 235.889 561.529 235.917 561.542 235.944C562.106 236.603 562.684 237.235 563.275 237.839L558.353 247.474L564.224 251.839L572.061 244.372C572.817 244.77 573.587 245.154 574.371 245.498C574.412 245.511 574.439 245.525 574.481 245.539C574.701 245.635 574.907 245.731 575.127 245.813C575.251 245.868 575.388 245.923 575.512 245.964C575.636 246.019 575.759 246.074 575.897 246.115C576.103 246.198 576.323 246.28 576.543 246.362C576.584 246.376 576.625 246.39 576.667 246.403C577.478 246.692 578.289 246.953 579.114 247.186L579.664 257.974L586.937 258.825L589.99 248.462C590.842 248.435 591.695 248.366 592.547 248.27C592.588 248.27 592.63 248.256 592.671 248.256C592.863 248.243 593.042 248.215 593.235 248.188C593.276 248.188 593.317 248.174 593.358 248.174C593.496 248.16 593.633 248.133 593.771 248.119C593.908 248.092 594.046 248.078 594.183 248.051C594.403 248.023 594.637 247.982 594.871 247.941C594.898 247.927 594.94 247.927 594.967 247.927C594.981 247.913 594.981 247.913 594.995 247.913C595.833 247.762 596.672 247.584 597.497 247.364L603.395 256.437L610.105 253.555L607.562 243.041C608.277 242.588 608.991 242.107 609.679 241.599C609.693 241.599 609.693 241.599 609.706 241.586C609.734 241.572 609.748 241.558 609.775 241.531C609.968 241.394 610.16 241.256 610.339 241.105C610.449 241.023 610.559 240.941 610.655 240.858C610.765 240.776 610.875 240.694 610.985 240.597C611.026 240.57 611.054 240.543 611.095 240.515C611.233 240.405 611.384 240.282 611.521 240.158C611.549 240.131 611.59 240.103 611.618 240.076C612.278 239.527 612.91 238.95 613.515 238.346L623.167 243.26L627.526 237.413L620.06 229.589C620.458 228.834 620.83 228.066 621.187 227.283C621.201 227.242 621.215 227.201 621.228 227.16C621.325 226.954 621.421 226.734 621.503 226.515C621.503 226.515 621.517 226.501 621.517 226.487C621.531 226.473 621.531 226.46 621.531 226.446C621.572 226.35 621.613 226.24 621.655 226.144C621.71 226.021 621.751 225.883 621.806 225.76C621.888 225.54 621.971 225.321 622.053 225.101C622.067 225.06 622.081 225.032 622.095 224.991C622.383 224.181 622.645 223.371 622.878 222.548L633.685 221.985L634.538 214.738L624.157 211.691C624.116 210.84 624.061 209.989 623.965 209.138C623.965 209.096 623.951 209.055 623.951 209.014ZM600.659 239.376C600.467 239.472 600.288 239.541 600.096 239.623C599.931 239.692 599.752 239.774 599.587 239.843C599.546 239.856 599.491 239.884 599.449 239.897C595.187 241.599 590.554 242.272 585.989 241.846C585.934 241.846 585.893 241.846 585.838 241.846C585.645 241.819 585.439 241.792 585.233 241.764C585.054 241.75 584.875 241.723 584.683 241.709C584.641 241.696 584.586 241.696 584.545 241.682C579.994 241.023 575.649 239.307 571.896 236.658C571.868 236.631 571.827 236.603 571.786 236.576C571.621 236.452 571.456 236.329 571.291 236.219C571.153 236.109 571.002 235.999 570.851 235.876C570.809 235.848 570.782 235.821 570.741 235.793C567.125 232.952 564.237 229.287 562.312 225.128C562.285 225.087 562.271 225.046 562.244 225.005C562.161 224.813 562.079 224.62 561.996 224.442C561.927 224.264 561.859 224.099 561.79 223.934C561.762 223.893 561.749 223.852 561.735 223.797C560.03 219.542 559.356 214.916 559.769 210.346C559.769 210.304 559.783 210.263 559.783 210.222C559.81 210.016 559.824 209.81 559.851 209.604C559.879 209.426 559.893 209.234 559.92 209.055C559.92 209.014 559.934 208.973 559.934 208.932C560.594 204.389 562.326 200.037 564.98 196.29C565.007 196.249 565.035 196.222 565.062 196.18C565.159 196.029 565.282 195.878 565.392 195.741C565.516 195.576 565.626 195.412 565.75 195.247C565.791 195.206 565.818 195.178 565.846 195.137C568.692 191.527 572.349 188.645 576.529 186.723C576.57 186.696 576.612 186.682 576.653 186.655C576.832 186.586 576.997 186.504 577.175 186.435C577.354 186.353 577.547 186.27 577.725 186.202C577.767 186.174 577.808 186.161 577.849 186.147C582.125 184.445 586.745 183.772 591.324 184.184C591.365 184.198 591.42 184.198 591.461 184.198C591.654 184.225 591.846 184.239 592.039 184.266C592.231 184.294 592.423 184.308 592.63 184.335C592.671 184.349 592.712 184.349 592.767 184.362C597.305 185.021 601.649 186.737 605.403 189.386C605.444 189.414 605.485 189.441 605.527 189.468C605.678 189.578 605.829 189.688 605.98 189.812C606.132 189.921 606.297 190.045 606.462 190.168C606.489 190.196 606.53 190.223 606.572 190.251C610.174 193.092 613.075 196.757 615 200.916C615.014 200.957 615.041 200.998 615.055 201.039C615.137 201.204 615.206 201.383 615.275 201.547C615.357 201.739 615.44 201.918 615.522 202.11C615.536 202.151 615.55 202.192 615.577 202.247C617.282 206.502 617.956 211.114 617.53 215.685C617.53 215.726 617.53 215.781 617.516 215.836C617.502 216.014 617.475 216.193 617.461 216.385C617.434 216.577 617.406 216.783 617.379 216.975C617.379 217.03 617.365 217.085 617.365 217.126C616.705 221.669 614.972 225.993 612.333 229.74C612.305 229.781 612.278 229.823 612.25 229.864C612.126 230.028 612.003 230.193 611.879 230.358C611.769 230.495 611.659 230.646 611.549 230.797C611.521 230.825 611.494 230.866 611.466 230.907C608.62 234.503 604.949 237.399 600.783 239.321C600.742 239.348 600.701 239.362 600.659 239.376Z" fill="#F2F2F2"/>
<path d="M395.436 80.6084C395.381 80.3613 395.313 80.1143 395.258 79.8672C395.217 79.7299 395.175 79.5789 395.134 79.428C395.107 79.2907 395.065 79.1397 395.024 79.0025C394.955 78.7554 394.887 78.5083 394.818 78.2613C394.804 78.2201 394.79 78.1789 394.777 78.1377C394.749 78.0691 394.735 78.0005 394.722 77.9456C394.46 77.1083 394.172 76.2848 393.869 75.4887" stroke="#F2F2F2" stroke-width="3.48988" stroke-miterlimit="10" stroke-linecap="round" stroke-linejoin="round"/>
<path d="M393.869 75.4885L403.012 67.9667L399.025 61.0351L387.902 65.098" stroke="#F2F2F2" stroke-width="3.48988" stroke-miterlimit="10" stroke-linecap="round" stroke-linejoin="round"/>
<path d="M387.902 65.0981C387.324 64.3707 386.706 63.6707 386.073 62.9707C386.046 62.9432 386.004 62.9157 385.977 62.8746C385.798 62.6961 385.633 62.504 385.454 62.3255C385.344 62.2157 385.234 62.1059 385.138 62.0098C385.028 61.9 384.918 61.7902 384.822 61.6942C384.63 61.502 384.451 61.3373 384.258 61.1588C384.231 61.1314 384.203 61.0902 384.162 61.0627C383.488 60.4176 382.773 59.8137 382.045 59.2235" stroke="#F2F2F2" stroke-width="3.48988" stroke-miterlimit="10" stroke-linecap="round" stroke-linejoin="round"/>
<path d="M382.045 59.2234L386.197 48.1466L379.281 44.1249L371.691 53.1977" stroke="#F2F2F2" stroke-width="3.48988" stroke-miterlimit="10" stroke-linecap="round" stroke-linejoin="round"/>
<path d="M371.691 53.1978C371.182 53.0056 370.66 52.8134 370.137 52.635C369.78 52.5114 369.409 52.3879 369.038 52.2781C368.996 52.2644 368.941 52.2506 368.9 52.2369C368.653 52.1683 368.419 52.0996 368.171 52.0173C368.02 51.9761 367.883 51.9487 367.731 51.9075C367.594 51.8663 367.443 51.8251 367.305 51.784C367.058 51.7291 366.81 51.6604 366.563 51.6055C366.508 51.5918 366.466 51.5781 366.425 51.5781C365.518 51.3585 364.596 51.18 363.675 51.029" stroke="#F2F2F2" stroke-width="3.48988" stroke-miterlimit="10" stroke-linecap="round" stroke-linejoin="round"/>
<path d="M363.675 51.0288L361.709 39.3619L353.707 39.3345L351.686 50.9876" stroke="#F2F2F2" stroke-width="3.48988" stroke-miterlimit="10" stroke-linecap="round" stroke-linejoin="round"/>
<path d="M351.686 50.9879C350.765 51.1389 349.843 51.3036 348.922 51.5232C348.881 51.5232 348.84 51.5369 348.798 51.5507C348.592 51.5918 348.386 51.6468 348.193 51.6879C348.138 51.7017 348.097 51.7154 348.042 51.7291C347.905 51.7703 347.753 51.7977 347.616 51.8389C347.465 51.8801 347.327 51.9213 347.176 51.9625C346.928 52.0311 346.681 52.0997 346.447 52.1684C346.406 52.1821 346.378 52.1958 346.337 52.1958C346.323 52.1958 346.323 52.2095 346.31 52.2095C345.416 52.4841 344.522 52.786 343.656 53.1155" stroke="#F2F2F2" stroke-width="3.48988" stroke-miterlimit="10" stroke-linecap="round" stroke-linejoin="round"/>
<path d="M343.656 53.1154L336.122 43.9877L329.178 47.9545L333.248 59.0725" stroke="#F2F2F2" stroke-width="3.48988" stroke-miterlimit="10" stroke-linecap="round" stroke-linejoin="round"/>
<path d="M333.248 59.0725C332.519 59.649 331.818 60.2529 331.131 60.8981C331.117 60.8981 331.117 60.9118 331.103 60.9118C331.076 60.9392 331.048 60.9667 331.021 60.9941C330.842 61.1589 330.649 61.3373 330.471 61.5157C330.361 61.6255 330.264 61.7216 330.154 61.8314C330.044 61.9412 329.935 62.0373 329.838 62.1471C329.797 62.1883 329.756 62.2158 329.728 62.2569C329.577 62.4079 329.44 62.5451 329.302 62.6961C329.275 62.7373 329.247 62.7648 329.206 62.7922C328.56 63.4785 327.955 64.1923 327.363 64.906" stroke="#F2F2F2" stroke-width="3.48988" stroke-miterlimit="10" stroke-linecap="round" stroke-linejoin="round"/>
<path d="M327.363 64.906L316.268 60.7607L312.239 67.6786L321.341 75.2554" stroke="#F2F2F2" stroke-width="3.48988" stroke-miterlimit="10" stroke-linecap="round" stroke-linejoin="round"/>
<path d="M321.341 75.2552C320.997 76.1199 320.681 77.0121 320.406 77.9043C320.392 77.9454 320.379 77.9866 320.365 78.0278C320.296 78.2749 320.227 78.5219 320.159 78.769C320.117 78.9063 320.076 79.0572 320.035 79.1945C320.007 79.318 319.966 79.4278 319.939 79.5513C319.939 79.5651 319.939 79.5788 319.925 79.5925C319.925 79.6062 319.925 79.62 319.911 79.6337C319.856 79.8808 319.787 80.1278 319.732 80.3749C319.719 80.4161 319.719 80.4572 319.705 80.4984C319.485 81.4181 319.306 82.3377 319.155 83.2573" stroke="#F2F2F2" stroke-width="3.48988" stroke-miterlimit="10" stroke-linecap="round" stroke-linejoin="round"/>
<path d="M319.155 83.2573L307.468 85.2064L307.454 93.1949L319.127 95.2263" stroke="#F2F2F2" stroke-width="3.48988" stroke-miterlimit="10" stroke-linecap="round" stroke-linejoin="round"/>
<path d="M319.127 95.2265C319.265 96.1461 319.444 97.0658 319.65 97.9854C319.65 98.0266 319.664 98.0678 319.677 98.1089C319.732 98.356 319.787 98.603 319.856 98.8501C319.897 99.0011 319.938 99.1521 319.966 99.2893C320.007 99.4403 320.049 99.5776 320.09 99.7286C320.159 99.9757 320.227 100.209 320.296 100.456C320.31 100.497 320.323 100.538 320.337 100.58C320.612 101.486 320.915 102.364 321.245 103.242" stroke="#F2F2F2" stroke-width="3.48988" stroke-miterlimit="10" stroke-linecap="round" stroke-linejoin="round"/>
<path d="M321.245 103.242L312.102 110.764L316.089 117.696L327.212 113.619" stroke="#F2F2F2" stroke-width="3.48988" stroke-miterlimit="10" stroke-linecap="round" stroke-linejoin="round"/>
<path d="M327.212 113.619C327.789 114.347 328.408 115.06 329.041 115.747C329.068 115.774 329.096 115.815 329.137 115.843C329.302 116.035 329.481 116.213 329.659 116.405C329.769 116.502 329.866 116.611 329.976 116.721C330.086 116.817 330.182 116.927 330.292 117.037C330.471 117.215 330.663 117.394 330.842 117.558C330.883 117.6 330.911 117.627 330.952 117.655C331.626 118.3 332.341 118.917 333.055 119.508" stroke="#F2F2F2" stroke-width="3.48988" stroke-miterlimit="10" stroke-linecap="round" stroke-linejoin="round"/>
<path d="M333.055 119.507L328.917 130.584L335.833 134.606L343.422 125.519" stroke="#F2F2F2" stroke-width="3.48988" stroke-miterlimit="10" stroke-linecap="round" stroke-linejoin="round"/>
<path d="M343.422 125.52C344.289 125.863 345.182 126.165 346.076 126.453C346.117 126.453 346.158 126.467 346.2 126.48C346.447 126.563 346.695 126.631 346.942 126.7C347.08 126.741 347.231 126.782 347.368 126.824C347.52 126.865 347.657 126.892 347.808 126.933C348.056 127.002 348.303 127.057 348.551 127.125C348.592 127.125 348.633 127.139 348.688 127.153C349.596 127.373 350.517 127.551 351.438 127.688" stroke="#F2F2F2" stroke-width="3.48988" stroke-miterlimit="10" stroke-linecap="round" stroke-linejoin="round"/>
<path d="M351.439 127.688L353.391 139.355L361.393 139.383L363.428 127.729" stroke="#F2F2F2" stroke-width="3.48988" stroke-miterlimit="10" stroke-linecap="round" stroke-linejoin="round"/>
<path d="M363.428 127.729C364.349 127.592 365.27 127.414 366.191 127.208C366.233 127.194 366.274 127.18 366.315 127.18C366.521 127.125 366.714 127.084 366.92 127.029C366.961 127.029 367.016 127.016 367.058 127.002C367.209 126.961 367.36 126.919 367.498 126.878C367.649 126.851 367.786 126.81 367.938 126.768C368.185 126.7 368.419 126.631 368.666 126.549C368.708 126.549 368.735 126.535 368.776 126.521C368.776 126.521 368.79 126.521 368.804 126.521C369.698 126.247 370.591 125.945 371.457 125.615" stroke="#F2F2F2" stroke-width="3.48988" stroke-miterlimit="10" stroke-linecap="round" stroke-linejoin="round"/>
<path d="M371.457 125.615L378.992 134.743L385.936 130.763L381.852 119.658" stroke="#F2F2F2" stroke-width="3.48988" stroke-miterlimit="10" stroke-linecap="round" stroke-linejoin="round"/>
<path d="M381.852 119.659C382.581 119.082 383.296 118.465 383.983 117.833C383.997 117.819 383.997 117.819 384.011 117.806C384.024 117.792 384.052 117.764 384.079 117.737C384.272 117.559 384.451 117.394 384.643 117.202C384.753 117.106 384.849 116.996 384.959 116.9C385.069 116.79 385.166 116.68 385.276 116.57C385.317 116.543 385.344 116.502 385.386 116.474C385.523 116.323 385.661 116.172 385.812 116.035C385.839 115.994 385.867 115.966 385.908 115.925C386.54 115.239 387.159 114.539 387.75 113.811" stroke="#F2F2F2" stroke-width="3.48988" stroke-miterlimit="10" stroke-linecap="round" stroke-linejoin="round"/>
<path d="M387.751 113.811L398.846 117.957L402.875 111.052L393.773 103.476" stroke="#F2F2F2" stroke-width="3.48988" stroke-miterlimit="10" stroke-linecap="round" stroke-linejoin="round"/>
<path d="M393.773 103.476C394.116 102.597 394.419 101.719 394.708 100.826C394.721 100.785 394.721 100.744 394.735 100.689C394.818 100.456 394.886 100.209 394.955 99.9618C394.996 99.8108 395.038 99.6735 395.079 99.5225C395.12 99.3853 395.161 99.2343 395.189 99.097C395.258 98.8499 395.313 98.6029 395.381 98.3558C395.381 98.3146 395.395 98.2597 395.409 98.2185C395.423 98.1499 395.436 98.0813 395.464 98.0126C395.656 97.1754 395.821 96.3244 395.945 95.4733" stroke="#F2F2F2" stroke-width="3.48988" stroke-miterlimit="10" stroke-linecap="round" stroke-linejoin="round"/>
<path d="M395.945 95.4736L407.632 93.5108L407.66 85.5224L395.986 83.5046" stroke="#F2F2F2" stroke-width="3.48988" stroke-miterlimit="10" stroke-linecap="round" stroke-linejoin="round"/>
<path d="M395.987 83.5044C395.849 82.5848 395.671 81.6651 395.464 80.7455C395.451 80.7043 395.451 80.6631 395.437 80.6082" stroke="#F2F2F2" stroke-width="3.48988" stroke-miterlimit="10" stroke-linecap="round" stroke-linejoin="round"/>
<path d="M356.87 57.6861C356.911 57.6861 356.966 57.6724 357.021 57.6724C357.227 57.6724 357.433 57.6724 357.639 57.6724C357.859 57.6724 358.079 57.6724 358.299 57.6861C358.341 57.6861 358.396 57.6861 358.451 57.6861C363.098 57.8234 367.677 58.9901 371.843 61.0627" stroke="#F2F2F2" stroke-width="3.48988" stroke-miterlimit="10" stroke-linecap="round" stroke-linejoin="round"/>
<path d="M371.843 61.0628L363.098 76.0652" stroke="#F2F2F2" stroke-width="3.48988" stroke-miterlimit="10" stroke-linecap="round" stroke-linejoin="round"/>
<path d="M363.098 76.0652C361.407 75.3514 359.551 74.9671 357.598 74.9533C355.646 74.9533 353.79 75.3377 352.098 76.024" stroke="#F2F2F2" stroke-width="3.48988" stroke-miterlimit="10" stroke-linecap="round" stroke-linejoin="round"/>
<path d="M352.098 76.0239L343.45 60.9803" stroke="#F2F2F2" stroke-width="3.48988" stroke-miterlimit="10" stroke-linecap="round" stroke-linejoin="round"/>
<path d="M343.45 60.9802C347.63 58.9213 352.208 57.7958 356.869 57.686" stroke="#F2F2F2" stroke-width="3.48988" stroke-miterlimit="10" stroke-linecap="round" stroke-linejoin="round"/>
<path d="M357.529 99.7558C351.782 99.7284 347.135 95.0616 347.149 89.3242C347.162 83.6005 351.851 78.9611 357.584 78.9749C363.332 78.9886 367.979 83.6691 367.965 89.3928C367.938 95.1165 363.263 99.7696 357.529 99.7558V99.7558Z" stroke="#F2F2F2" stroke-width="3.48988" stroke-miterlimit="10" stroke-linecap="round" stroke-linejoin="round"/>
<path d="M350.407 76.8474C350.393 76.8612 350.366 76.8749 350.352 76.8887C350.366 76.8749 350.393 76.8612 350.407 76.8474Z" stroke="#F2F2F2" stroke-width="3.48988" stroke-miterlimit="10" stroke-linecap="round" stroke-linejoin="round"/>
<path d="M329.728 74.116C329.756 74.0748 329.769 74.0336 329.797 73.9787C329.893 73.814 330.003 73.6355 330.099 73.4571C330.223 73.2649 330.333 73.0728 330.443 72.8806C330.471 72.8395 330.498 72.7983 330.526 72.7571C332.973 68.8041 336.259 65.4138 340.15 62.8745" stroke="#F2F2F2" stroke-width="3.48988" stroke-miterlimit="10" stroke-linecap="round" stroke-linejoin="round"/>
<path d="M340.15 62.8744L348.785 77.918" stroke="#F2F2F2" stroke-width="3.48988" stroke-miterlimit="10" stroke-linecap="round" stroke-linejoin="round"/>
<path d="M348.785 77.918C345.842 80.1827 343.78 83.5593 343.257 87.4163" stroke="#F2F2F2" stroke-width="3.48988" stroke-miterlimit="10" stroke-linecap="round" stroke-linejoin="round"/>
<path d="M343.258 87.4163L325.878 87.3614" stroke="#F2F2F2" stroke-width="3.48988" stroke-miterlimit="10" stroke-linecap="round" stroke-linejoin="round"/>
<path d="M325.878 87.3616C326.181 82.7222 327.487 78.1926 329.728 74.116" stroke="#F2F2F2" stroke-width="3.48988" stroke-miterlimit="10" stroke-linecap="round" stroke-linejoin="round"/>
<path d="M343.161 88.2956C343.161 88.3229 343.161 88.3638 343.161 88.4048C343.161 88.3638 343.161 88.3229 343.161 88.2956Z" stroke="#F2F2F2" stroke-width="3.48988" stroke-miterlimit="10" stroke-linecap="round" stroke-linejoin="round"/>
<path d="M339.985 115.747C336.108 113.166 332.836 109.776 330.416 105.809C330.388 105.754 330.361 105.713 330.333 105.672C330.223 105.48 330.113 105.287 330.003 105.095C329.907 104.917 329.797 104.738 329.701 104.56C329.673 104.519 329.659 104.478 329.632 104.423C327.418 100.332 326.14 95.8029 325.865 91.1635" stroke="#F2F2F2" stroke-width="3.48988" stroke-miterlimit="10" stroke-linecap="round" stroke-linejoin="round"/>
<path d="M325.865 91.1636L343.244 91.2185" stroke="#F2F2F2" stroke-width="3.48988" stroke-miterlimit="10" stroke-linecap="round" stroke-linejoin="round"/>
<path d="M343.244 91.2184C343.752 95.0891 345.773 98.4657 348.716 100.744" stroke="#F2F2F2" stroke-width="3.48988" stroke-miterlimit="10" stroke-linecap="round" stroke-linejoin="round"/>
<path d="M348.716 100.744L339.985 115.747" stroke="#F2F2F2" stroke-width="3.48988" stroke-miterlimit="10" stroke-linecap="round" stroke-linejoin="round"/>
<path d="M343.148 90.2309C343.161 90.2718 343.161 90.3128 343.161 90.3401C343.161 90.3128 343.161 90.2718 343.148 90.2309Z" stroke="#F2F2F2" stroke-width="3.48988" stroke-miterlimit="10" stroke-linecap="round" stroke-linejoin="round"/>
<path d="M350.325 101.829C350.311 101.815 350.284 101.801 350.27 101.801C350.284 101.801 350.311 101.815 350.325 101.829Z" stroke="#F2F2F2" stroke-width="3.48988" stroke-miterlimit="10" stroke-linecap="round" stroke-linejoin="round"/>
<path d="M371.65 117.751C367.484 119.81 362.905 120.935 358.244 121.045C358.203 121.045 358.148 121.045 358.093 121.045C357.873 121.045 357.653 121.045 357.419 121.045C357.227 121.045 357.021 121.045 356.814 121.045C356.773 121.045 356.718 121.045 356.663 121.045C352.016 120.908 347.437 119.741 343.271 117.655" stroke="#F2F2F2" stroke-width="3.48988" stroke-miterlimit="10" stroke-linecap="round" stroke-linejoin="round"/>
<path d="M343.271 117.655L352.016 102.666" stroke="#F2F2F2" stroke-width="3.48988" stroke-miterlimit="10" stroke-linecap="round" stroke-linejoin="round"/>
<path d="M352.016 102.666C353.707 103.366 355.563 103.764 357.516 103.764C359.454 103.778 361.324 103.393 363.015 102.693" stroke="#F2F2F2" stroke-width="3.48988" stroke-miterlimit="10" stroke-linecap="round" stroke-linejoin="round"/>
<path d="M363.015 102.693L371.65 117.75" stroke="#F2F2F2" stroke-width="3.48988" stroke-miterlimit="10" stroke-linecap="round" stroke-linejoin="round"/>
<path d="M364.706 101.87C364.72 101.87 364.748 101.856 364.761 101.842C364.748 101.856 364.72 101.87 364.706 101.87Z" stroke="#F2F2F2" stroke-width="3.48988" stroke-miterlimit="10" stroke-linecap="round" stroke-linejoin="round"/>
<path d="M385.385 104.601C385.358 104.642 385.33 104.697 385.317 104.738C385.207 104.931 385.083 105.123 384.973 105.329C384.877 105.493 384.78 105.672 384.67 105.837C384.643 105.878 384.615 105.933 384.588 105.974C382.141 109.927 378.841 113.303 374.963 115.856" stroke="#F2F2F2" stroke-width="3.48988" stroke-miterlimit="10" stroke-linecap="round" stroke-linejoin="round"/>
<path d="M374.964 115.856L366.315 100.799" stroke="#F2F2F2" stroke-width="3.48988" stroke-miterlimit="10" stroke-linecap="round" stroke-linejoin="round"/>
<path d="M366.315 100.799C369.271 98.548 371.334 95.1715 371.856 91.3146" stroke="#F2F2F2" stroke-width="3.48988" stroke-miterlimit="10" stroke-linecap="round" stroke-linejoin="round"/>
<path d="M371.856 91.3145L389.235 91.3694" stroke="#F2F2F2" stroke-width="3.48988" stroke-miterlimit="10" stroke-linecap="round" stroke-linejoin="round"/>
<path d="M389.235 91.3696C388.933 95.9952 387.613 100.525 385.386 104.601" stroke="#F2F2F2" stroke-width="3.48988" stroke-miterlimit="10" stroke-linecap="round" stroke-linejoin="round"/>
<path d="M364.776 76.8891C364.803 76.9026 364.817 76.9161 364.844 76.9297C364.817 76.9161 364.803 76.9026 364.776 76.8891Z" stroke="#F2F2F2" stroke-width="3.48988" stroke-miterlimit="10" stroke-linecap="round" stroke-linejoin="round"/>
<path d="M371.952 90.3268C371.952 90.3678 371.952 90.3951 371.939 90.436C371.952 90.3951 371.952 90.3678 371.952 90.3268Z" stroke="#F2F2F2" stroke-width="3.48988" stroke-miterlimit="10" stroke-linecap="round" stroke-linejoin="round"/>
<path d="M385.413 74.1572C385.441 74.2121 385.454 74.2533 385.482 74.2945C387.695 78.3848 388.974 82.9281 389.249 87.5537" stroke="#F2F2F2" stroke-width="3.48988" stroke-miterlimit="10" stroke-linecap="round" stroke-linejoin="round"/>
<path d="M389.249 87.5537L371.87 87.4989" stroke="#F2F2F2" stroke-width="3.48988" stroke-miterlimit="10" stroke-linecap="round" stroke-linejoin="round"/>
<path d="M371.87 87.4987V87.5125C371.361 83.6418 369.34 80.2515 366.398 77.973" stroke="#F2F2F2" stroke-width="3.48988" stroke-miterlimit="10" stroke-linecap="round" stroke-linejoin="round"/>
<path d="M366.398 77.9729L375.128 62.9842" stroke="#F2F2F2" stroke-width="3.48988" stroke-miterlimit="10" stroke-linecap="round" stroke-linejoin="round"/>
<path d="M375.128 62.9844C379.006 65.5511 382.278 68.9551 384.698 72.9219C384.725 72.9631 384.753 73.018 384.78 73.0592C384.877 73.2239 384.973 73.4023 385.083 73.5808C385.193 73.7729 385.303 73.9651 385.413 74.1572" stroke="#F2F2F2" stroke-width="3.48988" stroke-miterlimit="10" stroke-linecap="round" stroke-linejoin="round"/>
<path d="M371.952 88.4871C371.952 88.4598 371.952 88.4188 371.952 88.3779C371.952 88.4188 371.952 88.4598 371.952 88.4871Z" stroke="#F2F2F2" stroke-width="3.48988" stroke-miterlimit="10" stroke-linecap="round" stroke-linejoin="round"/>
<path d="M327.817 -15.6103L314.755 -0.690258L323.225 9.68652L340.494 -0.0725752" stroke="#F2F2F2" stroke-width="3.48988" stroke-miterlimit="10" stroke-linecap="round" stroke-linejoin="round"/>
<path d="M340.494 -0.0726174C341.662 0.970559 342.872 1.98626 344.11 2.94708C344.165 2.98826 344.22 3.02943 344.289 3.07061C344.619 3.3314 344.962 3.59221 345.32 3.853C345.512 4.00399 345.719 4.14126 345.911 4.29224C346.117 4.44323 346.324 4.59422 346.53 4.73148C346.887 4.97855 347.231 5.22562 347.588 5.45896C347.643 5.50014 347.712 5.54131 347.781 5.58249C349.087 6.46096 350.421 7.28451 351.782 8.06689" stroke="#F2F2F2" stroke-width="3.48988" stroke-miterlimit="10" stroke-linecap="round" stroke-linejoin="round"/>
<path d="M351.782 8.06697L347.946 27.5028L360.472 32.252L370.55 15.1907" stroke="#F2F2F2" stroke-width="3.48988" stroke-miterlimit="10" stroke-linecap="round" stroke-linejoin="round"/>
<path d="M370.55 15.1907C372.076 15.5064 373.63 15.7809 375.184 16.0005C375.252 16.0005 375.335 16.0142 375.404 16.028C375.83 16.0829 376.256 16.1378 376.682 16.179C376.93 16.2064 377.177 16.2339 377.425 16.2613C377.672 16.2888 377.934 16.3162 378.181 16.3299C378.607 16.3711 379.034 16.3986 379.446 16.4398C379.528 16.4398 379.611 16.4534 379.68 16.4534C381.261 16.5633 382.828 16.6044 384.382 16.5907" stroke="#F2F2F2" stroke-width="3.48988" stroke-miterlimit="10" stroke-linecap="round" stroke-linejoin="round"/>
<path d="M384.382 16.5908L390.803 35.3403L404.03 33.2128L404.209 13.4063" stroke="#F2F2F2" stroke-width="3.48988" stroke-miterlimit="10" stroke-linecap="round" stroke-linejoin="round"/>
<path d="M404.208 13.4062C405.693 12.9121 407.165 12.3768 408.636 11.7866C408.704 11.7591 408.773 11.7317 408.842 11.7042C409.158 11.567 409.474 11.4434 409.791 11.3062C409.859 11.265 409.942 11.2376 410.011 11.1964C410.244 11.1003 410.478 10.9905 410.712 10.8944C410.932 10.7846 411.166 10.6885 411.399 10.5787C411.784 10.4003 412.169 10.2218 412.554 10.0297C412.609 10.0022 412.664 9.98851 412.719 9.96105C412.733 9.94733 412.747 9.9473 412.761 9.93357C414.163 9.24727 415.552 8.50608 416.899 7.70997" stroke="#F2F2F2" stroke-width="3.48988" stroke-miterlimit="10" stroke-linecap="round" stroke-linejoin="round"/>
<path d="M416.899 7.71016L431.845 20.7498L442.239 12.2946L432.463 -4.94512" stroke="#F2F2F2" stroke-width="3.48988" stroke-miterlimit="10" stroke-linecap="round" stroke-linejoin="round"/>
<path d="M362.19 -0.03125C355.096 -3.24311 348.757 -7.96484 343.67 -13.867C343.615 -13.9356 343.56 -14.0042 343.505 -14.0591C343.258 -14.3474 343.038 -14.6356 342.804 -14.9239C342.584 -15.1846 342.364 -15.4455 342.158 -15.72C342.103 -15.7886 342.048 -15.8572 341.993 -15.9259C337.235 -22.0888 333.881 -29.24 332.162 -36.8167" stroke="#F2F2F2" stroke-width="3.48988" stroke-miterlimit="10" stroke-linecap="round" stroke-linejoin="round"/>
<path d="M372.544 -27.1948L362.19 -0.03125" stroke="#F2F2F2" stroke-width="3.48988" stroke-miterlimit="10" stroke-linecap="round" stroke-linejoin="round"/>
<path d="M415.084 -5.32965C408.76 -0.800071 401.486 2.31573 393.828 3.75696C393.745 3.77068 393.663 3.78441 393.566 3.79813C393.209 3.86676 392.838 3.92169 392.467 3.99032C392.137 4.04522 391.793 4.1001 391.463 4.14128C391.38 4.15501 391.298 4.16873 391.202 4.18246C383.474 5.21191 375.596 4.53936 368.158 2.23339" stroke="#F2F2F2" stroke-width="3.48988" stroke-miterlimit="10" stroke-linecap="round" stroke-linejoin="round"/>
<path d="M368.158 2.2334L378.497 -24.9164" stroke="#F2F2F2" stroke-width="3.48988" stroke-miterlimit="10" stroke-linecap="round" stroke-linejoin="round"/>
<path d="M643.31 140.014L640.01 143.308" stroke="#F2F2F2" stroke-width="2.60738" stroke-miterlimit="10"/>
<path d="M666.313 77.2593L612.195 131.284" stroke="#F2F2F2" stroke-width="2.60738" stroke-miterlimit="10"/>
<path d="M594.981 108.678L557.17 146.424M666.313 37.4541L662.092 41.668L666.313 37.4541Z" stroke="#F2F2F2" stroke-width="2.60738" stroke-miterlimit="10"/>
<path d="M557.445 106.344L542.995 120.77M666.313 -2.33729L659.754 4.20999L666.313 -2.33729Z" stroke="#F2F2F2" stroke-width="2.60738" stroke-miterlimit="10"/>
<path d="M639.213 124.216L620.197 143.185M666.313 97.1481L660.95 102.501L666.313 97.1481Z" stroke="#F2F2F2" stroke-width="2.60738" stroke-miterlimit="10"/>
<path d="M583.17 140.357L567.028 156.485M666.313 57.3567L647.586 76.0513L666.313 57.3567ZM629.437 94.1695L596.425 127.125L629.437 94.1695Z" stroke="#F2F2F2" stroke-width="2.60738" stroke-miterlimit="10"/>
<path d="M574.164 109.556L555.891 127.784M666.313 17.5652L662.958 20.9143L666.313 17.5652Z" stroke="#F2F2F2" stroke-width="2.60738" stroke-miterlimit="10"/>
<path d="M543.27 100.593L508.649 135.169M666.313 -22.2399L653.993 -9.94146L666.313 -22.2399Z" stroke="#F2F2F2" stroke-width="2.60738" stroke-miterlimit="10"/>
<path d="M531.088 92.8518L497.058 126.837M659.383 -35.2108L646.225 -22.0751L659.383 -35.2108Z" stroke="#F2F2F2" stroke-width="2.60738" stroke-miterlimit="10"/>
<path d="M520.707 83.3261L507.631 96.3794M641.564 -37.3108L636.697 -32.4656L641.564 -37.3108Z" stroke="#F2F2F2" stroke-width="2.60738" stroke-miterlimit="10"/>
<path d="M512.031 72.0984L498.722 85.385" stroke="#F2F2F2" stroke-width="2.60738" stroke-miterlimit="10"/>
<path d="M505.198 59.0175L476.104 88.0615" stroke="#F2F2F2" stroke-width="2.60738" stroke-miterlimit="10"/>
<path d="M500.605 43.6995L463.083 81.1711" stroke="#F2F2F2" stroke-width="2.60738" stroke-miterlimit="10"/>
<path d="M499.093 25.3069L481.686 42.6838" stroke="#F2F2F2" stroke-width="2.60738" stroke-miterlimit="10"/>
<path d="M503.671 0.847065L473.258 31.2087" stroke="#F2F2F2" stroke-width="2.60738" stroke-miterlimit="10"/>
<path d="M481.975 2.6178L457.638 26.8989M521.972 -37.3108L484.532 0.0510675L521.972 -37.3108Z" stroke="#F2F2F2" stroke-width="2.60738" stroke-miterlimit="10"/>
<path d="M641.261 132.108L624.198 149.142" stroke="#F2F2F2" stroke-width="2.60738" stroke-miterlimit="10"/>
<path d="M579.362 154.124L576.075 157.405M666.313 67.308L608.18 125.341L666.313 67.308Z" stroke="#F2F2F2" stroke-width="2.60738" stroke-miterlimit="10"/>
<path d="M583.885 109.803L556.538 137.104M666.313 27.5167L663.219 30.605L666.313 27.5167Z" stroke="#F2F2F2" stroke-width="2.60738" stroke-miterlimit="10"/>
<path d="M550.089 103.75L536.147 117.668M666.313 -12.2884L657.156 -3.14699L666.313 -12.2884Z" stroke="#F2F2F2" stroke-width="2.60738" stroke-miterlimit="10"/>
<path d="M525.684 88.3086L506.435 107.525M651.518 -37.3108L641.674 -27.4831L651.518 -37.3108Z" stroke="#F2F2F2" stroke-width="2.60738" stroke-miterlimit="10"/>
<path d="M508.36 65.7982L489.551 84.5752" stroke="#F2F2F2" stroke-width="2.60738" stroke-miterlimit="10"/>
<path d="M471.072 63.2453L459.99 74.3083M499.382 34.9836L483.295 51.0292L499.382 34.9836Z" stroke="#F2F2F2" stroke-width="2.60738" stroke-miterlimit="10"/>
<path d="M637.164 116.309L616.196 137.241M666.313 87.2106L654.268 99.2345L666.313 87.2106Z" stroke="#F2F2F2" stroke-width="2.60738" stroke-miterlimit="10"/>
<path d="M608.428 105.205L557.968 155.565M666.313 47.4054L658.585 55.1331L666.313 47.4054Z" stroke="#F2F2F2" stroke-width="2.60738" stroke-miterlimit="10"/>
<path d="M565.42 108.335L550.282 123.447M666.313 7.61392L661.734 12.1847L666.313 7.61392Z" stroke="#F2F2F2" stroke-width="2.60738" stroke-miterlimit="10"/>
<path d="M536.945 96.9559L502.846 130.996M663.659 -29.5283L650.336 -16.2279L663.659 -29.5283Z" stroke="#F2F2F2" stroke-width="2.60738" stroke-miterlimit="10"/>
<path d="M516.156 77.9318L502.998 91.0537M631.595 -37.3109L631.293 -37.0227L631.595 -37.3109Z" stroke="#F2F2F2" stroke-width="2.60738" stroke-miterlimit="10"/>
<path d="M502.599 51.6605L466.177 88.0342" stroke="#F2F2F2" stroke-width="2.60738" stroke-miterlimit="10"/>
<path d="M500.206 14.2573L480.765 33.6658" stroke="#F2F2F2" stroke-width="2.60738" stroke-miterlimit="10"/>
<path d="M514.41 -19.824L465.448 29.054" stroke="#F2F2F2" stroke-width="2.60738" stroke-miterlimit="10"/>
<path d="M471.278 3.3315L451.396 23.1929M512.004 -37.3109L490.775 -16.1181L512.004 -37.3109Z" stroke="#F2F2F2" stroke-width="2.60738" stroke-miterlimit="10"/>
<path d="M460.581 4.05908L452.524 12.1162M502.035 -37.3107L486.911 -22.2122L502.035 -37.3107Z" stroke="#F2F2F2" stroke-width="2.60738" stroke-miterlimit="10"/>
<path d="M481.438 40.8581C481.521 41.5032 481.603 42.1621 481.713 42.8072C481.768 43.1915 481.823 43.5758 481.892 43.9602C481.961 44.3445 482.016 44.7288 482.085 45.0994C482.195 45.7583 482.318 46.4034 482.442 47.0485C482.47 47.1583 482.483 47.2681 482.511 47.3916C482.538 47.5564 482.566 47.7348 482.607 47.9132C482.937 49.5329 483.308 51.1251 483.707 52.7173C483.858 53.2938 484.01 53.8703 484.175 54.4468" stroke="#F2F2F2" stroke-width="6.97975" stroke-miterlimit="10"/>
<path d="M484.175 54.4468L458.738 71.5081L467.222 90.3538L496.893 82.6809" stroke="#F2F2F2" stroke-width="6.97975" stroke-miterlimit="10"/>
<path d="M496.893 82.6809C498.213 84.6986 499.601 86.6889 501.073 88.6105C501.141 88.7066 501.21 88.8027 501.293 88.8987C501.691 89.4203 502.09 89.9419 502.503 90.4498C502.75 90.7517 502.984 91.0537 503.231 91.3557C503.479 91.6577 503.726 91.9596 503.974 92.2479C504.4 92.7557 504.826 93.2636 505.266 93.7577C505.335 93.8401 505.417 93.9362 505.486 94.0185C507.095 95.844 508.759 97.6147 510.477 99.303" stroke="#F2F2F2" stroke-width="6.97975" stroke-miterlimit="10"/>
<path d="M510.477 99.3031L496.975 126.782L513.777 138.861L535.625 117.408" stroke="#F2F2F2" stroke-width="6.97975" stroke-miterlimit="10"/>
<path d="M535.625 117.408C537.77 118.492 539.97 119.521 542.225 120.455C542.321 120.496 542.431 120.551 542.541 120.592C543.146 120.839 543.764 121.086 544.383 121.333C544.741 121.47 545.098 121.608 545.456 121.745C545.827 121.882 546.184 122.019 546.556 122.157C547.174 122.39 547.793 122.596 548.412 122.816C548.522 122.857 548.632 122.898 548.742 122.925C551.052 123.721 553.375 124.408 555.713 125.025" stroke="#F2F2F2" stroke-width="6.97975" stroke-miterlimit="10"/>
<path d="M555.713 125.025L557.789 155.552L578.385 157.638L586.553 128.141" stroke="#F2F2F2" stroke-width="6.97975" stroke-miterlimit="10"/>
<path d="M586.552 128.141C588.972 128.018 591.378 127.798 593.798 127.496C593.908 127.482 594.018 127.469 594.142 127.441C594.665 127.372 595.187 127.318 595.723 127.235C595.847 127.221 595.971 127.194 596.108 127.18C596.493 127.112 596.878 127.057 597.263 126.988C597.634 126.933 598.019 126.865 598.404 126.796C599.051 126.686 599.697 126.563 600.343 126.439C600.439 126.425 600.536 126.412 600.618 126.398C600.646 126.384 600.673 126.384 600.687 126.37C603.079 125.904 605.43 125.355 607.768 124.71" stroke="#F2F2F2" stroke-width="6.97975" stroke-miterlimit="10"/>
<path d="M607.768 124.71L624.858 150.116L643.736 141.634L636.05 112.013" stroke="#F2F2F2" stroke-width="6.97975" stroke-miterlimit="10"/>
<path d="M636.05 112.013C636.545 111.698 637.054 111.368 637.549 111.025C638.91 110.106 640.244 109.158 641.564 108.17C641.701 108.06 641.853 107.951 641.99 107.841C642.004 107.827 642.031 107.813 642.045 107.8C642.114 107.745 642.196 107.69 642.265 107.635C642.788 107.223 643.31 106.825 643.833 106.413C644.135 106.18 644.424 105.933 644.726 105.686C645.029 105.439 645.331 105.192 645.634 104.945C645.73 104.862 645.826 104.78 645.936 104.698C646.335 104.354 646.734 104.011 647.132 103.654C647.229 103.586 647.311 103.517 647.394 103.435C649.236 101.829 650.996 100.182 652.701 98.466" stroke="#F2F2F2" stroke-width="6.97975" stroke-miterlimit="10"/>
<path d="M491.49 -17.5728C490.403 -15.4178 489.372 -13.2217 488.437 -10.9844C488.396 -10.8746 488.355 -10.7648 488.3 -10.6687C488.052 -10.051 487.805 -9.44708 487.557 -8.82942C487.543 -8.78824 487.53 -8.76081 487.516 -8.71963C487.502 -8.67845 487.488 -8.65098 487.475 -8.6098C487.365 -8.32156 487.255 -8.0333 487.145 -7.74506C487.007 -7.38819 486.87 -7.01762 486.732 -6.66074C486.512 -6.04308 486.292 -5.41167 486.072 -4.794C486.031 -4.68419 485.99 -4.5744 485.962 -4.46459C485.179 -2.17237 484.477 0.147309 483.872 2.48071" stroke="#F2F2F2" stroke-width="6.97975" stroke-miterlimit="10"/>
<path d="M483.872 2.48057L453.294 4.5532L451.204 25.1146L480.738 33.2815" stroke="#F2F2F2" stroke-width="6.97975" stroke-miterlimit="10"/>
<path d="M480.737 33.2816C480.861 35.6836 481.081 38.0993 481.384 40.5013C481.397 40.6248 481.425 40.7346 481.439 40.8582" stroke="#F2F2F2" stroke-width="6.97975" stroke-miterlimit="10"/>
<path d="M630.908 -37.3108C641.22 -29.4459 649.552 -19.2475 655.189 -7.5805C655.244 -7.45696 655.299 -7.34718 655.354 -7.22365C655.602 -6.68834 655.836 -6.16675 656.069 -5.63144C656.289 -5.16476 656.509 -4.68436 656.716 -4.21767C656.757 -4.09414 656.812 -3.97058 656.867 -3.84705C661.885 8.13566 664.003 21.1753 663.027 34.1325C663.027 34.256 663.013 34.3796 662.999 34.5031C662.958 35.0796 662.889 35.6698 662.834 36.2463C662.779 36.7679 662.724 37.2894 662.669 37.811C662.655 37.9346 662.642 38.0581 662.614 38.1817C660.964 51.0703 656.262 63.4236 648.933 74.171C648.865 74.2671 648.796 74.3768 648.713 74.4866C648.411 74.9121 648.109 75.3377 647.792 75.7632C647.462 76.2299 647.132 76.6965 646.775 77.1632C646.706 77.273 646.624 77.3691 646.541 77.4789C638.663 87.8008 628.406 96.1599 616.677 101.787C616.567 101.856 616.444 101.911 616.334 101.966C615.839 102.186 615.344 102.405 614.863 102.625C614.34 102.858 613.831 103.091 613.309 103.311C613.185 103.366 613.075 103.421 612.951 103.462C600.948 108.472 587.886 110.586 574.907 109.625C574.783 109.611 574.646 109.598 574.522 109.598C573.972 109.543 573.436 109.488 572.899 109.433C572.336 109.378 571.786 109.323 571.236 109.254C571.098 109.241 570.975 109.227 570.837 109.213C557.94 107.552 545.566 102.872 534.814 95.5559C534.704 95.4736 534.594 95.4049 534.484 95.3363C534.044 95.0206 533.618 94.7049 533.178 94.3892C532.724 94.0598 532.256 93.7441 531.803 93.4009C531.706 93.3186 531.596 93.2362 531.486 93.1676C521.147 85.2889 512.773 75.0494 507.136 63.355C507.081 63.2314 507.012 63.1216 506.957 62.9981C506.738 62.5314 506.531 62.051 506.311 61.5706C506.078 61.049 505.83 60.5137 505.61 59.9921C505.555 59.8686 505.5 59.745 505.459 59.6215C500.44 47.6525 498.323 34.6129 499.285 21.6694C499.299 21.5321 499.313 21.3812 499.327 21.2439C499.368 20.7223 499.423 20.2007 499.478 19.6791C499.533 19.1164 499.588 18.5536 499.657 17.9909C499.67 17.8536 499.684 17.7163 499.698 17.5791C501.361 4.70417 506.064 -7.63542 513.378 -18.3691C513.447 -18.4789 513.53 -18.5887 513.598 -18.6985C513.928 -19.1789 514.286 -19.6456 514.616 -20.1122C514.918 -20.5378 515.221 -20.9495 515.537 -21.3751C515.62 -21.4711 515.688 -21.5809 515.771 -21.6907C520.281 -27.5929 525.56 -32.8499 531.445 -37.3108" stroke="#F2F2F2" stroke-width="6.97975" stroke-miterlimit="10"/>
<path d="M643.062 0.10605C634.497 -18.9043 618.217 -32.0537 599.573 -37.3108M562.711 -37.3108C559.549 -36.4186 556.414 -35.2931 553.334 -33.9068C519.139 -18.5612 503.891 21.5459 519.263 55.6685" stroke="#F2F2F2" stroke-width="6.97975" stroke-miterlimit="10"/>
<path d="M610.036 -4.49211C618.973 -8.50007 629.478 -4.51958 633.493 4.40225C637.508 13.3241 633.52 23.8107 624.583 27.8186C615.646 31.8403 605.142 27.8598 601.127 18.938C597.112 10.0024 601.099 -0.470419 610.036 -4.49211Z" stroke="#F2F2F2" stroke-width="6.97975" stroke-miterlimit="10"/>
<path d="M557.638 -24.3535C566.575 -28.3614 577.079 -24.381 581.094 -15.4591C585.109 -6.53731 581.122 3.94926 572.185 7.95722C563.248 11.9789 552.743 7.9847 548.728 -0.937126C544.713 -9.85895 548.701 -20.3455 557.638 -24.3535Z" stroke="#F2F2F2" stroke-width="6.97975" stroke-miterlimit="10"/>
<path d="M585.439 25.9656C586.511 28.3265 585.453 31.1128 583.088 32.1697C580.723 33.2266 577.945 32.1834 576.873 29.8088C575.814 27.448 576.873 24.6754 579.238 23.6185C581.603 22.5478 584.38 23.6048 585.439 25.9656V25.9656Z" stroke="#F2F2F2" stroke-width="6.97975" stroke-miterlimit="10"/>
<path d="M590.141 47.8172C599.078 43.8092 609.583 47.7897 613.598 56.7116C617.612 65.6334 613.625 76.12 604.688 80.1279C595.751 84.1496 585.246 80.1691 581.232 71.2473C577.217 62.3255 581.204 51.8389 590.141 47.8172V47.8172Z" stroke="#F2F2F2" stroke-width="6.97975" stroke-miterlimit="10"/>
<path d="M537.742 27.9559C546.679 23.9479 557.17 27.9284 561.199 36.8503C565.214 45.7721 561.226 56.2587 552.289 60.2666C543.352 64.2883 532.848 60.3078 528.833 51.386C524.804 42.4504 528.791 31.9776 537.742 27.9559Z" stroke="#F2F2F2" stroke-width="6.97975" stroke-miterlimit="10"/>
<path d="M248.854 139.671L247.342 141.181M270.372 118.176L263.057 125.478L270.372 118.176Z" stroke="#F2F2F2" stroke-width="1.76499" stroke-miterlimit="10"/>
<path d="M261.738 108.568L234.583 135.663M279.818 90.5046L270.785 99.5363L279.818 90.5046Z" stroke="#F2F2F2" stroke-width="1.76499" stroke-miterlimit="10"/>
<path d="M226.704 125.3L209.38 142.608M266.385 85.7005L257.461 94.6086L266.385 85.7005Z" stroke="#F2F2F2" stroke-width="1.76499" stroke-miterlimit="10"/>
<path d="M209.504 124.243L202.876 130.859M273.081 60.7745L256.389 77.4377L273.081 60.7745Z" stroke="#F2F2F2" stroke-width="1.76499" stroke-miterlimit="10"/>
<path d="M246.971 132.423L238.253 141.126M265.848 113.578L256.939 122.486L265.848 113.578Z" stroke="#F2F2F2" stroke-width="1.76499" stroke-miterlimit="10"/>
<path d="M221.287 139.822L213.89 147.22M273.438 87.7732L250.807 110.366L273.438 87.7732ZM242.488 118.656L227.364 133.755L242.488 118.656Z" stroke="#F2F2F2" stroke-width="1.76499" stroke-miterlimit="10"/>
<path d="M217.162 125.711L208.789 134.071M275.913 67.0607L270.991 71.9746L275.913 67.0607ZM265.216 77.7395L257.846 85.0965L265.216 77.7395Z" stroke="#F2F2F2" stroke-width="1.76499" stroke-miterlimit="10"/>
<path d="M203.014 121.608L187.147 137.447M262.425 62.298L253.749 70.9591L262.425 62.298Z" stroke="#F2F2F2" stroke-width="1.76499" stroke-miterlimit="10"/>
<path d="M197.432 118.066L181.84 133.631M256.21 59.3742L250.188 65.3999L256.21 59.3742Z" stroke="#F2F2F2" stroke-width="1.76499" stroke-miterlimit="10"/>
<path d="M192.674 113.701L186.68 119.672M254.56 51.9074L245.816 60.637L254.56 51.9074Z" stroke="#F2F2F2" stroke-width="1.76499" stroke-miterlimit="10"/>
<path d="M188.687 108.54L182.596 114.635M256.279 41.0639L240.66 56.6703L256.279 41.0639Z" stroke="#F2F2F2" stroke-width="1.76499" stroke-miterlimit="10"/>
<path d="M185.566 102.556L172.229 115.856M241.031 47.1721L234.651 53.5546L241.031 47.1721Z" stroke="#F2F2F2" stroke-width="1.76499" stroke-miterlimit="10"/>
<path d="M183.462 95.5283L166.262 112.699M234.555 44.5229L227.625 51.4408L234.555 44.5229Z" stroke="#F2F2F2" stroke-width="1.76499" stroke-miterlimit="10"/>
<path d="M182.775 87.1142L174.786 95.0752M231.654 38.3049L219.183 50.7543L231.654 38.3049Z" stroke="#F2F2F2" stroke-width="1.76499" stroke-miterlimit="10"/>
<path d="M184.865 75.9003L170.923 89.8184M231.049 29.795L207.964 52.8408L231.049 29.795Z" stroke="#F2F2F2" stroke-width="1.76499" stroke-miterlimit="10"/>
<path d="M174.924 76.7101L163.773 87.8418M222.758 28.9577L221.177 30.5361L222.758 28.9577ZM208.005 43.6718L176.093 75.5297L208.005 43.6718Z" stroke="#F2F2F2" stroke-width="1.76499" stroke-miterlimit="10"/>
<path d="M247.906 136.047L240.096 143.857M268.117 115.884L259.991 123.982L268.117 115.884Z" stroke="#F2F2F2" stroke-width="1.76499" stroke-miterlimit="10"/>
<path d="M219.541 146.136L218.042 147.632M277.013 88.7615L265.876 99.8657L277.013 88.7615ZM264.625 101.128L232.754 132.945L264.625 101.128Z" stroke="#F2F2F2" stroke-width="1.76499" stroke-miterlimit="10"/>
<path d="M221.617 125.821L209.091 138.339M265.958 81.5553L257.97 89.5301L265.958 81.5553Z" stroke="#F2F2F2" stroke-width="1.76499" stroke-miterlimit="10"/>
<path d="M206.135 123.049L199.742 129.431M268.585 60.7056L255.193 74.0746L268.585 60.7056Z" stroke="#F2F2F2" stroke-width="1.76499" stroke-miterlimit="10"/>
<path d="M194.957 115.98L186.13 124.778M254.093 56.931L248.098 62.9154L254.093 56.931Z" stroke="#F2F2F2" stroke-width="1.76499" stroke-miterlimit="10"/>
<path d="M187.01 105.658L178.403 114.264M253.625 39.1561L237.772 54.9958L253.625 39.1561Z" stroke="#F2F2F2" stroke-width="1.76499" stroke-miterlimit="10"/>
<path d="M169.933 104.491L164.846 109.556M231.943 42.5738L223.624 50.878L231.943 42.5738ZM182.899 91.5341L175.529 98.8911L182.899 91.5341Z" stroke="#F2F2F2" stroke-width="1.76499" stroke-miterlimit="10"/>
<path d="M246.036 128.814L236.425 138.394M279.31 95.5832L275.68 99.2068L279.31 95.5832ZM263.58 111.286L253.873 120.976L263.58 111.286Z" stroke="#F2F2F2" stroke-width="1.76499" stroke-miterlimit="10"/>
<path d="M232.864 123.721L209.751 146.794M269.863 86.7849L255.853 100.772L269.863 86.7849Z" stroke="#F2F2F2" stroke-width="1.76499" stroke-miterlimit="10"/>
<path d="M213.161 125.149L206.218 132.08M274.497 63.9175L257.283 81.1023L274.497 63.9175Z" stroke="#F2F2F2" stroke-width="1.76499" stroke-miterlimit="10"/>
<path d="M200.113 119.947L184.493 135.539M258.176 61.9823L252.072 68.0766L258.176 61.9823Z" stroke="#F2F2F2" stroke-width="1.76499" stroke-miterlimit="10"/>
<path d="M190.585 111.217L184.549 117.243M258.933 42.9856L243.341 58.5507L258.933 42.9856Z" stroke="#F2F2F2" stroke-width="1.76499" stroke-miterlimit="10"/>
<path d="M184.37 99.1932L167.678 115.843M237.896 45.7447L231.283 52.3605L237.896 45.7447Z" stroke="#F2F2F2" stroke-width="1.76499" stroke-miterlimit="10"/>
<path d="M183.27 82.0494L174.36 90.9438M231.365 34.0362L214.11 51.2623L231.365 34.0362Z" stroke="#F2F2F2" stroke-width="1.76499" stroke-miterlimit="10"/>
<path d="M189.787 66.4294L167.348 88.8301M226.897 29.3695L219.431 36.8364L226.897 29.3695ZM213.436 42.8072L198.463 57.7684L213.436 42.8072Z" stroke="#F2F2F2" stroke-width="1.76499" stroke-miterlimit="10"/>
<path d="M170.016 77.0396L160.913 86.1399M206.176 40.9543L178.953 68.1178L206.176 40.9543Z" stroke="#F2F2F2" stroke-width="1.76499" stroke-miterlimit="10"/>
<path d="M165.121 77.369L161.422 81.0613M204.334 38.2227L194.723 47.8171L204.334 38.2227ZM186.914 55.6272L177.179 65.3314L186.914 55.6272Z" stroke="#F2F2F2" stroke-width="1.76499" stroke-miterlimit="10"/>
<path d="M183.848 54.1172L174.924 63.0391M202.505 35.4912L193.788 44.2071L202.505 35.4912Z" stroke="#F2F2F2" stroke-width="1.76499" stroke-miterlimit="10"/>
<path d="M180.781 52.6211L172.655 60.7332M200.676 32.7735L192.839 40.5835L200.676 32.7735Z" stroke="#F2F2F2" stroke-width="1.76499" stroke-miterlimit="10"/>
<path d="M177.715 51.125L170.387 58.4409M193.5 35.354L191.905 36.9599L193.5 35.354Z" stroke="#F2F2F2" stroke-width="1.76499" stroke-miterlimit="10"/>
<path d="M174.677 94.2245C174.718 94.5265 174.759 94.8284 174.8 95.1304C174.828 95.3089 174.855 95.4736 174.883 95.652C174.91 95.8304 174.938 96.0089 174.965 96.1736C175.02 96.4756 175.075 96.7775 175.13 97.0658C175.144 97.1207 175.158 97.1756 175.172 97.2305C175.185 97.2991 175.199 97.3815 175.213 97.4638C175.364 98.205 175.529 98.9325 175.722 99.66C175.79 99.9345 175.859 100.195 175.928 100.456" stroke="#F2F2F2" stroke-width="3.48988" stroke-miterlimit="10" stroke-linecap="round" stroke-linejoin="round"/>
<path d="M175.928 100.456L164.269 108.28L168.16 116.913L181.758 113.399" stroke="#F2F2F2" stroke-width="3.48988" stroke-miterlimit="10" stroke-linecap="round" stroke-linejoin="round"/>
<path d="M181.758 113.399C182.363 114.319 182.995 115.225 183.669 116.117C183.71 116.158 183.738 116.2 183.765 116.241C183.958 116.488 184.136 116.721 184.329 116.954C184.439 117.092 184.549 117.229 184.659 117.366C184.783 117.504 184.893 117.641 185.003 117.778C185.195 118.011 185.401 118.245 185.594 118.478C185.621 118.506 185.663 118.547 185.69 118.588C186.432 119.425 187.189 120.235 187.986 121.017" stroke="#F2F2F2" stroke-width="3.48988" stroke-miterlimit="10" stroke-linecap="round" stroke-linejoin="round"/>
<path d="M187.986 121.017L181.799 133.604L189.499 139.135L199.508 129.308" stroke="#F2F2F2" stroke-width="3.48988" stroke-miterlimit="10" stroke-linecap="round" stroke-linejoin="round"/>
<path d="M199.508 129.308C200.484 129.802 201.502 130.282 202.533 130.708C202.574 130.722 202.629 130.749 202.671 130.763C202.959 130.886 203.234 130.996 203.509 131.106C203.674 131.175 203.853 131.229 204.018 131.298C204.183 131.367 204.348 131.422 204.513 131.49C204.802 131.586 205.077 131.696 205.365 131.792C205.42 131.806 205.462 131.82 205.517 131.833C206.575 132.204 207.634 132.52 208.706 132.794" stroke="#F2F2F2" stroke-width="3.48988" stroke-miterlimit="10" stroke-linecap="round" stroke-linejoin="round"/>
<path d="M208.706 132.794L209.655 146.781L219.101 147.742L222.841 134.235" stroke="#F2F2F2" stroke-width="3.48988" stroke-miterlimit="10" stroke-linecap="round" stroke-linejoin="round"/>
<path d="M222.841 134.235C223.954 134.167 225.054 134.071 226.154 133.933C226.209 133.92 226.264 133.92 226.319 133.906C226.553 133.878 226.801 133.851 227.048 133.81C227.103 133.81 227.158 133.796 227.213 133.782C227.392 133.755 227.57 133.727 227.749 133.7C227.914 133.673 228.093 133.645 228.272 133.618C228.574 133.563 228.863 133.508 229.165 133.453C229.207 133.439 229.248 133.439 229.289 133.425C229.303 133.425 229.303 133.425 229.317 133.425C230.417 133.206 231.489 132.945 232.561 132.657" stroke="#F2F2F2" stroke-width="3.48988" stroke-miterlimit="10" stroke-linecap="round" stroke-linejoin="round"/>
<path d="M232.562 132.657L240.385 144.296L249.047 140.412L245.513 126.837" stroke="#F2F2F2" stroke-width="3.48988" stroke-miterlimit="10" stroke-linecap="round" stroke-linejoin="round"/>
<path d="M245.513 126.837C245.747 126.686 245.981 126.535 246.215 126.384C246.833 125.959 247.438 125.533 248.043 125.08C248.112 125.025 248.181 124.97 248.25 124.929C248.25 124.916 248.263 124.916 248.263 124.902C248.305 124.888 248.332 124.861 248.373 124.833C248.607 124.641 248.855 124.463 249.088 124.27C249.226 124.161 249.363 124.051 249.501 123.941C249.638 123.831 249.776 123.708 249.913 123.598C249.955 123.557 250.01 123.529 250.051 123.488C250.23 123.323 250.422 123.172 250.601 123.008C250.642 122.98 250.683 122.939 250.724 122.912C251.563 122.17 252.374 121.415 253.144 120.633" stroke="#F2F2F2" stroke-width="3.48988" stroke-miterlimit="10" stroke-linecap="round" stroke-linejoin="round"/>
<path d="M253.145 120.633L265.753 126.796L271.307 119.123L261.463 109.117" stroke="#F2F2F2" stroke-width="3.48988" stroke-miterlimit="10" stroke-linecap="round" stroke-linejoin="round"/>
<path d="M261.463 109.117C261.958 108.142 262.425 107.127 262.852 106.111C262.879 106.056 262.893 106.001 262.92 105.96C263.03 105.672 263.154 105.397 263.264 105.123C263.319 104.958 263.388 104.78 263.457 104.615C263.512 104.45 263.58 104.285 263.635 104.121C263.745 103.833 263.842 103.558 263.938 103.27C263.965 103.215 263.979 103.174 263.993 103.119C264.35 102.062 264.666 101.005 264.955 99.9343" stroke="#F2F2F2" stroke-width="3.48988" stroke-miterlimit="10" stroke-linecap="round" stroke-linejoin="round"/>
<path d="M264.955 99.9343L278.966 98.9872L279.914 89.5576L266.385 85.8242" stroke="#F2F2F2" stroke-width="3.48988" stroke-miterlimit="10" stroke-linecap="round" stroke-linejoin="round"/>
<path d="M266.385 85.8242C266.33 84.7261 266.234 83.6143 266.083 82.5163C266.083 82.4614 266.069 82.4065 266.069 82.3516C266.027 82.0496 265.986 81.7613 265.945 81.4594C265.918 81.2809 265.89 81.1025 265.863 80.924C265.821 80.7593 265.794 80.5809 265.766 80.4025C265.711 80.1143 265.656 79.8122 265.601 79.5103C265.588 79.4691 265.588 79.4142 265.574 79.3593C265.354 78.2612 265.106 77.1906 264.804 76.12" stroke="#F2F2F2" stroke-width="3.48988" stroke-miterlimit="10" stroke-linecap="round" stroke-linejoin="round"/>
<path d="M264.804 76.1199L276.463 68.3099L272.572 59.6626L258.988 63.1901" stroke="#F2F2F2" stroke-width="3.48988" stroke-miterlimit="10" stroke-linecap="round" stroke-linejoin="round"/>
<path d="M258.988 63.1902C258.383 62.2568 257.737 61.3509 257.063 60.4724C257.035 60.4175 257.008 60.3764 256.967 60.3352C256.788 60.1018 256.595 59.8685 256.417 59.6214C256.307 59.4842 256.183 59.3469 256.073 59.2097C255.963 59.0724 255.853 58.9351 255.743 58.7979C255.537 58.5645 255.344 58.3449 255.152 58.1116C255.11 58.0704 255.083 58.0292 255.042 57.9881C254.313 57.1508 253.543 56.3409 252.759 55.5723" stroke="#F2F2F2" stroke-width="3.48988" stroke-miterlimit="10" stroke-linecap="round" stroke-linejoin="round"/>
<path d="M252.759 55.5723L258.947 42.9856L251.247 37.4404L241.237 47.2819" stroke="#F2F2F2" stroke-width="3.48988" stroke-miterlimit="10" stroke-linecap="round" stroke-linejoin="round"/>
<path d="M241.238 47.282C240.248 46.7741 239.244 46.3074 238.213 45.8819C238.171 45.8544 238.116 45.8407 238.075 45.8133C237.787 45.7035 237.511 45.5937 237.223 45.4701C237.058 45.4152 236.893 45.3466 236.728 45.2917C236.563 45.2231 236.398 45.1544 236.233 45.0995C235.944 44.9897 235.655 44.8936 235.38 44.7976C235.325 44.7838 235.27 44.7564 235.215 44.7426C234.17 44.3858 233.098 44.0701 232.039 43.7818" stroke="#F2F2F2" stroke-width="3.48988" stroke-miterlimit="10" stroke-linecap="round" stroke-linejoin="round"/>
<path d="M232.039 43.7817L231.077 29.795L221.645 28.8479L217.891 42.3543" stroke="#F2F2F2" stroke-width="3.48988" stroke-miterlimit="10" stroke-linecap="round" stroke-linejoin="round"/>
<path d="M217.891 42.3542C216.791 42.4091 215.691 42.5189 214.578 42.6562C214.523 42.6562 214.481 42.6699 214.426 42.6699C214.179 42.711 213.945 42.7385 213.698 42.766C213.643 42.7797 213.588 42.7934 213.519 42.7934C213.34 42.8208 213.175 42.862 212.996 42.8895C212.818 42.9169 212.639 42.9444 212.474 42.9718C212.171 43.0267 211.869 43.0816 211.58 43.1365C211.539 43.1365 211.498 43.1503 211.456 43.164C211.443 43.164 211.429 43.164 211.415 43.164C210.329 43.3836 209.243 43.6307 208.184 43.9326" stroke="#F2F2F2" stroke-width="3.48988" stroke-miterlimit="10" stroke-linecap="round" stroke-linejoin="round"/>
<path d="M208.184 43.9327L200.347 32.2932L191.699 36.1776L195.219 49.7388" stroke="#F2F2F2" stroke-width="3.48988" stroke-miterlimit="10" stroke-linecap="round" stroke-linejoin="round"/>
<path d="M195.218 49.7388C194.297 50.3427 193.39 50.9879 192.496 51.6604C192.482 51.6604 192.482 51.6741 192.469 51.6741C192.441 51.7016 192.414 51.729 192.372 51.7565C192.139 51.9349 191.891 52.1271 191.657 52.3192C191.52 52.4153 191.382 52.5389 191.245 52.6487C191.107 52.7585 190.97 52.8683 190.832 52.9918C190.777 53.0193 190.736 53.0604 190.695 53.1016C190.502 53.2526 190.324 53.4173 190.145 53.5683C190.104 53.6095 190.062 53.6369 190.021 53.6781C189.182 54.4056 188.371 55.1742 187.588 55.9565" stroke="#F2F2F2" stroke-width="3.48988" stroke-miterlimit="10" stroke-linecap="round" stroke-linejoin="round"/>
<path d="M187.588 55.9564L174.979 49.7798L169.438 57.4663L179.283 67.4587" stroke="#F2F2F2" stroke-width="3.48988" stroke-miterlimit="10" stroke-linecap="round" stroke-linejoin="round"/>
<path d="M179.283 67.4589C178.788 68.4472 178.32 69.4492 177.88 70.4786C177.867 70.5335 177.839 70.5747 177.825 70.6296C177.702 70.9041 177.592 71.1786 177.482 71.4669C177.468 71.4806 177.468 71.4943 177.454 71.5218C177.454 71.5355 177.454 71.5492 177.441 71.563C177.386 71.7002 177.344 71.8237 177.289 71.961C177.234 72.1257 177.166 72.2904 177.097 72.4551C177.001 72.7434 176.904 73.0316 176.794 73.3199C176.781 73.3611 176.767 73.4159 176.753 73.4708C176.382 74.514 176.066 75.5847 175.791 76.6553" stroke="#F2F2F2" stroke-width="3.48988" stroke-miterlimit="10" stroke-linecap="round" stroke-linejoin="round"/>
<path d="M175.79 76.6551L161.78 77.6022L160.817 87.0182L174.361 90.7654" stroke="#F2F2F2" stroke-width="3.48988" stroke-miterlimit="10" stroke-linecap="round" stroke-linejoin="round"/>
<path d="M174.361 90.7654C174.416 91.8635 174.512 92.9616 174.649 94.0734C174.663 94.1283 174.663 94.1832 174.677 94.2244" stroke="#F2F2F2" stroke-width="3.48988" stroke-miterlimit="10" stroke-linecap="round" stroke-linejoin="round"/>
<path d="M204.252 54.3508C204.499 54.241 204.733 54.1312 204.967 54.0351C205.187 53.9253 205.407 53.8292 205.627 53.7331C205.696 53.7056 205.751 53.6919 205.806 53.6645C211.305 51.3723 217.286 50.3977 223.226 50.837C223.295 50.8507 223.35 50.8507 223.419 50.8507C223.68 50.8781 223.941 50.9056 224.202 50.933C224.436 50.9605 224.683 50.9742 224.917 51.0017C224.972 51.0154 225.041 51.0291 225.096 51.0291C231.008 51.784 236.673 53.939 241.609 57.2881C241.65 57.3156 241.705 57.3567 241.76 57.3842C241.966 57.5352 242.186 57.6999 242.393 57.8509C242.585 57.9881 242.791 58.1254 242.984 58.2764C243.025 58.3038 243.08 58.345 243.135 58.3862C247.865 61.9961 251.701 66.6766 254.286 72.0434C254.313 72.0983 254.341 72.1533 254.368 72.2082C254.478 72.4415 254.588 72.6886 254.698 72.9357C254.795 73.1415 254.891 73.3612 254.987 73.5808C255.015 73.6357 255.028 73.6906 255.056 73.7455C257.352 79.2358 258.328 85.2203 257.888 91.1499C257.874 91.2048 257.874 91.2597 257.874 91.3284C257.847 91.5891 257.819 91.8499 257.792 92.1107C257.764 92.3578 257.751 92.5911 257.723 92.8382C257.709 92.8931 257.709 92.948 257.696 93.0029C256.939 98.905 254.781 104.574 251.426 109.501C251.398 109.543 251.357 109.598 251.33 109.639C251.192 109.845 251.041 110.037 250.903 110.229C250.752 110.449 250.601 110.654 250.436 110.874C250.409 110.915 250.367 110.97 250.326 111.011C246.71 115.747 242.021 119.576 236.645 122.157C236.59 122.184 236.535 122.212 236.48 122.225C236.26 122.335 236.04 122.431 235.807 122.541C235.573 122.637 235.339 122.747 235.105 122.857C235.05 122.87 234.995 122.898 234.94 122.925C229.441 125.218 223.446 126.178 217.506 125.739C217.451 125.739 217.382 125.739 217.327 125.725C217.08 125.712 216.833 125.684 216.585 125.657C216.324 125.629 216.076 125.602 215.815 125.574C215.76 125.574 215.705 125.561 215.636 125.547C209.724 124.792 204.059 122.651 199.137 119.302C199.082 119.261 199.027 119.233 198.986 119.192C198.78 119.055 198.587 118.904 198.381 118.766C198.175 118.615 197.968 118.464 197.762 118.313C197.707 118.272 197.666 118.231 197.611 118.204C192.867 114.594 189.031 109.899 186.446 104.546C186.419 104.491 186.391 104.437 186.378 104.382C186.268 104.162 186.171 103.942 186.075 103.723C185.965 103.489 185.855 103.242 185.745 102.995C185.731 102.94 185.704 102.886 185.676 102.831C183.38 97.3403 182.418 91.3695 182.858 85.4399C182.858 85.3713 182.872 85.3164 182.872 85.2478C182.885 85.0007 182.913 84.7674 182.94 84.534C182.968 84.2732 182.995 84.0124 183.023 83.7516C183.037 83.6967 183.037 83.6281 183.05 83.5595C183.807 77.6711 185.951 72.016 189.306 67.1022C189.348 67.0472 189.375 66.9923 189.416 66.9374C189.568 66.7315 189.719 66.5119 189.884 66.2923C190.021 66.1001 190.159 65.908 190.296 65.7158C190.338 65.6746 190.379 65.6197 190.406 65.5786C194.022 60.8431 198.725 57.0136 204.087 54.4331C204.142 54.4057 204.197 54.3782 204.252 54.3508V54.3508Z" stroke="#F2F2F2" stroke-width="3.48988" stroke-miterlimit="10" stroke-linecap="round" stroke-linejoin="round"/>
<path d="M666.313 373.395L647.888 391.774" stroke="#F2F2F2" stroke-width="2.60738" stroke-miterlimit="10"/>
<path d="M666.313 353.493L647.888 371.886" stroke="#F2F2F2" stroke-width="2.60738" stroke-miterlimit="10"/>
<path d="M666.313 333.59L647.888 351.983" stroke="#F2F2F2" stroke-width="2.60738" stroke-miterlimit="10"/>
<path d="M666.313 313.702L647.888 332.081" stroke="#F2F2F2" stroke-width="2.60738" stroke-miterlimit="10"/>
<path d="M666.313 293.799L647.888 312.192" stroke="#F2F2F2" stroke-width="2.60738" stroke-miterlimit="10"/>
<path d="M666.313 273.896L647.888 292.289" stroke="#F2F2F2" stroke-width="2.60738" stroke-miterlimit="10"/>
<path d="M666.313 254.008L647.888 272.387" stroke="#F2F2F2" stroke-width="2.60738" stroke-miterlimit="10"/>
<path d="M666.313 234.105L647.888 252.498" stroke="#F2F2F2" stroke-width="2.60738" stroke-miterlimit="10"/>
<path d="M653.526 226.981L647.889 232.595" stroke="#F2F2F2" stroke-width="2.60738" stroke-miterlimit="10"/>
<path d="M666.313 343.542L647.888 361.934" stroke="#F2F2F2" stroke-width="2.60738" stroke-miterlimit="10"/>
<path d="M666.313 303.75L647.888 322.143" stroke="#F2F2F2" stroke-width="2.60738" stroke-miterlimit="10"/>
<path d="M666.313 263.945L647.888 282.338" stroke="#F2F2F2" stroke-width="2.60738" stroke-miterlimit="10"/>
<path d="M666.313 363.444L647.888 381.837" stroke="#F2F2F2" stroke-width="2.60738" stroke-miterlimit="10"/>
<path d="M666.313 323.639L647.888 342.032" stroke="#F2F2F2" stroke-width="2.60738" stroke-miterlimit="10"/>
<path d="M666.313 283.848L647.888 302.24" stroke="#F2F2F2" stroke-width="2.60738" stroke-miterlimit="10"/>
<path d="M666.313 244.056L647.888 262.449" stroke="#F2F2F2" stroke-width="2.60738" stroke-miterlimit="10"/>
<path d="M663.48 226.981L647.888 242.547" stroke="#F2F2F2" stroke-width="2.60738" stroke-miterlimit="10"/>
<path d="M666.313 464.083H647.888V226.981H666.313" stroke="#F2F2F2" stroke-width="2.60738" stroke-miterlimit="10"/>
<path d="M422.371 70.9454C422.33 71.1925 422.303 71.4258 422.275 71.6591C422.261 71.7689 422.248 71.8925 422.234 72.016C422.22 72.2493 422.206 72.4827 422.193 72.716C422.193 72.7435 422.193 72.7709 422.193 72.7847C422.193 72.8121 422.193 72.8258 422.193 72.8396C422.193 72.9357 422.193 73.018 422.193 73.1141C422.193 73.1964 422.193 73.2925 422.193 73.3886C422.193 73.4023 422.193 73.416 422.193 73.4298C422.193 74.322 422.289 75.2004 422.468 76.0789L418.109 80.0868L421.313 85.7556L426.991 84.0948C427.197 84.2732 427.404 84.4517 427.61 84.6301C427.802 84.7811 427.995 84.9184 428.174 85.0693C428.27 85.138 428.366 85.2066 428.476 85.2752C428.669 85.4125 428.861 85.536 429.067 85.6596C429.081 85.6733 429.109 85.687 429.122 85.7007C429.136 85.7145 429.15 85.7144 429.164 85.7282C429.246 85.7693 429.329 85.8243 429.397 85.8654C429.48 85.9066 429.549 85.9615 429.631 86.0027C429.645 86.0027 429.659 86.0164 429.686 86.0301C429.7 86.0439 429.727 86.0439 429.741 86.0576C430.057 86.2361 430.374 86.4007 430.69 86.538C431.157 86.7576 431.625 86.9498 432.12 87.1145L433.412 92.8794L439.929 92.948L441.332 87.1968C441.813 87.0459 442.294 86.8674 442.762 86.6616C443.092 86.5243 443.408 86.3595 443.724 86.1948C443.752 86.1811 443.765 86.1674 443.793 86.1674C443.807 86.1537 443.82 86.14 443.834 86.14C443.917 86.0988 443.985 86.0576 444.068 86.0027C444.082 86.0027 444.095 85.989 444.109 85.989C444.178 85.9478 444.233 85.9066 444.302 85.8654C444.315 85.8654 444.329 85.8517 444.343 85.8517C444.467 85.7693 444.59 85.7007 444.714 85.6184C444.81 85.5635 444.907 85.4948 445.017 85.4262C445.525 85.083 446.034 84.6987 446.515 84.287L452.153 86.0576L455.48 80.4437L451.19 76.3671C451.273 75.9965 451.341 75.6122 451.396 75.2416C451.41 75.1181 451.424 74.9808 451.438 74.8435C451.465 74.6239 451.493 74.3906 451.506 74.1572C451.506 74.1572 451.506 74.1435 451.506 74.1298C451.506 73.9925 451.52 73.8553 451.52 73.718C451.52 73.7043 451.52 73.6769 451.52 73.6631C451.52 73.5945 451.52 73.5121 451.52 73.4298C451.52 73.416 451.52 73.4023 451.52 73.3886C451.534 73.3062 451.534 73.2102 451.52 73.1278C451.52 73.1141 451.52 73.0866 451.52 73.0729C451.52 72.1944 451.424 71.3023 451.245 70.4238L455.604 66.4296L452.4 60.7471L446.722 62.4079C446.254 61.9824 445.759 61.598 445.25 61.2412C445.044 61.1039 444.852 60.9667 444.645 60.8432C444.632 60.8294 444.604 60.8157 444.59 60.8019C444.577 60.8019 444.563 60.7882 444.549 60.7745C444.467 60.7333 444.384 60.6921 444.315 60.6372C444.233 60.5961 444.164 60.5549 444.082 60.5C444.068 60.5 444.054 60.4863 444.04 60.4863C444.013 60.4725 443.999 60.4588 443.972 60.4451C443.669 60.2804 443.339 60.1157 443.023 59.9647C442.556 59.7451 442.088 59.5529 441.593 59.3882L440.314 53.6233L433.783 53.5684L432.381 59.3058C431.9 59.4568 431.419 59.6353 430.951 59.8411C430.621 59.9921 430.305 60.1431 429.989 60.3078C429.975 60.3215 429.947 60.3353 429.92 60.349C429.906 60.349 429.892 60.3627 429.879 60.3627C429.81 60.4176 429.727 60.4588 429.645 60.5C429.631 60.5137 429.617 60.5137 429.604 60.5137C429.549 60.5549 429.48 60.5961 429.411 60.6372C429.397 60.6372 429.384 60.651 429.37 60.6647C428.6 61.1177 427.885 61.6392 427.197 62.2294L421.56 60.4588L418.233 66.059L422.523 70.1493C422.468 70.4101 422.413 70.6846 422.371 70.9454ZM432.532 65.2217C432.546 65.2217 432.546 65.208 432.56 65.208C433.838 64.5217 435.268 64.1648 436.712 64.1374C436.726 64.1374 436.74 64.1374 436.767 64.1374C436.822 64.1374 436.891 64.1374 436.96 64.1374C437.015 64.1374 437.07 64.1374 437.125 64.1374C437.138 64.1374 437.152 64.1374 437.166 64.1374C438.623 64.1923 440.039 64.5903 441.304 65.2903C441.318 65.2903 441.332 65.3041 441.346 65.3041C441.401 65.3452 441.456 65.3727 441.511 65.4001C441.552 65.4413 441.607 65.4688 441.662 65.4962C441.676 65.5099 441.676 65.5099 441.689 65.5236C442.927 66.2923 443.958 67.3355 444.7 68.5708C444.7 68.5845 444.714 68.5982 444.714 68.612C444.755 68.6669 444.783 68.7218 444.81 68.7767C444.838 68.8316 444.865 68.8865 444.893 68.9277C444.907 68.9414 444.92 68.9551 444.92 68.9689C445.594 70.2454 445.965 71.6728 445.993 73.1141C445.993 73.1278 445.993 73.1415 445.993 73.1552C445.993 73.2239 445.993 73.2925 445.993 73.3474C445.993 73.4023 445.993 73.471 445.993 73.5259C445.993 73.5396 445.993 73.5533 445.979 73.567C445.938 75.0083 445.539 76.4358 444.838 77.6985C444.824 77.6985 444.824 77.7123 444.81 77.726C444.783 77.7809 444.755 77.8358 444.714 77.8907C444.687 77.9456 444.659 78.0005 444.632 78.0417C444.618 78.0554 444.618 78.0691 444.604 78.0829C443.834 79.3045 442.789 80.3339 441.538 81.0751C441.524 81.0888 441.524 81.0888 441.511 81.1025C441.456 81.13 441.401 81.1574 441.359 81.1849C441.304 81.2261 441.249 81.2535 441.181 81.281C441.167 81.2947 441.167 81.2947 441.153 81.3084C439.874 81.981 438.444 82.3516 437.001 82.3653C436.987 82.3653 436.973 82.3653 436.96 82.3653C436.891 82.3653 436.836 82.3653 436.767 82.3653C436.712 82.3653 436.643 82.3653 436.588 82.3653C436.575 82.3653 436.561 82.3653 436.547 82.3653C435.09 82.3104 433.673 81.9261 432.408 81.2124C432.395 81.2124 432.381 81.1986 432.367 81.1986C432.326 81.1712 432.271 81.13 432.216 81.1025C432.161 81.0751 432.106 81.0476 432.051 81.0065C432.037 81.0065 432.037 80.9928 432.023 80.9928C430.8 80.2241 429.769 79.1672 429.012 77.9319C429.012 77.9181 428.999 77.9044 428.999 77.8907C428.971 77.8495 428.93 77.7946 428.902 77.7397C428.875 77.6848 428.847 77.6299 428.82 77.575C428.806 77.5613 428.806 77.5475 428.792 77.5338C428.119 76.2573 427.747 74.8435 427.72 73.3886C427.72 73.3749 427.72 73.3611 427.72 73.3474C427.72 73.2925 427.72 73.2376 427.72 73.169C427.72 73.1141 427.72 73.0455 427.734 72.9768C427.734 72.9631 427.734 72.9494 427.734 72.9357C427.775 71.4944 428.174 70.0807 428.875 68.8179C428.889 68.8042 428.889 68.7904 428.902 68.7767C428.93 68.7218 428.957 68.6806 428.985 68.6257C429.026 68.5708 429.054 68.5159 429.081 68.461C429.095 68.4473 429.109 68.4336 429.109 68.4198C429.879 67.1982 430.924 66.1688 432.175 65.4276C432.175 65.4139 432.188 65.4138 432.202 65.4001C432.257 65.3727 432.326 65.3452 432.381 65.3041C432.422 65.2766 432.477 65.2491 432.532 65.2217Z" fill="#F2F2F2"/>
<path d="M606.833 323.872C606.805 324.106 606.764 324.339 606.737 324.572C606.723 324.696 606.723 324.806 606.709 324.929C606.682 325.163 606.668 325.396 606.668 325.643C606.668 325.657 606.668 325.684 606.668 325.712C606.668 325.725 606.668 325.739 606.668 325.767C606.654 325.849 606.654 325.945 606.654 326.027C606.654 326.123 606.654 326.206 606.654 326.302C606.654 326.316 606.654 326.329 606.654 326.357C606.668 327.235 606.764 328.127 606.929 329.006L602.571 333L605.774 338.669L611.466 337.008C611.659 337.2 611.865 337.379 612.085 337.543C612.264 337.694 612.456 337.845 612.649 337.983C612.745 338.051 612.841 338.12 612.938 338.189C613.13 338.326 613.336 338.449 613.529 338.587C613.556 338.587 613.57 338.6 613.598 338.614C613.611 338.628 613.625 338.641 613.639 338.641C613.708 338.696 613.79 338.738 613.873 338.779C613.941 338.834 614.024 338.875 614.106 338.916C614.12 338.93 614.134 338.93 614.148 338.943C614.175 338.957 614.189 338.971 614.216 338.985C614.519 339.149 614.835 339.314 615.165 339.465C615.619 339.671 616.1 339.863 616.581 340.028L617.874 345.806L624.391 345.861L625.793 340.124C626.288 339.959 626.769 339.781 627.237 339.575C627.553 339.438 627.883 339.287 628.199 339.108C628.213 339.108 628.241 339.094 628.254 339.081C628.268 339.067 628.282 339.067 628.296 339.053C628.378 339.012 628.461 338.971 628.543 338.93C628.543 338.916 628.557 338.916 628.571 338.902C628.639 338.875 628.708 338.834 628.777 338.792C628.791 338.779 628.804 338.779 628.818 338.765C628.942 338.696 629.066 338.614 629.176 338.545C629.286 338.477 629.382 338.408 629.478 338.353C630.001 337.996 630.496 337.612 630.977 337.2L636.628 338.971L639.941 333.357L635.665 329.28C635.748 328.91 635.817 328.539 635.858 328.169C635.885 328.031 635.899 327.894 635.913 327.771C635.94 327.537 635.954 327.304 635.968 327.084C635.968 327.071 635.968 327.057 635.968 327.043C635.982 326.906 635.982 326.769 635.995 326.631C635.995 326.618 635.995 326.604 635.995 326.576C635.995 326.508 635.995 326.425 635.995 326.357C635.995 326.343 635.995 326.329 635.995 326.316C635.995 326.22 635.995 326.137 635.995 326.041C635.995 326.027 635.995 326.014 635.995 325.986C635.982 325.108 635.899 324.216 635.72 323.337L640.079 319.343L636.875 313.674L631.183 315.335C630.716 314.909 630.234 314.511 629.712 314.154C629.519 314.017 629.327 313.894 629.121 313.77C629.093 313.756 629.079 313.743 629.066 313.729C629.038 313.715 629.024 313.702 629.011 313.702C628.942 313.647 628.859 313.605 628.777 313.564C628.708 313.509 628.626 313.468 628.543 313.427C628.529 313.413 628.516 313.413 628.502 313.4C628.488 313.386 628.461 313.372 628.447 313.358C628.131 313.194 627.814 313.029 627.484 312.878C627.031 312.672 626.549 312.48 626.068 312.315L624.776 306.55L618.259 306.482L616.856 312.219C616.361 312.384 615.88 312.562 615.413 312.768C615.096 312.905 614.766 313.056 614.464 313.235C614.436 313.235 614.423 313.249 614.395 313.262C614.381 313.276 614.368 313.276 614.354 313.29C614.271 313.331 614.189 313.372 614.106 313.413C614.106 313.427 614.093 313.427 614.079 313.441C614.01 313.482 613.941 313.509 613.886 313.551C613.859 313.564 613.845 313.564 613.831 313.578C613.075 314.031 612.346 314.553 611.673 315.143L606.022 313.372L602.708 318.986L606.984 323.063C606.929 323.337 606.874 323.598 606.833 323.872ZM616.994 318.149C617.007 318.135 617.021 318.135 617.035 318.121C618.314 317.449 619.744 317.078 621.187 317.051C621.201 317.051 621.215 317.051 621.228 317.051C621.297 317.051 621.352 317.051 621.421 317.051C621.476 317.051 621.545 317.051 621.6 317.051C621.613 317.064 621.627 317.064 621.641 317.064C623.085 317.106 624.501 317.504 625.766 318.204C625.78 318.217 625.793 318.217 625.807 318.231C625.862 318.259 625.917 318.286 625.972 318.327C626.027 318.355 626.082 318.382 626.123 318.41C626.137 318.423 626.151 318.423 626.165 318.437C627.388 319.206 628.419 320.249 629.162 321.498C629.176 321.512 629.176 321.512 629.189 321.525C629.217 321.58 629.244 321.635 629.286 321.69C629.313 321.745 629.341 321.8 629.368 321.855C629.382 321.868 629.382 321.882 629.396 321.882C630.069 323.159 630.427 324.586 630.454 326.027C630.454 326.041 630.454 326.055 630.454 326.082C630.454 326.137 630.454 326.206 630.454 326.274C630.454 326.329 630.454 326.384 630.454 326.439C630.454 326.453 630.454 326.467 630.454 326.494C630.399 327.935 630.001 329.349 629.299 330.612C629.299 330.626 629.286 330.639 629.286 330.653C629.258 330.708 629.217 330.763 629.189 330.818C629.162 330.859 629.121 330.914 629.093 330.969C629.093 330.982 629.079 330.982 629.079 330.996C628.309 332.218 627.251 333.261 626.013 334.002C626 334.002 625.986 334.016 625.972 334.016C625.931 334.043 625.876 334.085 625.821 334.112C625.766 334.139 625.711 334.167 625.656 334.208C625.642 334.208 625.628 334.208 625.615 334.222C624.336 334.894 622.906 335.265 621.462 335.292C621.448 335.292 621.435 335.292 621.421 335.292C621.366 335.292 621.297 335.292 621.242 335.292C621.173 335.292 621.118 335.292 621.05 335.292C621.036 335.292 621.022 335.279 621.009 335.279C619.565 335.237 618.149 334.839 616.884 334.139C616.87 334.126 616.856 334.126 616.842 334.112C616.787 334.085 616.732 334.057 616.691 334.03C616.636 333.988 616.581 333.961 616.526 333.934C616.512 333.92 616.499 333.92 616.485 333.906C615.261 333.137 614.23 332.094 613.488 330.845C613.474 330.845 613.474 330.831 613.46 330.818C613.433 330.763 613.405 330.708 613.378 330.653C613.35 330.598 613.309 330.543 613.281 330.488C613.281 330.475 613.268 330.475 613.268 330.461C612.58 329.184 612.223 327.757 612.195 326.316C612.195 326.302 612.195 326.288 612.195 326.261C612.195 326.206 612.195 326.151 612.195 326.096C612.195 326.027 612.195 325.959 612.195 325.904C612.195 325.89 612.195 325.876 612.195 325.863C612.25 324.408 612.649 322.994 613.35 321.731C613.35 321.717 613.364 321.704 613.364 321.69C613.391 321.649 613.433 321.594 613.46 321.553C613.488 321.484 613.515 321.429 613.556 321.374C613.556 321.361 613.57 321.361 613.584 321.347C614.354 320.112 615.399 319.096 616.636 318.341C616.65 318.341 616.664 318.327 616.677 318.327C616.732 318.286 616.787 318.259 616.842 318.231C616.897 318.204 616.939 318.176 616.994 318.149Z" fill="#F2F2F2"/>
<path d="M489.661 -37.3108C484.106 16.028 438.939 57.6038 384.038 57.6038C329.137 57.6038 283.97 16.028 278.415 -37.3108" stroke="#F2F2F2" stroke-width="1.76499" stroke-miterlimit="10"/>
<path d="M666.313 259.608C650.845 286.401 621.861 304.423 588.656 304.423C539.172 304.423 499.065 264.384 499.065 214.985M499.065 214.985C499.065 165.585 539.172 125.547 588.656 125.547C621.861 125.547 650.845 143.583 666.313 170.376L499.065 214.985Z" stroke="#F2F2F2" stroke-width="0.882497" stroke-miterlimit="10"/>
<path d="M590.416 -37.3109C584.641 71.4806 494.459 157.913 384.038 157.913C273.617 157.913 183.435 71.4806 177.66 -37.3109" stroke="#F2F2F2" stroke-width="0.882497" stroke-miterlimit="10"/>
<path d="M666.313 206.832C662.215 167.658 628.956 137.036 588.656 137.036C545.593 137.036 510.56 171.995 510.56 214.985C510.56 257.974 545.593 292.948 588.656 292.948C628.956 292.948 662.215 262.312 666.313 223.152" stroke="#F2F2F2" stroke-width="6.97975" stroke-miterlimit="10"/>
<path d="M237.236 -37.3108V66.7041H114.262V-37.3108" stroke="#F2F2F2" stroke-width="2.60738" stroke-miterlimit="10"/>
<path d="M666.313 178.872H408.581V-37.3109" stroke="#F2F2F2" stroke-width="1.76499" stroke-miterlimit="10"/>
<path d="M666.313 383.251H479.032V-37.3108" stroke="#F2F2F2" stroke-width="1.76499" stroke-miterlimit="10"/>
<path d="M239.904 46.7327V-37.311H237.236V46.7327H239.904Z" fill="#F2F2F2"/>
</g>
<defs>
<clipPath id="clip0">
<rect width="648" height="382" fill="white"/>
</clipPath>
</defs>
</svg>
