<svg width="13" height="11" viewBox="0 0 13 11" fill="none" xmlns="http://www.w3.org/2000/svg">
<path d="M0.337189 10.9733C0.238757 10.9409 0.153362 10.8799 0.0929155 10.7988C0.0324692 10.7178 -1.3113e-05 10.6207 3.97108e-09 10.5211C3.97108e-09 8.33618 0.458752 6.58883 1.36407 5.32719C2.45782 3.80282 4.18314 2.98205 6.50002 2.88012V0.478192C6.50003 0.384549 6.52878 0.292968 6.58271 0.214811C6.63664 0.136654 6.71338 0.07536 6.80339 0.0385334C6.89341 0.0017068 6.99275 -0.0090321 7.08909 0.00764884C7.18543 0.0243298 7.27453 0.0676966 7.34534 0.132369L12.8454 5.15383C12.8942 5.19848 12.9331 5.25215 12.9597 5.31159C12.9863 5.37103 13 5.435 13 5.49965C13 5.5643 12.9863 5.62827 12.9597 5.68771C12.9331 5.74715 12.8942 5.80082 12.8454 5.84547L7.34534 10.8669C7.27453 10.9316 7.18543 10.975 7.08909 10.9917C6.99275 11.0083 6.89341 10.9976 6.80339 10.9608C6.71338 10.9239 6.63664 10.8626 6.58271 10.7845C6.52878 10.7063 6.50003 10.6148 6.50002 10.5211V8.13681C5.09377 8.17746 4.03126 8.39536 3.18532 8.81351C2.27126 9.26545 1.60844 9.94065 0.894066 10.8161C0.829979 10.8946 0.741872 10.952 0.642041 10.9803C0.54221 11.0086 0.435635 11.0064 0.337189 10.9739V10.9733Z" fill="white"/>
</svg>
