<svg width="526" height="133" viewBox="0 0 526 133" fill="none" xmlns="http://www.w3.org/2000/svg">
<path d="M475.243 622.077C417.211 587.408 388.278 488.194 402.892 420.849C421.264 336.188 487.001 275.73 513.208 193.109C532.08 133.599 529.555 67.6929 506.177 9.76808C503.375 2.82106 500.272 -4.04009 497.491 -11L-295 -11V622.077H475.243Z" fill="url(#paint0_linear)"/>
<g filter="url(#filter0_d)">
<path d="M440.557 600.221C399.556 549.327 381.232 479.82 394.978 415.682C412.26 335.053 473.292 270.367 497.943 191.679C515.695 135.004 513.32 72.2359 491.33 17.0694C488.694 10.4532 485.775 3.91877 483.159 -2.70972L-269.375 -2.70972V600.221H440.557Z" fill="white"/>
</g>
<defs>
<filter id="filter0_d" x="-271.375" y="-10.7097" width="795.106" height="618.93" filterUnits="userSpaceOnUse" color-interpolation-filters="sRGB">
<feFlood flood-opacity="0" result="BackgroundImageFix"/>
<feColorMatrix in="SourceAlpha" type="matrix" values="0 0 0 0 0 0 0 0 0 0 0 0 0 0 0 0 0 0 127 0"/>
<feOffset dx="6"/>
<feGaussianBlur stdDeviation="4"/>
<feColorMatrix type="matrix" values="0 0 0 0 0 0 0 0 0 0 0 0 0 0 0 0 0 0 0.25 0"/>
<feBlend mode="normal" in2="BackgroundImageFix" result="effect1_dropShadow"/>
<feBlend mode="normal" in="SourceGraphic" in2="effect1_dropShadow" result="shape"/>
</filter>
<linearGradient id="paint0_linear" x1="475.62" y1="695.182" x2="-17.0039" y2="464.467" gradientUnits="userSpaceOnUse">
<stop stop-color="#E52D2D"/>
<stop offset="0.25098" stop-color="#E11F28"/>
<stop offset="0.490196" stop-color="#333867"/>
<stop offset="0.811765" stop-color="#46A8DE"/>
<stop offset="1" stop-color="#46A8DE"/>
</linearGradient>
</defs>
</svg>
