<svg width="197" height="426" viewBox="0 0 197 426" fill="none" xmlns="http://www.w3.org/2000/svg">
<path d="M426 248.199V177.801L368.251 166.429C365.094 155.937 360.901 145.819 355.684 136.19L387.907 87.8529L338.145 38.0886L289.808 70.3143C280.18 65.0974 270.062 60.9043 259.568 57.7476L248.2 0H177.803L166.43 57.7476C155.938 60.9064 145.82 65.0974 136.192 70.3143L87.8546 38.0886L38.0905 87.8529L70.3161 136.19C65.0992 145.819 60.9061 155.935 57.7494 166.429L0 177.799V248.197L57.7494 259.569C60.9082 270.063 65.0992 280.179 70.3161 289.807L38.0905 338.145L87.8546 387.909L136.192 355.684C145.82 360.901 155.936 365.094 166.43 368.25L177.8 426H248.197L259.57 368.25C270.062 365.094 280.18 360.901 289.808 355.684L338.145 387.907L387.91 338.145L355.684 289.807C360.901 280.179 365.094 270.063 368.251 259.567L426 248.199ZM213 352.66C135.999 352.66 73.3399 290.001 73.3399 212.999C73.3399 135.997 135.999 73.3381 213 73.3381C290.001 73.3381 352.66 135.997 352.66 212.999C352.66 290.001 290.001 352.66 213 352.66Z" fill="#414141"/>
</svg>
