<svg width="13" height="13" viewBox="0 0 13 13" fill="none" xmlns="http://www.w3.org/2000/svg">
<path d="M12.4722 9.42201C12.3637 10.2665 11.9514 11.0425 11.3124 11.6052C10.6734 12.1679 9.85141 12.4787 9 12.4795C4.03737 12.4795 0 8.44214 0 3.47951C0.00085421 2.6281 0.311645 1.80611 0.874313 1.16712C1.43698 0.528128 2.21304 0.115834 3.0575 0.00726308C3.2724 -0.0187543 3.48994 0.0255388 3.67756 0.13351C3.86518 0.241482 4.01278 0.407322 4.09825 0.606201L5.354 3.53608C5.41914 3.68763 5.44569 3.85297 5.4313 4.01731C5.4169 4.18164 5.362 4.33984 5.2715 4.47776L4.23181 6.06639L4.23169 6.06651C4.70117 7.02105 5.4754 7.79188 6.432 8.25714L7.99719 7.21376C8.13548 7.12122 8.29475 7.06476 8.46045 7.04955C8.62616 7.03433 8.79304 7.06083 8.94588 7.12664L11.8733 8.3812C12.0721 8.46672 12.2379 8.61433 12.3459 8.80193C12.4539 8.98953 12.4982 9.20705 12.4722 9.42195V9.42201ZM7.8345 1.46251C8.59731 1.66762 9.29284 2.06958 9.85139 2.62813C10.4099 3.18668 10.8119 3.8822 11.017 4.64501C11.0527 4.77152 11.1367 4.8789 11.2509 4.94392C11.3651 5.00894 11.5004 5.02636 11.6274 4.99243C11.7543 4.95849 11.8628 4.87592 11.9294 4.76258C11.996 4.64924 12.0152 4.51425 11.983 4.38683C11.7323 3.45434 11.2409 2.60411 10.5581 1.92131C9.87533 1.23852 9.02511 0.747133 8.09262 0.496388C7.965 0.463615 7.8296 0.482545 7.71585 0.549063C7.60211 0.61558 7.51922 0.724307 7.48521 0.851607C7.4512 0.978907 7.46881 1.11449 7.53421 1.22887C7.59962 1.34326 7.70754 1.4272 7.8345 1.46245V1.46251ZM7.31669 3.39483C7.74044 3.50878 8.12681 3.73208 8.43709 4.04236C8.74737 4.35264 8.97067 4.73901 9.08463 5.16276C9.11969 5.28994 9.2036 5.39811 9.31807 5.46369C9.43254 5.52927 9.56828 5.54696 9.69573 5.5129C9.82318 5.47884 9.93201 5.39578 9.9985 5.28184C10.065 5.16789 10.0837 5.03229 10.0507 4.90458C9.89113 4.31114 9.57843 3.77005 9.14391 3.33552C8.70939 2.90098 8.16831 2.58827 7.57487 2.4287C7.44725 2.39593 7.31185 2.41486 7.1981 2.48138C7.08436 2.54789 7.00147 2.65662 6.96746 2.78392C6.93345 2.91122 6.95106 3.0468 7.01647 3.16118C7.08187 3.27557 7.18979 3.35951 7.31675 3.39476L7.31669 3.39483Z" fill="white"/>
</svg>
