<svg width="32" height="32" viewBox="0 0 32 32" fill="none" xmlns="http://www.w3.org/2000/svg">
<circle cx="16" cy="16" r="16" fill="#2FB866"/>
<path fill-rule="evenodd" clip-rule="evenodd" d="M25.0007 15.999H23.0007C23.0007 11.943 20.0527 9 15.9907 9V7C21.1277 7 25.0007 10.869 25.0007 15.999ZM19.0003 16C19.0003 13.897 18.1033 13 16.0003 13V11C19.2253 11 21.0003 12.775 21.0003 16H19.0003ZM18.7181 18.1832C18.9776 18.1752 19.2301 18.2683 19.4223 18.443L23.4863 22.139C23.6788 22.3141 23.7954 22.5573 23.8115 22.817C23.8276 23.0768 23.7417 23.3325 23.5723 23.53L21.7123 25.701C21.5396 25.8747 21.3088 25.9783 21.0643 25.992C21.0423 25.9933 20.9799 25.9964 20.881 25.9984C20.8315 25.9993 20.7727 26 20.7053 26C19.3233 26 14.3053 25.707 10.2993 21.702C5.70727 17.108 5.99328 11.186 6.00828 10.936C6.0222 10.6914 6.12539 10.4605 6.29828 10.287L8.46827 8.42599C8.66587 8.25665 8.9217 8.17102 9.18144 8.18726C9.44116 8.20349 9.68432 8.32034 9.85928 8.513L13.5543 12.576C13.7292 12.768 13.8225 13.0206 13.8144 13.2802C13.8064 13.5398 13.6977 13.7861 13.5113 13.967L11.0523 16.361C11.1593 16.933 11.5203 18.094 12.7123 19.287C13.9043 20.476 15.0623 20.837 15.6383 20.947L18.0313 18.486C18.2123 18.2998 18.4585 18.1913 18.7181 18.1832Z" fill="white"/>
</svg>
