<svg width="15" height="15" viewBox="0 0 15 15" fill="none" xmlns="http://www.w3.org/2000/svg">
<path d="M15 8.7394V6.26062L12.9666 5.86022C12.8554 5.49073 12.7078 5.13451 12.5241 4.79549L13.6588 3.09346L11.9065 1.34121L10.2045 2.47588C9.86546 2.29219 9.50927 2.14456 9.13975 2.03341L8.7394 0H6.26062L5.86022 2.03344C5.49073 2.14459 5.13451 2.29222 4.79549 2.47591L3.09346 1.34121L1.34121 3.09346L2.47588 4.79549C2.29219 5.13451 2.14456 5.4907 2.03341 5.86022L0 6.2606V8.73937L2.03344 9.13978C2.14459 9.50927 2.29222 9.86549 2.47591 10.2045L1.34121 11.9065L3.09346 13.6588L4.79549 12.5241C5.13451 12.7078 5.4907 12.8554 5.86022 12.9666L6.2606 15H8.73937L9.13978 12.9666C9.50927 12.8554 9.86549 12.7078 10.2045 12.5241L11.9065 13.6588L13.6588 11.9065L12.5241 10.2045C12.7078 9.86546 12.8554 9.50927 12.9666 9.13975L15 8.7394ZM7.5 10.5762C5.80397 10.5762 4.42383 9.19602 4.42383 7.5C4.42383 5.80397 5.80397 4.42383 7.5 4.42383C9.19602 4.42383 10.5762 5.80397 10.5762 7.5C10.5762 9.19602 9.19602 10.5762 7.5 10.5762Z" fill="white"/>
<path d="M15 8.7394V6.26062L12.9666 5.86022C12.8554 5.49073 12.7078 5.13451 12.5241 4.79549L13.6588 3.09346L11.9065 1.34121L10.2045 2.47588C9.86546 2.29219 9.50927 2.14456 9.13975 2.03341L8.7394 0H6.26062L5.86022 2.03344C5.49073 2.14459 5.13451 2.29222 4.79549 2.47591L3.09346 1.34121L1.34121 3.09346L2.47588 4.79549C2.29219 5.13451 2.14456 5.4907 2.03341 5.86022L0 6.2606V8.73937L2.03344 9.13978C2.14459 9.50927 2.29222 9.86549 2.47591 10.2045L1.34121 11.9065L3.09346 13.6588L4.79549 12.5241C5.13451 12.7078 5.4907 12.8554 5.86022 12.9666L6.2606 15H8.73937L9.13978 12.9666C9.50927 12.8554 9.86549 12.7078 10.2045 12.5241L11.9065 13.6588L13.6588 11.9065L12.5241 10.2045C12.7078 9.86546 12.8554 9.50927 12.9666 9.13975L15 8.7394ZM7.5 10.5762C5.80397 10.5762 4.42383 9.19602 4.42383 7.5C4.42383 5.80397 5.80397 4.42383 7.5 4.42383C9.19602 4.42383 10.5762 5.80397 10.5762 7.5C10.5762 9.19602 9.19602 10.5762 7.5 10.5762Z" fill="white"/>
</svg>
