<svg width="12" height="12" viewBox="0 0 12 12" fill="none" xmlns="http://www.w3.org/2000/svg">
<path d="M12 6.99152V5.0085L10.3733 4.68818C10.2843 4.39259 10.1662 4.10761 10.0193 3.83639L10.927 2.47477L9.52521 1.07297L8.16359 1.9807C7.89237 1.83375 7.60741 1.71565 7.3118 1.62673L6.99152 0H5.0085L4.68818 1.62675C4.39259 1.71567 4.10761 1.83377 3.83639 1.98073L2.47477 1.07297L1.07297 2.47477L1.9807 3.83639C1.83375 4.10761 1.71565 4.39256 1.62673 4.68818L0 5.00848V6.9915L1.62675 7.31182C1.71567 7.60741 1.83377 7.89239 1.98073 8.16361L1.07297 9.52523L2.47477 10.927L3.83639 10.0193C4.10761 10.1663 4.39256 10.2844 4.68818 10.3733L5.00848 12H6.9915L7.31182 10.3733C7.60741 10.2843 7.89239 10.1662 8.16361 10.0193L9.52523 10.927L10.927 9.52521L10.0193 8.16359C10.1663 7.89237 10.2844 7.60741 10.3733 7.3118L12 6.99152ZM6 8.46094C4.64318 8.46094 3.53906 7.35682 3.53906 6C3.53906 4.64318 4.64318 3.53906 6 3.53906C7.35682 3.53906 8.46094 4.64318 8.46094 6C8.46094 7.35682 7.35682 8.46094 6 8.46094Z" fill="#E42A2C"/>
<path d="M12 6.99152V5.0085L10.3733 4.68818C10.2843 4.39259 10.1662 4.10761 10.0193 3.83639L10.927 2.47477L9.52521 1.07297L8.16359 1.9807C7.89237 1.83375 7.60741 1.71565 7.3118 1.62673L6.99152 0H5.0085L4.68818 1.62675C4.39259 1.71567 4.10761 1.83377 3.83639 1.98073L2.47477 1.07297L1.07297 2.47477L1.9807 3.83639C1.83375 4.10761 1.71565 4.39256 1.62673 4.68818L0 5.00848V6.9915L1.62675 7.31182C1.71567 7.60741 1.83377 7.89239 1.98073 8.16361L1.07297 9.52523L2.47477 10.927L3.83639 10.0193C4.10761 10.1663 4.39256 10.2844 4.68818 10.3733L5.00848 12H6.9915L7.31182 10.3733C7.60741 10.2843 7.89239 10.1662 8.16361 10.0193L9.52523 10.927L10.927 9.52521L10.0193 8.16359C10.1663 7.89237 10.2844 7.60741 10.3733 7.3118L12 6.99152ZM6 8.46094C4.64318 8.46094 3.53906 7.35682 3.53906 6C3.53906 4.64318 4.64318 3.53906 6 3.53906C7.35682 3.53906 8.46094 4.64318 8.46094 6C8.46094 7.35682 7.35682 8.46094 6 8.46094Z" fill="#E42A2C"/>
</svg>
