<svg width="51" height="16" viewBox="0 0 51 16" fill="none" xmlns="http://www.w3.org/2000/svg">
<path d="M21.9559 15.0928H17.8964L20.4355 0.356567H24.4948L21.9559 15.0928Z" fill="white"/>
<path d="M36.6717 0.717042C35.871 0.418875 34.601 0.0896606 33.0306 0.0896606C29.0217 0.0896606 26.1986 2.0962 26.1813 4.96494C26.148 7.0815 28.2025 8.25708 29.7392 8.96281C31.3097 9.68396 31.8436 10.1546 31.8436 10.7974C31.8276 11.7847 30.5745 12.2397 29.4057 12.2397C27.785 12.2397 26.9166 12.0051 25.5968 11.4559L25.0623 11.2204L24.4942 14.5284C25.4463 14.9355 27.2005 15.2968 29.0217 15.3127C33.2812 15.3127 36.0543 13.3372 36.0872 10.2801C36.1034 8.60255 35.0185 7.31716 32.6796 6.2668C31.2598 5.59253 30.3903 5.13789 30.3903 4.448C30.4069 3.82082 31.1257 3.17844 32.7285 3.17844C34.0482 3.14697 35.0179 3.44473 35.7524 3.74269L36.1196 3.89917L36.6717 0.717042Z" fill="white"/>
<path fill-rule="evenodd" clip-rule="evenodd" d="M43.9383 0.356567H47.0784L50.3534 15.0926H46.5946C46.5946 15.0926 46.2268 13.3995 46.1103 12.8821H40.8982C40.7474 13.2738 40.0462 15.0926 40.0462 15.0926H35.7866L41.8165 1.57924C42.2343 0.622856 42.97 0.356567 43.9383 0.356567ZM43.6883 5.7492C43.6883 5.7492 42.4019 9.02571 42.0675 9.87229H45.4418C45.2749 9.13552 44.5061 5.60814 44.5061 5.60814L44.2224 4.33838C44.1029 4.66535 43.9302 5.11488 43.8136 5.41809C43.7346 5.62362 43.6815 5.76191 43.6883 5.7492Z" fill="white"/>
<path fill-rule="evenodd" clip-rule="evenodd" d="M0.30687 0.356567H6.83825C7.72355 0.387613 8.44191 0.65411 8.67566 1.59529L10.0955 8.36792C10.0955 8.36786 10.0955 8.3678 10.0954 8.36774L10.5298 10.4053L14.5054 0.356597H18.798L12.4171 15.0772H8.1243L4.50601 2.27258C3.25765 1.58758 1.83295 1.03665 0.240051 0.654318L0.30687 0.356567Z" fill="white"/>
</svg>
