<svg width="46" height="19" viewBox="0 0 46 19" fill="none" xmlns="http://www.w3.org/2000/svg">
<path d="M22.0014 9.06509V14.2885H20.3328V1.38899H24.7583C25.2865 1.37803 25.8117 1.47107 26.3036 1.66274C26.7954 1.85441 27.2442 2.14091 27.624 2.50572C28.0076 2.84837 28.3128 3.2686 28.5193 3.73817C28.7258 4.20773 28.8287 4.71574 28.821 5.22807C28.832 5.74313 28.7307 6.25446 28.5241 6.72702C28.3175 7.19957 28.0104 7.62217 27.624 7.96585C26.8501 8.69868 25.8949 9.06474 24.7583 9.06406H22.0014V9.06509ZM22.0014 2.97711V7.48005H24.7997C25.1065 7.48908 25.4118 7.43443 25.6961 7.31958C25.9804 7.20474 26.2374 7.03223 26.4507 6.8131C26.6629 6.60822 26.8316 6.36316 26.9468 6.09241C27.062 5.82167 27.1213 5.53073 27.1213 5.23682C27.1213 4.9429 27.062 4.65196 26.9468 4.38122C26.8316 4.11047 26.6629 3.86541 26.4507 3.66053C26.2401 3.43678 25.9839 3.26005 25.6993 3.14205C25.4147 3.02405 25.108 2.96748 24.7997 2.97608H22.0014V2.97711Z" fill="white"/>
<path d="M32.6661 5.17456C33.8995 5.17456 34.873 5.50186 35.5868 6.15646C36.3005 6.81106 36.657 7.70856 36.6563 8.84896V14.2885H35.0603V13.0637H34.9877C34.2968 14.0724 33.3778 14.5767 32.2308 14.5767C31.2518 14.5767 30.4327 14.2885 29.7735 13.7121C29.4572 13.4476 29.2043 13.1163 29.0332 12.7424C28.8622 12.3685 28.7773 11.9613 28.7848 11.5507C28.7848 10.6374 29.1323 9.91114 29.8274 9.37181C30.5225 8.83249 31.4504 8.56214 32.6112 8.56077C33.602 8.56077 34.418 8.74089 35.0592 9.10112V8.72236C35.0611 8.44243 35.0002 8.16558 34.881 7.9119C34.7618 7.65822 34.5873 7.43407 34.37 7.25569C33.9287 6.86034 33.3537 6.64462 32.7594 6.65152C31.8273 6.65152 31.0897 7.04195 30.5467 7.8228L29.077 6.90369C29.8854 5.75094 31.0818 5.17456 32.6661 5.17456ZM30.5073 11.5867C30.5062 11.7976 30.5558 12.0057 30.6521 12.1937C30.7483 12.3817 30.8884 12.5441 31.0607 12.6675C31.4298 12.9557 31.8878 13.1085 32.3573 13.0997C33.0614 13.0986 33.7364 12.8202 34.2342 12.3257C34.787 11.8091 35.0634 11.2028 35.0634 10.5071C34.5431 10.0954 33.8176 9.88952 32.8869 9.88952C32.2091 9.88952 31.6439 10.0518 31.1913 10.3764C30.7343 10.7057 30.5073 11.1061 30.5073 11.5867Z" fill="white"/>
<path d="M45.8182 5.46277L40.2465 18.1791H38.5239L40.5916 13.7296L36.9279 5.46277H38.7416L41.3896 11.8029H41.4259L44.0014 5.46277H45.8182Z" fill="white"/>
<path d="M15.2587 7.93894C15.2594 7.43394 15.2164 6.92983 15.1302 6.43213H8.09296V9.28622H12.1236C12.0411 9.74206 11.8665 10.1766 11.6104 10.5636C11.3542 10.9507 11.0218 11.2822 10.6332 11.5382V13.3908H13.0387C14.4472 12.1012 15.2587 10.194 15.2587 7.93894Z" fill="#E0E0E0"/>
<path d="M8.09292 15.1809C10.1067 15.1809 11.8023 14.5242 13.0387 13.392L10.6332 11.5394C9.96365 11.9902 9.10136 12.2475 8.09292 12.2475C6.14653 12.2475 4.49449 10.9445 3.90373 9.1886H1.42566V11.0978C2.04675 12.3252 2.99912 13.357 4.17645 14.078C5.35378 14.7989 6.70973 15.1808 8.09292 15.1809Z" fill="white"/>
<path d="M3.90364 9.18853C3.59133 8.26843 3.59133 7.27203 3.90364 6.35193V4.44269H1.42557C0.90309 5.47518 0.630981 6.6147 0.630981 7.77023C0.630981 8.92577 0.90309 10.0653 1.42557 11.0978L3.90364 9.18853Z" fill="#D7D7D7"/>
<path d="M8.09292 3.29302C9.1571 3.27576 10.1854 3.67505 10.9555 4.4046L13.0853 2.28951C11.7348 1.02979 9.94564 0.338188 8.09292 0.359678C6.70973 0.359741 5.35378 0.741584 4.17645 1.46258C2.99912 2.18357 2.04675 3.21534 1.42566 4.44269L3.90373 6.35193C4.49449 4.59604 6.14653 3.29302 8.09292 3.29302Z" fill="#A9A9A9"/>
</svg>
