<svg width="42" height="18" viewBox="0 0 42 18" fill="none" xmlns="http://www.w3.org/2000/svg">
<path fill-rule="evenodd" clip-rule="evenodd" d="M7.89559 2.56593C7.4087 3.14915 6.62968 3.60915 5.85065 3.54344C5.75328 2.75486 6.13467 1.917 6.58099 1.39949C7.06788 0.799847 7.91994 0.372701 8.6097 0.339844C8.69085 1.16128 8.37437 1.96628 7.89559 2.56593ZM8.60141 3.69957C7.9151 3.65959 7.28887 3.9085 6.78306 4.10956C6.45755 4.23894 6.18191 4.34851 5.9722 4.34851C5.73687 4.34851 5.44984 4.23309 5.12758 4.10349C4.70531 3.93368 4.22254 3.73954 3.71627 3.74886C2.55585 3.76529 1.47658 4.43065 0.884196 5.4903C-0.333029 7.6096 0.567717 10.7475 1.74437 12.4725C2.32052 13.3268 3.01028 14.2632 3.91914 14.2304C4.31899 14.2151 4.60661 14.0915 4.90428 13.9637C5.24697 13.8165 5.60297 13.6636 6.15884 13.6636C6.69544 13.6636 7.03587 13.8125 7.36266 13.9555C7.67339 14.0914 7.97179 14.2219 8.41476 14.2139C9.35608 14.1975 9.94847 13.3596 10.5246 12.5053C11.1464 11.5885 11.4196 10.6936 11.4611 10.5578L11.4659 10.5421C11.4649 10.5411 11.4573 10.5376 11.4437 10.5313L11.4437 10.5313C11.2359 10.435 9.64723 9.69876 9.63199 7.7246C9.61669 6.06759 10.8921 5.22804 11.0928 5.09588L11.0929 5.09586C11.1051 5.08783 11.1133 5.08241 11.117 5.07958C10.3055 3.86386 9.03961 3.73243 8.60141 3.69957ZM15.1177 14.1235V1.31738H19.8649C22.3156 1.31738 24.0278 3.02597 24.0278 5.52313C24.0278 8.02029 22.2831 9.7453 19.8 9.7453H17.0815V14.1235H15.1177ZM17.0816 2.99316H19.3457C21.0498 2.99316 22.0236 3.91317 22.0236 5.5314C22.0236 7.14962 21.0498 8.07784 19.3376 8.07784H17.0816V2.99316ZM30.5114 12.5873C29.9921 13.5894 28.8479 14.2219 27.6144 14.2219C25.7886 14.2219 24.5146 13.1212 24.5146 11.4619C24.5146 9.81903 25.748 8.87438 28.0283 8.73473L30.479 8.58687V7.88044C30.479 6.83722 29.8054 6.27043 28.6044 6.27043C27.6144 6.27043 26.8922 6.78793 26.7461 7.57651H24.9771C25.0339 5.91721 26.5757 4.70971 28.6612 4.70971C30.909 4.70971 32.3697 5.90079 32.3697 7.74901V14.1233H30.552V12.5873H30.5114ZM28.1418 12.7024C27.095 12.7024 26.4296 12.1931 26.4296 11.4128C26.4296 10.6078 27.0707 10.1395 28.296 10.0656L30.4789 9.92597V10.6488C30.4789 11.8481 29.4726 12.7024 28.1418 12.7024ZM38.3992 14.6245C37.6121 16.8671 36.7114 17.6063 34.7963 17.6063C34.6502 17.6063 34.1633 17.5899 34.0497 17.5571V16.021C34.1714 16.0374 34.4717 16.0538 34.6258 16.0538C35.4941 16.0538 35.981 15.6842 36.2813 14.7231L36.4598 14.1563L33.1327 4.83305H35.1858L37.4985 12.3985H37.5391L39.8518 4.83305H41.848L38.3992 14.6245Z" fill="white"/>
</svg>
