<svg width="29" height="27" viewBox="0 0 29 27" fill="none" xmlns="http://www.w3.org/2000/svg">
<path d="M28.3536 10.8483C28.2084 9.97721 27.41 9.3965 26.3211 9.3965C25.9582 9.3965 25.6678 9.3965 25.3049 9.3965C24.6516 9.32391 24.5064 9.54169 24.5064 10.0498C24.5064 12.5904 24.5064 15.0584 24.5064 17.599C24.5064 18.9056 23.1998 20.2848 21.6755 20.5752C16.8846 21.664 12.0937 22.6803 7.30286 23.7691C6.79473 23.9143 6.21403 23.9143 5.63332 23.9143C5.41555 23.9143 5.05261 23.7691 4.98003 23.5513C4.90744 23.4062 5.1252 23.1158 5.27038 22.9706C5.48814 22.8254 5.7785 22.6803 6.06886 22.5351C6.93992 22.2447 7.88357 21.9544 8.75463 21.664C12.3115 20.5026 15.8683 19.3412 19.4252 18.1072C21.0222 17.599 21.8932 16.5102 21.8932 15.131C21.9658 10.7757 21.8932 6.34777 21.8932 1.99244C21.8932 1.26655 21.5303 0.685846 20.7318 0.395491C19.7881 0.0325468 18.9171 0.322898 18.1186 0.685842C13.0374 3.08127 8.02874 5.47671 2.94752 7.87214C1.49575 8.59803 0.624695 9.61427 0.624695 11.066C0.624695 15.2036 0.624695 19.3412 0.624695 23.4787C0.624695 23.6965 0.624677 23.9143 0.697266 24.0595C1.20539 25.4386 2.512 26.3097 4.25414 26.3097C7.81099 26.3097 11.3678 26.3097 14.9247 26.3097C18.4815 26.3097 21.9658 26.3097 25.5227 26.3097C26.3211 26.3097 26.9744 26.1645 27.5551 25.6564C28.281 25.0757 28.281 24.2772 28.281 23.5513C28.281 19.4864 28.281 15.494 28.281 11.429C28.4262 11.3564 28.4262 11.066 28.3536 10.8483ZM13.5455 9.54169C13.9084 8.59803 14.7069 8.01732 15.8684 7.87214C16.6668 7.79955 17.3201 8.23509 17.4653 8.96098C17.6105 10.0498 16.3039 11.3564 14.9247 11.3564C13.8359 11.3564 13.1826 10.5579 13.5455 9.54169Z" fill="white"/>
</svg>
