<svg width="51" height="15" viewBox="0 0 51 15" fill="none" xmlns="http://www.w3.org/2000/svg">
<path fill-rule="evenodd" clip-rule="evenodd" d="M5.3657 0.956118C5.38723 0.955989 5.41082 0.955587 5.43628 0.955153C5.93697 0.946622 7.16058 0.925772 7.69374 2.72735C8.07115 4.00261 8.67233 6.09155 9.4973 8.99416H9.83327C10.718 5.93402 11.3257 3.84509 11.6565 2.72735C12.1887 0.928924 13.4715 0.946555 14.0936 0.955104C14.1332 0.955648 14.1701 0.956156 14.204 0.956156L18.5717 0.956161V14.5589H14.12V6.54258H13.8215L11.3399 14.5589H7.99064L5.50907 6.53664H5.21055V14.5589H0.758911V0.956161L5.3657 0.956118ZM24.9641 0.956391V8.97869H25.3192L28.3378 2.38201C28.9238 1.06925 30.1727 0.956391 30.1727 0.956391H34.4805V14.5592H29.9359V6.53687H29.5808L26.6214 13.1335C26.0354 14.4404 24.7274 14.5592 24.7274 14.5592H20.4195V0.956391H24.9641ZM45.36 10.5069C47.5641 10.5069 49.5549 9.21881 50.1888 7.42027H36.2724V14.5589H40.5941V10.5069H45.36Z" fill="white"/>
<path d="M45.5687 0.956299H36.046C36.2727 3.98474 38.8776 6.57728 41.5742 6.57728H50.4893C51.0038 4.06029 49.2327 0.956299 45.5687 0.956299Z" fill="#C4C4C4"/>
</svg>
