<svg width="39" height="30" viewBox="0 0 39 30" fill="none" xmlns="http://www.w3.org/2000/svg">
<path fill-rule="evenodd" clip-rule="evenodd" d="M11.3389 26.7322V28.2867V29.8411H10.6584V29.4637C10.4426 29.7436 10.1151 29.9193 9.66989 29.9193C8.7923 29.9193 8.10431 29.2366 8.10431 28.2867C8.10431 27.3375 8.7923 26.6541 9.66989 26.6541C10.1151 26.6541 10.4426 26.8297 10.6584 27.1097V26.7322H11.3389ZM9.75457 27.2913C9.16552 27.2913 8.80504 27.7402 8.80504 28.2867C8.80504 28.8331 9.16552 29.282 9.75457 29.282C10.3174 29.282 10.6974 28.8525 10.6974 28.2867C10.6974 27.7209 10.3174 27.2913 9.75457 27.2913ZM34.3347 28.2867C34.3347 27.7402 34.6951 27.2913 35.2842 27.2913C35.8478 27.2913 36.227 27.7209 36.227 28.2867C36.227 28.8525 35.8478 29.282 35.2842 29.282C34.6951 29.282 34.3347 28.8331 34.3347 28.2867ZM36.8692 25.4837V28.2867V29.8411H36.188V29.4637C35.9722 29.7436 35.6447 29.9193 35.1995 29.9193C34.3219 29.9193 33.6339 29.2366 33.6339 28.2867C33.6339 27.3375 34.3219 26.6541 35.1995 26.6541C35.6447 26.6541 35.9722 26.8297 36.188 27.1097V25.4837H36.8692ZM19.7857 27.2593C20.2241 27.2593 20.5059 27.5326 20.5779 28.0135H18.9538C19.0265 27.5646 19.3008 27.2593 19.7857 27.2593ZM18.2403 28.2867C18.2403 27.3174 18.8819 26.6541 19.7992 26.6541C20.676 26.6541 21.2786 27.3174 21.2853 28.2867C21.2853 28.3775 21.2786 28.4624 21.2718 28.5465H18.9478C19.046 29.1063 19.4454 29.3081 19.8839 29.3081C20.1979 29.3081 20.5321 29.1905 20.7944 28.9828L21.1279 29.4838C20.748 29.8024 20.3163 29.9193 19.8449 29.9193C18.9081 29.9193 18.2403 29.2753 18.2403 28.2867ZM28.0161 28.2867C28.0161 27.7402 28.3766 27.2913 28.9656 27.2913C29.5285 27.2913 29.9084 27.7209 29.9084 28.2867C29.9084 28.8525 29.5285 29.282 28.9656 29.282C28.3766 29.282 28.0161 28.8331 28.0161 28.2867ZM30.5499 26.7322V28.2867V29.8411H29.8695V29.4637C29.6529 29.7436 29.3261 29.9193 28.8809 29.9193C28.0034 29.9193 27.3154 29.2366 27.3154 28.2867C27.3154 27.3375 28.0034 26.6541 28.8809 26.6541C29.3261 26.6541 29.6529 26.8297 29.8695 27.1097V26.7322H30.5499ZM24.1729 28.2867C24.1729 29.2299 24.8339 29.9193 25.8427 29.9193C26.3141 29.9193 26.6281 29.8151 26.9683 29.5486L26.6416 29.0021C26.386 29.1845 26.1177 29.282 25.8224 29.282C25.2791 29.2753 24.8796 28.8852 24.8796 28.2867C24.8796 27.6881 25.2791 27.298 25.8224 27.2913C26.1177 27.2913 26.386 27.3888 26.6416 27.5712L26.9683 27.0248C26.6281 26.7583 26.3141 26.6541 25.8427 26.6541C24.8339 26.6541 24.1729 27.3434 24.1729 28.2867ZM32.1214 27.1095C32.2982 26.8363 32.5538 26.6539 32.9465 26.6539C33.0844 26.6539 33.2807 26.6799 33.4314 26.7388L33.2215 27.376C33.0776 27.3172 32.9338 27.2979 32.7959 27.2979C32.3507 27.2979 32.1281 27.5837 32.1281 28.0982V29.841H31.4469V26.7321H32.1214V27.1095ZM14.7044 26.9794C14.3769 26.765 13.9258 26.6541 13.4281 26.6541C12.6352 26.6541 12.1249 27.0315 12.1249 27.6494C12.1249 28.1564 12.5048 28.4691 13.2048 28.5666L13.5263 28.612C13.8995 28.6641 14.0757 28.7617 14.0757 28.9374C14.0757 29.1778 13.8268 29.3148 13.3622 29.3148C12.8908 29.3148 12.5506 29.1652 12.3212 28.9895L12.0005 29.5158C12.3737 29.789 12.8451 29.9193 13.3555 29.9193C14.2593 29.9193 14.7831 29.4965 14.7831 28.9046C14.7831 28.3582 14.3709 28.0723 13.6897 27.9747L13.3689 27.9286C13.0744 27.8899 12.8383 27.8318 12.8383 27.6234C12.8383 27.3955 13.0609 27.2593 13.4341 27.2593C13.8336 27.2593 14.2203 27.4089 14.4099 27.5258L14.7044 26.9794ZM22.6605 27.1095C22.8367 26.8363 23.0922 26.6539 23.4849 26.6539C23.6228 26.6539 23.8192 26.6799 23.9698 26.7388L23.76 27.376C23.6161 27.3172 23.4722 27.2979 23.3343 27.2979C22.8891 27.2979 22.6665 27.5837 22.6665 28.0982V29.841H21.986V26.7321H22.6605V27.1095ZM17.6775 26.7322H16.5646V25.789H15.8766V26.7322H15.2418V27.3501H15.8766V28.7684C15.8766 29.4898 16.1584 29.9193 16.9633 29.9193C17.2585 29.9193 17.5988 29.8285 17.8146 29.6788L17.6183 29.0996C17.4152 29.2165 17.1926 29.2753 17.0157 29.2753C16.6755 29.2753 16.5646 29.0669 16.5646 28.755V27.3501H17.6775V26.7322ZM7.50246 27.8889V29.8402H6.81447V28.1101C6.81447 27.583 6.59189 27.2904 6.12724 27.2904C5.67533 27.2904 5.36132 27.577 5.36132 28.1168V29.8402H4.67333V28.1101C4.67333 27.583 4.44476 27.2904 3.99285 27.2904C3.52745 27.2904 3.22617 27.577 3.22617 28.1168V29.8402H2.53894L2.53894 26.7313H3.22018V27.1147C3.47574 26.7506 3.80249 26.6531 4.13674 26.6531C4.61488 26.6531 4.95512 26.8616 5.17096 27.2063C5.45949 26.77 5.87168 26.6464 6.27113 26.6531C7.03106 26.6598 7.50246 27.1542 7.50246 27.8889Z" fill="white"/>
<path d="M24.7926 21.4495H14.4789V3.03717H24.7926V21.4495Z" fill="#E8E8E8"/>
<path d="M15.1333 12.2434C15.1333 8.50841 16.8937 5.18135 19.6351 3.03727C17.6304 1.46941 15.1003 0.533609 12.3506 0.533609C5.84099 0.533609 0.564209 5.77619 0.564209 12.2434C0.564209 18.7107 5.84099 23.9532 12.3506 23.9532C15.1003 23.9532 17.6304 23.0174 19.6351 21.4496C16.8937 19.3055 15.1333 15.9785 15.1333 12.2434Z" fill="white"/>
<path d="M38.7068 12.2434C38.7068 18.7107 33.43 23.9532 26.9204 23.9532C24.1707 23.9532 21.6406 23.0174 19.6351 21.4496C22.3773 19.3055 24.1377 15.9785 24.1377 12.2434C24.1377 8.50841 22.3773 5.18135 19.6351 3.03727C21.6406 1.46941 24.1707 0.533609 26.9204 0.533609C33.43 0.533609 38.7068 5.77619 38.7068 12.2434Z" fill="#C4C4C4"/>
</svg>
