<svg width="20" height="15" viewBox="0 0 20 15" fill="none" xmlns="http://www.w3.org/2000/svg">
<path d="M19.8875 4.99736C19.7917 4.8805 19.6487 4.8123 19.4988 4.8123H17.5925C17.1221 3.57154 16.5092 2.35587 15.8126 1.89698C13.4028 0.311684 7.01101 0.311684 4.60122 1.89698C3.90411 2.35637 3.29376 3.57355 2.82083 4.8123H0.914567C0.763109 4.8123 0.620678 4.8805 0.525891 4.99736C0.430603 5.11371 0.392488 5.26767 0.423582 5.41562L0.705936 6.78376C0.754081 7.01697 0.959703 7.18347 1.19692 7.18347H1.76163C1.21648 7.81237 0.952181 8.60427 0.94867 9.39666C0.945159 10.3756 1.31678 11.2603 1.99634 11.8862C2.00386 11.8927 2.01138 11.8972 2.01841 11.9037V13.818C2.01841 14.2328 2.35543 14.5703 2.77068 14.5703H4.529C4.94426 14.5703 5.28127 14.2328 5.28127 13.818V13.0487H15.1316V13.818C15.1316 14.2328 15.4686 14.5703 15.8838 14.5703H17.6422C18.0564 14.5703 18.3944 14.2328 18.3944 13.818V11.9414C19.1156 11.2809 19.4602 10.3721 19.4647 9.46487C19.4677 8.64539 19.1913 7.82441 18.6141 7.18247H19.2164C19.4546 7.18247 19.6603 7.01596 19.7074 6.78226L19.9903 5.41462C20.0194 5.26767 19.9827 5.11471 19.8875 4.99736ZM5.42722 3.15328C7.34803 1.88895 13.0648 1.88895 14.9846 3.15328C15.3578 3.39802 15.8377 4.38751 16.2775 5.59918H4.13531C4.57414 4.38801 5.05409 3.39902 5.42722 3.15328ZM3.17741 9.58523C3.17741 8.76776 3.84042 8.10576 4.65739 8.10576C5.47536 8.10576 6.13736 8.76776 6.13736 9.58523C6.13736 10.4027 5.47536 11.0652 4.65739 11.0652C3.84042 11.0652 3.17741 10.4027 3.17741 9.58523ZM15.775 11.0652C14.958 11.0652 14.295 10.4027 14.295 9.58523C14.295 8.76776 14.958 8.10576 15.775 8.10576C16.593 8.10576 17.255 8.76776 17.255 9.58523C17.255 10.4027 16.592 11.0652 15.775 11.0652Z" fill="#E42A2C"/>
</svg>
