<svg width="20" height="20" viewBox="0 0 20 20" fill="none" xmlns="http://www.w3.org/2000/svg">
<path d="M19.9372 8.88981C19.9056 8.60871 19.5777 8.39724 19.2942 8.39724C18.3779 8.39724 17.5646 7.85942 17.2236 7.02701C16.8755 6.17463 17.1001 5.18074 17.7828 4.55444C17.9978 4.35784 18.024 4.02865 17.8438 3.80014C17.3746 3.20455 16.8416 2.66647 16.2595 2.20019C16.0318 2.01752 15.6972 2.04295 15.4995 2.26169C14.9035 2.9218 13.8328 3.1671 13.0054 2.8219C12.1447 2.45976 11.6014 1.5873 11.6548 0.650844C11.6723 0.356509 11.4571 0.100749 11.1638 0.0665844C10.4168 -0.0199085 9.66315 -0.0224168 8.91394 0.0607029C8.62436 0.0927052 8.40934 0.34241 8.41894 0.633026C8.45137 1.56032 7.90196 2.41738 7.04956 2.76655C6.23211 3.1005 5.16884 2.85702 4.57402 2.2027C4.37741 1.98716 4.04865 1.96069 3.81936 2.13947C3.22012 2.60974 2.67512 3.14815 2.20166 3.7389C2.01716 3.96854 2.04441 4.30136 2.26125 4.49865C2.95744 5.1291 3.18189 6.13155 2.82044 6.99389C2.47532 7.816 1.62171 8.3456 0.64459 8.3456C0.327503 8.33539 0.10184 8.54842 0.0668097 8.83679C-0.0210683 9.58781 -0.0220197 10.3534 0.0625715 11.1106C0.0941418 11.3929 0.431728 11.6026 0.71837 11.6026C1.58936 11.5804 2.42507 12.1193 2.77615 12.9727C3.1255 13.8251 2.90061 14.8186 2.21679 15.4457C2.00289 15.6423 1.97556 15.9707 2.15616 16.199C2.62055 16.7909 3.15404 17.3293 3.73788 17.7995C3.96709 17.9841 4.30044 17.9582 4.49911 17.7392C5.09748 17.0776 6.16802 16.8327 6.99204 17.1786C7.85525 17.5398 8.39826 18.4122 8.34524 19.3489C8.32786 19.6432 8.54357 19.8998 8.83584 19.9331C9.21814 19.9779 9.60244 20 9.98794 20C10.3538 20 10.7198 19.98 11.0857 19.9393C11.3757 19.9073 11.5903 19.6573 11.5806 19.3666C11.5471 18.4398 12.0977 17.5826 12.9491 17.2341C13.772 16.898 14.8305 17.144 15.4256 17.7974C15.6233 18.0125 15.9501 18.0386 16.1803 17.8605C16.7785 17.3915 17.3225 16.8533 17.798 16.261C17.9827 16.0318 17.9565 15.6985 17.7384 15.5009C17.0424 14.8709 16.8167 13.868 17.1782 13.0065C17.5179 12.1955 18.3398 11.6509 19.2238 11.6509L19.3475 11.6542C19.6344 11.6775 19.8982 11.4565 19.9329 11.1637C20.0212 10.412 20.0221 9.64723 19.9372 8.88981ZM9.99996 15.7651C6.81586 15.7651 4.23479 13.1841 4.23479 10.0001C4.23479 6.81614 6.81594 4.23511 9.99996 4.23511C13.184 4.23511 15.7651 6.81614 15.7651 10.0001C15.7651 11.0809 15.4672 12.0917 14.9497 12.9561L12.4253 10.4316C12.608 10.0007 12.7045 9.53358 12.7045 9.05147C12.7045 8.1074 12.3368 7.21989 11.6691 6.55243C11.0016 5.88496 10.1141 5.51737 9.17023 5.51737C8.85521 5.51737 8.54167 5.55923 8.23834 5.64183C8.10548 5.67807 7.99685 5.78757 7.96147 5.92068C7.92531 6.05682 7.96605 6.19634 8.07244 6.30281C8.07244 6.30281 9.31873 7.55869 9.73572 7.97558C9.7794 8.01926 9.77932 8.12349 9.77318 8.16102L9.76928 8.18844C9.72725 8.64685 9.6462 9.19712 9.57934 9.4086C9.57035 9.41751 9.56187 9.42503 9.5527 9.4342C9.5431 9.4438 9.53428 9.45305 9.52502 9.46257C9.31078 9.53133 8.75203 9.61333 8.28634 9.65501L8.28643 9.65251L8.2655 9.65778C8.26178 9.65822 8.25486 9.65873 8.24569 9.65873C8.19535 9.65873 8.12131 9.64464 8.05402 9.57743C7.61999 9.14341 6.42257 7.95457 6.42257 7.95457C6.31514 7.84749 6.20495 7.825 6.13151 7.825C5.96034 7.825 5.80708 7.94868 5.75881 8.12608C5.42918 9.34589 5.77862 10.658 6.67098 11.5504C7.33863 12.218 8.22623 12.5856 9.17031 12.5856C9.65243 12.5856 10.1196 12.4891 10.5504 12.3064L13.1022 14.8582C12.2063 15.4314 11.1425 15.7651 9.99996 15.7651Z" fill="#E42A2C"/>
</svg>
