<svg width="27" height="16" viewBox="0 0 27 16" fill="none" xmlns="http://www.w3.org/2000/svg">
<path d="M25.9487 14.0233C25.9487 13.9208 25.8461 13.9208 25.8461 13.8182C25.4359 12.9977 24.5128 11.9722 23.2822 10.844C22.6668 10.3312 22.3591 9.921 22.154 9.71589C21.8463 9.30566 21.8464 8.99799 21.9489 8.58776C22.0515 8.28009 22.4617 7.76729 23.1796 6.84427C23.5898 6.33148 23.7949 6.02382 24.1026 5.71614C25.641 3.66499 26.3589 2.33173 26.1538 1.71638L26.0512 1.61383C25.9487 1.51128 25.8461 1.40872 25.641 1.40872C25.4359 1.30616 25.1282 1.30616 24.8205 1.40872H20.9233C20.8208 1.40872 20.8208 1.40872 20.6156 1.40872C20.5131 1.40872 20.4105 1.40872 20.4105 1.40872H20.308H20.2054L20.1029 1.51127C20.0003 1.61383 20.0003 1.61382 20.0003 1.71638C19.5901 2.84452 19.0773 3.76754 18.5645 4.79311C18.2568 5.3059 17.9491 5.8187 17.6415 6.22893C17.3338 6.63916 17.1287 6.94683 16.9236 7.15195C16.7184 7.35706 16.5133 7.45962 16.4108 7.66473C16.3082 7.76729 16.1031 7.86986 16.1031 7.7673C16.0006 7.7673 15.898 7.76729 15.898 7.66473C15.7954 7.56218 15.6929 7.45962 15.5903 7.35706C15.4878 7.2545 15.4878 7.04938 15.3852 6.84427C15.3852 6.63915 15.3852 6.43404 15.3852 6.33148C15.3852 6.22892 15.3852 5.92126 15.3852 5.71614C15.3852 5.40847 15.3852 5.20335 15.3852 5.10079C15.3852 4.79312 15.3852 4.3829 15.3852 3.97267C15.3852 3.56243 15.3852 3.25475 15.3852 3.04964C15.3852 2.84452 15.3852 2.53685 15.3852 2.33174C15.3852 2.02406 15.3852 1.81894 15.3852 1.71638C15.3852 1.61382 15.2827 1.40872 15.2827 1.30616C15.1801 1.2036 15.0775 1.10104 14.975 0.998482C14.8724 0.895924 14.6673 0.895927 14.5647 0.793369C14.052 0.690811 13.4366 0.588257 12.7187 0.588257C11.0778 0.588257 9.94965 0.690818 9.53942 0.895933C9.33431 0.998491 9.12919 1.10104 9.02663 1.30616C8.82152 1.51127 8.82151 1.61383 8.92407 1.61383C9.43686 1.71639 9.84709 1.9215 10.0522 2.22917L10.1548 2.4343C10.2573 2.53686 10.2573 2.74196 10.3599 3.04964C10.4624 3.35731 10.4624 3.66498 10.4624 4.07521C10.4624 4.69056 10.4624 5.30591 10.4624 5.71614C10.4624 6.22893 10.3599 6.5366 10.3599 6.84427C10.3599 7.15194 10.2573 7.35706 10.1548 7.45962C10.0522 7.66474 10.0522 7.7673 9.94965 7.7673C9.94965 7.7673 9.94964 7.86985 9.84708 7.86985C9.74452 7.86985 9.64197 7.97241 9.43686 7.97241C9.3343 7.97241 9.12919 7.86986 9.02663 7.7673C8.82152 7.66474 8.6164 7.45962 8.51384 7.25451C8.30873 7.04939 8.10361 6.74171 7.89849 6.33148C7.69338 5.92125 7.38569 5.51102 7.18057 4.89568L6.97548 4.48545C6.87292 4.28034 6.6678 3.8701 6.46269 3.35731C6.25757 2.84452 6.05245 2.4343 5.84734 1.92151C5.74478 1.7164 5.64223 1.61383 5.53968 1.51127H5.43711C5.43711 1.51127 5.33454 1.40872 5.23198 1.40872C5.12943 1.40872 5.02688 1.30616 4.92432 1.30616H1.23224C0.822008 1.30616 0.616895 1.40871 0.514338 1.51127L0.411774 1.61383C0.411774 1.61383 0.411774 1.71639 0.411774 1.81895C0.411774 1.9215 0.41178 2.02406 0.514338 2.22917C1.02713 3.45986 1.64247 4.69056 2.25782 5.92126C2.87316 7.04939 3.48851 8.07497 3.89875 8.79288C4.41153 9.51078 4.82176 10.2287 5.33455 10.844C5.84734 11.4594 6.155 11.8696 6.25756 12.0747C6.46268 12.2798 6.56523 12.3824 6.66779 12.4849L6.97548 12.7926C7.18059 12.9977 7.48826 13.3054 7.89849 13.6131C8.30872 13.9208 8.8215 14.2284 9.33429 14.5361C9.84708 14.8438 10.4624 15.0489 11.0778 15.254C11.7957 15.4591 12.411 15.5617 13.0264 15.4591H14.5647C14.8724 15.4591 15.0775 15.3566 15.2827 15.1515L15.3852 15.0489C15.3852 14.9463 15.4878 14.9463 15.4878 14.8438C15.4878 14.7412 15.4878 14.6387 15.4878 14.4336C15.4878 14.0233 15.4878 13.7156 15.5903 13.408C15.6929 13.1003 15.6929 12.8952 15.7954 12.6901C15.898 12.485 16.0006 12.3824 16.1031 12.2798C16.2057 12.1773 16.3082 12.0747 16.3082 12.0747H16.4108C16.6159 11.9722 16.9236 12.0747 17.1287 12.2798C17.4364 12.4849 17.744 12.7926 17.9491 13.1003C18.1543 13.408 18.462 13.7156 18.8722 14.1259C19.2824 14.5361 19.5901 14.8438 19.7952 14.9463L20.1029 15.1515C20.308 15.254 20.5131 15.3566 20.8208 15.4591C21.1284 15.5617 21.3335 15.5617 21.5387 15.5617L25.0256 15.4591C25.3333 15.4591 25.641 15.3566 25.8461 15.254C26.0512 15.1515 26.1538 15.0489 26.1538 14.8438C26.1538 14.7412 26.1538 14.5361 26.1538 14.4336C25.9486 14.2284 25.9487 14.1259 25.9487 14.0233Z" fill="white"/>
</svg>
