<svg width="20" height="19" viewBox="0 0 20 19" fill="none" xmlns="http://www.w3.org/2000/svg">
<path d="M16.6571 0.352966H3.40148C1.90487 0.352966 0.764603 1.49324 0.764603 2.98984V16.2455C0.764603 17.7421 1.90487 18.8824 3.40148 18.8824H16.6571C18.1537 18.8824 19.294 17.7421 19.294 16.2455V2.98984C19.294 1.49324 18.1537 0.352966 16.6571 0.352966ZM10.0293 15.1765C13.0938 15.1765 15.5881 12.7534 15.5881 9.83147C15.5881 9.3326 15.5169 8.76247 15.3743 8.33487H16.9422V15.8892C16.9422 16.2455 16.6571 16.6018 16.2295 16.6018H3.82908C3.47275 16.6018 3.11641 16.3168 3.11641 15.8892V8.2636H4.75556C4.61302 8.76247 4.54175 9.26134 4.54175 9.76021C4.47049 12.7534 6.96483 15.1765 10.0293 15.1765ZM10.0293 13.0385C8.03383 13.0385 6.46596 11.4706 6.46596 9.54641C6.46596 7.6222 8.03383 6.05432 10.0293 6.05432C12.0248 6.05432 13.5927 7.6222 13.5927 9.54641C13.5927 11.5419 12.0248 13.0385 10.0293 13.0385ZM16.8709 5.41292C16.8709 5.84052 16.5146 6.19686 16.087 6.19686H14.0915C13.6639 6.19686 13.3076 5.84052 13.3076 5.41292V3.48871C13.3076 3.06111 13.6639 2.70478 14.0915 2.70478H16.087C16.5146 2.70478 16.8709 3.06111 16.8709 3.48871V5.41292Z" fill="white"/>
</svg>
