<svg width="23" height="17" viewBox="0 0 23 17" fill="none" xmlns="http://www.w3.org/2000/svg">
<path d="M22.7877 6.65741C22.7877 6.17827 22.7079 5.61927 22.7079 4.98041C22.628 4.34155 22.5481 3.70269 22.4683 3.14369C22.3086 2.50483 22.069 2.02569 21.5898 1.62641C21.1905 1.22712 20.6315 0.987539 20.0725 0.907682C18.2358 0.668109 15.5207 0.588257 11.8472 0.588257C8.1738 0.588257 5.37878 0.668109 3.62192 0.907682C3.06291 0.987539 2.50392 1.22712 2.10463 1.62641C1.70534 2.02569 1.38591 2.50483 1.22619 3.14369C1.06648 3.70269 0.986631 4.2617 0.986631 4.98041C0.906774 5.61927 0.906769 6.17827 0.906769 6.65741C0.906769 7.13656 0.906769 7.69556 0.906769 8.49413C0.906769 9.29271 0.906769 9.93157 0.906769 10.3309C0.906769 10.81 0.986631 11.369 0.986631 12.0079C1.06649 12.6467 1.14634 13.2856 1.22619 13.8446C1.38591 14.4834 1.62549 14.9626 2.10463 15.3619C2.50392 15.7612 3.06291 16.0007 3.62192 16.0806C5.45864 16.3202 8.1738 16.4 11.8472 16.4C15.5207 16.4 18.3157 16.3202 20.0725 16.0806C20.6315 16.0007 21.1905 15.7612 21.5898 15.3619C21.9891 14.9626 22.3086 14.4834 22.4683 13.8446C22.628 13.2856 22.7079 12.7266 22.7079 12.0079C22.7877 11.369 22.7877 10.81 22.7877 10.3309C22.7877 9.85171 22.7877 9.29271 22.7877 8.49413C22.7877 7.69556 22.7877 7.0567 22.7877 6.65741ZM16.0797 9.133L9.77095 13.046C9.69109 13.1259 9.53137 13.2057 9.37166 13.2057C9.21194 13.2057 9.13209 13.2057 8.97237 13.1259C8.7328 12.9662 8.57308 12.7266 8.57308 12.4072V4.50126C8.57308 4.18184 8.7328 3.94227 8.97237 3.78255C9.21194 3.62284 9.53137 3.62284 9.77095 3.78255L16.0797 7.69556C16.3192 7.85528 16.479 8.09485 16.479 8.33442C16.479 8.57399 16.3192 8.97328 16.0797 9.133Z" fill="white"/>
</svg>
