<svg width="259" height="330" viewBox="0 0 259 330" fill="none" xmlns="http://www.w3.org/2000/svg">
<g opacity="0.4">
<path d="M-8.03711 298.797L-6.60619 307.298L-0.782498 307.318L0.688439 298.827" stroke="#F6FFFF" stroke-width="3.48988" stroke-miterlimit="10" stroke-linecap="round" stroke-linejoin="round"/>
<path d="M0.687988 298.826C1.35841 298.716 2.02885 298.596 2.69928 298.436C2.72929 298.436 2.75931 298.426 2.78933 298.416C2.93942 298.386 3.08952 298.346 3.22961 298.316C3.26964 298.306 3.29966 298.296 3.33968 298.286C3.43975 298.256 3.54981 298.236 3.64988 298.206C3.75995 298.176 3.86 298.146 3.97007 298.116C4.15019 298.066 4.3303 298.016 4.50041 297.966C4.53043 297.956 4.55044 297.946 4.58046 297.946C4.59047 297.946 4.59047 297.936 4.60048 297.936C5.25089 297.736 5.9013 297.516 6.5317 297.276" stroke="#F6FFFF" stroke-width="3.48988" stroke-miterlimit="10" stroke-linecap="round" stroke-linejoin="round"/>
<path d="M6.53223 297.276L12.0157 303.927L17.0689 301.037L14.107 292.935" stroke="#F6FFFF" stroke-width="3.48988" stroke-miterlimit="10" stroke-linecap="round" stroke-linejoin="round"/>
<path d="M14.1064 292.935C14.6368 292.515 15.1471 292.075 15.6474 291.605C15.6574 291.605 15.6574 291.595 15.6674 291.595C15.6874 291.575 15.7074 291.555 15.7275 291.535C15.8575 291.415 15.9976 291.285 16.1277 291.155C16.2078 291.075 16.2778 291.005 16.3579 290.925C16.4379 290.845 16.518 290.775 16.588 290.695C16.618 290.665 16.648 290.645 16.668 290.615C16.7781 290.505 16.8782 290.405 16.9782 290.295C16.9983 290.265 17.0183 290.245 17.0483 290.225C17.5186 289.725 17.9589 289.205 18.3891 288.685" stroke="#F6FFFF" stroke-width="3.48988" stroke-miterlimit="10" stroke-linecap="round" stroke-linejoin="round"/>
<path d="M18.3892 288.685L26.4643 291.705L29.3961 286.664L22.7719 281.143" stroke="#F6FFFF" stroke-width="3.48988" stroke-miterlimit="10" stroke-linecap="round" stroke-linejoin="round"/>
<path d="M22.7725 281.143C23.0226 280.513 23.2528 279.863 23.4529 279.213C23.4629 279.183 23.4729 279.153 23.4829 279.123C23.5329 278.943 23.583 278.763 23.633 278.583C23.663 278.483 23.6931 278.373 23.7231 278.273C23.7431 278.183 23.7731 278.103 23.7931 278.013C23.7931 278.003 23.7931 277.993 23.8031 277.983C23.8031 277.973 23.8031 277.963 23.8131 277.953C23.8532 277.773 23.9032 277.593 23.9432 277.413C23.9532 277.383 23.9532 277.353 23.9632 277.323C24.1233 276.653 24.2534 275.982 24.3635 275.312" stroke="#F6FFFF" stroke-width="3.48988" stroke-miterlimit="10" stroke-linecap="round" stroke-linejoin="round"/>
<path d="M24.3638 275.312L32.8691 273.892L32.8791 268.071L24.3838 266.591" stroke="#F6FFFF" stroke-width="3.48988" stroke-miterlimit="10" stroke-linecap="round" stroke-linejoin="round"/>
<path d="M24.3833 266.591C24.2832 265.921 24.1531 265.251 24.003 264.58C24.003 264.55 23.993 264.52 23.983 264.49C23.943 264.31 23.903 264.13 23.8529 263.95C23.8229 263.84 23.7929 263.73 23.7729 263.63C23.7429 263.52 23.7128 263.42 23.6828 263.31C23.6328 263.13 23.5828 262.96 23.5327 262.78C23.5227 262.75 23.5127 262.72 23.5027 262.69C23.3026 262.03 23.0824 261.39 22.8423 260.75" stroke="#F6FFFF" stroke-width="3.48988" stroke-miterlimit="10" stroke-linecap="round" stroke-linejoin="round"/>
<path d="M22.8423 260.75L29.4965 255.269L26.5946 250.218L18.4995 253.188" stroke="#F6FFFF" stroke-width="3.48988" stroke-miterlimit="10" stroke-linecap="round" stroke-linejoin="round"/>
<path d="M18.4993 253.188C18.079 252.658 17.6287 252.138 17.1684 251.638C17.1484 251.618 17.1284 251.588 17.0984 251.568C16.9783 251.428 16.8482 251.298 16.7182 251.158C16.6381 251.088 16.5681 251.008 16.488 250.928C16.408 250.858 16.3379 250.778 16.2579 250.698C16.1278 250.568 15.9877 250.438 15.8576 250.318C15.8276 250.288 15.8076 250.268 15.7776 250.248C15.2872 249.778 14.7669 249.328 14.2466 248.898" stroke="#F6FFFF" stroke-width="3.48988" stroke-miterlimit="10" stroke-linecap="round" stroke-linejoin="round"/>
<path d="M14.2469 248.898L17.2588 240.826L12.2257 237.896L6.70215 244.517" stroke="#F6FFFF" stroke-width="3.48988" stroke-miterlimit="10" stroke-linecap="round" stroke-linejoin="round"/>
<path d="M6.7024 244.517C6.07199 244.267 5.42157 244.047 4.77115 243.837C4.74113 243.837 4.71111 243.827 4.68109 243.817C4.50098 243.757 4.32086 243.707 4.14074 243.657C4.04068 243.627 3.93061 243.597 3.83054 243.567C3.72047 243.537 3.62042 243.517 3.51035 243.487C3.33023 243.437 3.15011 243.397 2.96999 243.347C2.93997 243.347 2.90996 243.337 2.86994 243.327C2.20951 243.167 1.53908 243.037 0.868652 242.937" stroke="#F6FFFF" stroke-width="3.48988" stroke-miterlimit="10" stroke-linecap="round" stroke-linejoin="round"/>
<path d="M0.8686 242.937L-0.552299 234.435L-6.376 234.415L-7.85693 242.907" stroke="#F6FFFF" stroke-width="3.48988" stroke-miterlimit="10" stroke-linecap="round" stroke-linejoin="round"/>
<path d="M-7.61719 280.553C-6.38641 281.073 -5.03555 281.353 -3.61465 281.363C-2.19375 281.363 -0.842892 281.083 0.387888 280.583" stroke="#F6FFFF" stroke-width="3.48988" stroke-miterlimit="10" stroke-linecap="round" stroke-linejoin="round"/>
<path d="M0.387695 280.583L6.68169 291.545" stroke="#F6FFFF" stroke-width="3.48988" stroke-miterlimit="10" stroke-linecap="round" stroke-linejoin="round"/>
<path d="M6.68227 291.545C3.64032 293.045 0.308183 293.866 -3.08398 293.946" stroke="#F6FFFF" stroke-width="3.48988" stroke-miterlimit="10" stroke-linecap="round" stroke-linejoin="round"/>
<path d="M-3.56483 263.29C0.61782 263.31 3.99997 266.711 3.98996 270.891C3.97996 275.062 0.567795 278.443 -3.60485 278.433C-7.7875 278.423 -11.1697 275.012 -11.1596 270.841C-11.1396 266.671 -7.73748 263.28 -3.56483 263.29V263.29Z" stroke="#F6FFFF" stroke-width="3.48988" stroke-miterlimit="10" stroke-linecap="round" stroke-linejoin="round"/>
<path d="M1.61865 279.983C1.62858 279.973 1.64841 279.963 1.65834 279.953C1.64841 279.963 1.62858 279.973 1.61865 279.983Z" stroke="#F6FFFF" stroke-width="3.48988" stroke-miterlimit="10" stroke-linecap="round" stroke-linejoin="round"/>
<path d="M16.6683 281.973C16.6483 282.003 16.6383 282.033 16.6183 282.073C16.5482 282.193 16.4682 282.324 16.3981 282.454C16.3081 282.594 16.228 282.734 16.148 282.874C16.128 282.904 16.1079 282.934 16.0879 282.964C14.3068 285.844 11.9153 288.315 9.0835 290.165" stroke="#F6FFFF" stroke-width="3.48988" stroke-miterlimit="10" stroke-linecap="round" stroke-linejoin="round"/>
<path d="M9.0833 290.165L2.79932 279.203" stroke="#F6FFFF" stroke-width="3.48988" stroke-miterlimit="10" stroke-linecap="round" stroke-linejoin="round"/>
<path d="M2.79932 279.203C4.94068 277.553 6.44163 275.092 6.82188 272.282" stroke="#F6FFFF" stroke-width="3.48988" stroke-miterlimit="10" stroke-linecap="round" stroke-linejoin="round"/>
<path d="M6.82227 272.282L19.4703 272.322" stroke="#F6FFFF" stroke-width="3.48988" stroke-miterlimit="10" stroke-linecap="round" stroke-linejoin="round"/>
<path d="M19.4703 272.322C19.2501 275.702 18.2995 279.003 16.6685 281.973" stroke="#F6FFFF" stroke-width="3.48988" stroke-miterlimit="10" stroke-linecap="round" stroke-linejoin="round"/>
<path d="M6.89209 271.642C6.89209 271.622 6.89209 271.592 6.89209 271.562C6.89209 271.592 6.89209 271.622 6.89209 271.642Z" stroke="#F6FFFF" stroke-width="3.48988" stroke-miterlimit="10" stroke-linecap="round" stroke-linejoin="round"/>
<path d="M9.20361 251.638C12.0254 253.519 14.4069 255.989 16.1681 258.879C16.1881 258.92 16.2081 258.95 16.2281 258.98C16.3081 259.12 16.3882 259.26 16.4682 259.4C16.5383 259.53 16.6183 259.66 16.6884 259.79C16.7084 259.82 16.7184 259.85 16.7384 259.89C18.3495 262.87 19.28 266.171 19.4802 269.551" stroke="#F6FFFF" stroke-width="3.48988" stroke-miterlimit="10" stroke-linecap="round" stroke-linejoin="round"/>
<path d="M19.4806 269.551L6.83252 269.511" stroke="#F6FFFF" stroke-width="3.48988" stroke-miterlimit="10" stroke-linecap="round" stroke-linejoin="round"/>
<path d="M6.83263 269.511C6.46239 266.691 4.99146 264.23 2.8501 262.57" stroke="#F6FFFF" stroke-width="3.48988" stroke-miterlimit="10" stroke-linecap="round" stroke-linejoin="round"/>
<path d="M2.8501 262.57L9.20411 251.638" stroke="#F6FFFF" stroke-width="3.48988" stroke-miterlimit="10" stroke-linecap="round" stroke-linejoin="round"/>
<path d="M6.90213 270.232C6.8921 270.202 6.89209 270.172 6.89209 270.151C6.89209 270.172 6.8921 270.202 6.90213 270.232Z" stroke="#F6FFFF" stroke-width="3.48988" stroke-miterlimit="10" stroke-linecap="round" stroke-linejoin="round"/>
<path d="M1.67871 261.78C1.68875 261.79 1.70882 261.8 1.71885 261.8C1.70882 261.8 1.68875 261.79 1.67871 261.78Z" stroke="#F6FFFF" stroke-width="3.48988" stroke-miterlimit="10" stroke-linecap="round" stroke-linejoin="round"/>
<path d="M-13.8408 250.178C-10.8089 248.678 -7.4768 247.857 -4.08465 247.777C-4.05464 247.777 -4.01461 247.777 -3.97458 247.777C-3.81448 247.777 -3.65438 247.777 -3.48427 247.777C-3.34418 247.777 -3.19408 247.777 -3.04399 247.777C-3.01397 247.777 -2.97394 247.777 -2.93392 247.777C0.44822 247.877 3.78033 248.728 6.81225 250.248" stroke="#F6FFFF" stroke-width="3.48988" stroke-miterlimit="10" stroke-linecap="round" stroke-linejoin="round"/>
<path d="M6.81225 250.248L0.448242 261.17" stroke="#F6FFFF" stroke-width="3.48988" stroke-miterlimit="10" stroke-linecap="round" stroke-linejoin="round"/>
<path d="M0.447961 261.17C-0.782822 260.66 -2.13368 260.37 -3.55458 260.37C-4.96548 260.36 -6.32635 260.64 -7.55713 261.15" stroke="#F6FFFF" stroke-width="3.48988" stroke-miterlimit="10" stroke-linecap="round" stroke-linejoin="round"/>
<path d="M18.0593 347.355L27.5654 336.483L21.4015 328.922L8.8335 336.033" stroke="#F6FFFF" stroke-width="3.48988" stroke-miterlimit="10" stroke-linecap="round" stroke-linejoin="round"/>
<path d="M8.83338 336.033C7.98284 335.273 7.10229 334.533 6.20172 333.833C6.16169 333.803 6.12166 333.773 6.07163 333.743C5.83148 333.553 5.58132 333.363 5.32115 333.173C5.18106 333.063 5.03096 332.962 4.89087 332.852C4.74077 332.742 4.59068 332.632 4.44059 332.532C4.18042 332.352 3.93026 332.172 3.67009 332.002C3.63007 331.972 3.58004 331.942 3.53 331.912C2.5794 331.272 1.60879 330.672 0.618164 330.102" stroke="#F6FFFF" stroke-width="3.48988" stroke-miterlimit="10" stroke-linecap="round" stroke-linejoin="round"/>
<path d="M0.617644 330.102L3.40941 315.939L-5.70637 312.479L-13.041 324.911" stroke="#F6FFFF" stroke-width="3.48988" stroke-miterlimit="10" stroke-linecap="round" stroke-linejoin="round"/>
<path d="M75.5251 234.205L76.6258 233.105M59.8652 249.868L65.1886 244.547L59.8652 249.868Z" stroke="#F6FFFF" stroke-width="1.76499" stroke-miterlimit="10"/>
<path d="M66.1495 256.869L85.9121 237.125M52.9912 270.031L59.5654 263.45L52.9912 270.031Z" stroke="#F6FFFF" stroke-width="1.76499" stroke-miterlimit="10"/>
<path d="M91.6459 244.677L104.254 232.065M62.7676 273.532L69.2617 267.041L62.7676 273.532Z" stroke="#F6FFFF" stroke-width="1.76499" stroke-miterlimit="10"/>
<path d="M104.164 245.447L108.987 240.626M57.8945 291.695L70.0423 279.553L57.8945 291.695Z" stroke="#F6FFFF" stroke-width="1.76499" stroke-miterlimit="10"/>
<path d="M76.8964 239.486L83.2405 233.145M63.1577 253.218L69.6418 246.727L63.1577 253.218Z" stroke="#F6FFFF" stroke-width="1.76499" stroke-miterlimit="10"/>
<path d="M95.5879 234.095L100.971 228.704M57.6338 272.022L74.1042 255.559L57.6338 272.022ZM80.1581 249.518L91.165 238.516L80.1581 249.518Z" stroke="#F6FFFF" stroke-width="1.76499" stroke-miterlimit="10"/>
<path d="M98.5901 244.377L104.684 238.286M55.833 287.114L59.4153 283.534L55.833 287.114ZM63.6179 279.333L68.9814 273.972L63.6179 279.333Z" stroke="#F6FFFF" stroke-width="1.76499" stroke-miterlimit="10"/>
<path d="M108.886 247.367L120.434 235.825M65.6489 290.585L71.9629 284.274L65.6489 290.585Z" stroke="#F6FFFF" stroke-width="1.76499" stroke-miterlimit="10"/>
<path d="M112.949 249.948L124.296 238.606M70.1719 292.715L74.5546 288.325L70.1719 292.715Z" stroke="#F6FFFF" stroke-width="1.76499" stroke-miterlimit="10"/>
<path d="M116.412 253.128L120.774 248.778M71.373 298.156L77.7371 291.795L71.373 298.156Z" stroke="#F6FFFF" stroke-width="1.76499" stroke-miterlimit="10"/>
<path d="M119.313 256.889L123.746 252.448M70.1221 306.058L81.4893 294.686L70.1221 306.058Z" stroke="#F6FFFF" stroke-width="1.76499" stroke-miterlimit="10"/>
<path d="M121.585 261.25L131.291 251.558M81.2192 301.607L85.8622 296.956L81.2192 301.607Z" stroke="#F6FFFF" stroke-width="1.76499" stroke-miterlimit="10"/>
<path d="M123.116 266.371L135.634 253.859M85.9321 303.537L90.9753 298.496L85.9321 303.537Z" stroke="#F6FFFF" stroke-width="1.76499" stroke-miterlimit="10"/>
<path d="M123.616 272.502L129.43 266.701M88.0435 308.068L97.1192 298.996L88.0435 308.068Z" stroke="#F6FFFF" stroke-width="1.76499" stroke-miterlimit="10"/>
<path d="M122.095 280.673L132.241 270.531M88.4834 314.269L105.284 297.476L88.4834 314.269Z" stroke="#F6FFFF" stroke-width="1.76499" stroke-miterlimit="10"/>
<path d="M129.33 280.083L137.445 271.972M94.5176 314.879L95.6683 313.729L94.5176 314.879ZM105.254 304.157L128.479 280.943L105.254 304.157Z" stroke="#F6FFFF" stroke-width="1.76499" stroke-miterlimit="10"/>
<path d="M76.2157 236.846L81.8993 231.155M61.5063 251.538L67.4201 245.637L61.5063 251.538Z" stroke="#F6FFFF" stroke-width="1.76499" stroke-miterlimit="10"/>
<path d="M96.8587 229.494L97.9494 228.404M55.0322 271.301L63.1373 263.21L55.0322 271.301ZM64.0479 262.29L87.2426 239.106L64.0479 262.29Z" stroke="#F6FFFF" stroke-width="1.76499" stroke-miterlimit="10"/>
<path d="M95.3481 244.297L104.464 235.175M63.0776 276.553L68.8913 270.741L63.0776 276.553Z" stroke="#F6FFFF" stroke-width="1.76499" stroke-miterlimit="10"/>
<path d="M106.615 246.317L111.268 241.666M61.166 291.745L70.9122 282.003L61.166 291.745Z" stroke="#F6FFFF" stroke-width="1.76499" stroke-miterlimit="10"/>
<path d="M114.75 251.468L121.174 245.057M71.7129 294.496L76.0757 290.135L71.7129 294.496Z" stroke="#F6FFFF" stroke-width="1.76499" stroke-miterlimit="10"/>
<path d="M120.534 258.989L126.798 252.718M72.0532 307.448L83.5905 295.906L72.0532 307.448Z" stroke="#F6FFFF" stroke-width="1.76499" stroke-miterlimit="10"/>
<path d="M132.962 259.84L136.664 256.149M87.833 304.957L93.8868 298.906L87.833 304.957ZM123.526 269.281L128.889 263.92L123.526 269.281Z" stroke="#F6FFFF" stroke-width="1.76499" stroke-miterlimit="10"/>
<path d="M77.5762 242.116L84.5707 235.135M53.3608 266.331L56.0025 263.69L53.3608 266.331ZM64.8081 254.889L71.8726 247.827L64.8081 254.889Z" stroke="#F6FFFF" stroke-width="1.76499" stroke-miterlimit="10"/>
<path d="M87.1629 245.827L103.984 229.014M60.2358 272.742L70.4323 262.55L60.2358 272.742Z" stroke="#F6FFFF" stroke-width="1.76499" stroke-miterlimit="10"/>
<path d="M101.502 244.787L106.555 239.736M56.8633 289.405L69.3912 276.883L56.8633 289.405Z" stroke="#F6FFFF" stroke-width="1.76499" stroke-miterlimit="10"/>
<path d="M110.998 248.577L122.365 237.215M68.7407 290.815L73.1835 286.374L68.7407 290.815Z" stroke="#F6FFFF" stroke-width="1.76499" stroke-miterlimit="10"/>
<path d="M117.932 254.939L122.325 250.548M68.1909 304.657L79.5381 293.315L68.1909 304.657Z" stroke="#F6FFFF" stroke-width="1.76499" stroke-miterlimit="10"/>
<path d="M122.455 263.7L134.603 251.568M83.5005 302.647L88.3135 297.826L83.5005 302.647Z" stroke="#F6FFFF" stroke-width="1.76499" stroke-miterlimit="10"/>
<path d="M123.256 276.192L129.74 269.711M88.2534 311.179L100.811 298.626L88.2534 311.179Z" stroke="#F6FFFF" stroke-width="1.76499" stroke-miterlimit="10"/>
<path d="M118.513 287.575L134.843 271.252M91.5059 314.579L96.9393 309.138L91.5059 314.579ZM101.302 304.788L112.199 293.886L101.302 304.788Z" stroke="#F6FFFF" stroke-width="1.76499" stroke-miterlimit="10"/>
<path d="M132.902 279.843L139.526 273.212M106.585 306.138L126.398 286.344L106.585 306.138Z" stroke="#F6FFFF" stroke-width="1.76499" stroke-miterlimit="10"/>
<path d="M136.464 279.603L139.156 276.912M107.926 308.128L114.921 301.137L107.926 308.128ZM120.604 295.446L127.689 288.375L120.604 295.446Z" stroke="#F6FFFF" stroke-width="1.76499" stroke-miterlimit="10"/>
<path d="M122.835 296.546L129.33 290.045M109.257 310.118L115.601 303.767L109.257 310.118Z" stroke="#F6FFFF" stroke-width="1.76499" stroke-miterlimit="10"/>
<path d="M125.067 297.636L130.98 291.725M110.587 312.099L116.291 306.408L110.587 312.099Z" stroke="#F6FFFF" stroke-width="1.76499" stroke-miterlimit="10"/>
<path d="M127.298 298.726L132.632 293.395M115.811 310.218L116.972 309.048L115.811 310.218Z" stroke="#F6FFFF" stroke-width="1.76499" stroke-miterlimit="10"/>
<path d="M129.51 267.321C129.48 267.101 129.45 266.881 129.42 266.661C129.4 266.531 129.38 266.411 129.36 266.281C129.34 266.151 129.32 266.021 129.3 265.901C129.26 265.681 129.22 265.461 129.179 265.251C129.169 265.211 129.159 265.171 129.149 265.131C129.139 265.081 129.129 265.021 129.119 264.961C129.009 264.42 128.889 263.89 128.749 263.36C128.699 263.16 128.649 262.97 128.599 262.78" stroke="#F6FFFF" stroke-width="3.48988" stroke-miterlimit="10" stroke-linecap="round" stroke-linejoin="round"/>
<path d="M128.599 262.78L137.085 257.079L134.253 250.788L124.356 253.349" stroke="#F6FFFF" stroke-width="3.48988" stroke-miterlimit="10" stroke-linecap="round" stroke-linejoin="round"/>
<path d="M124.357 253.349C123.916 252.678 123.456 252.018 122.966 251.368C122.936 251.338 122.916 251.308 122.896 251.278C122.756 251.098 122.626 250.928 122.485 250.758C122.405 250.658 122.325 250.558 122.245 250.458C122.155 250.358 122.075 250.258 121.995 250.158C121.855 249.988 121.705 249.818 121.565 249.648C121.545 249.628 121.515 249.598 121.495 249.568C120.954 248.958 120.404 248.368 119.824 247.798" stroke="#F6FFFF" stroke-width="3.48988" stroke-miterlimit="10" stroke-linecap="round" stroke-linejoin="round"/>
<path d="M119.824 247.798L124.327 238.626L118.723 234.595L111.438 241.757" stroke="#F6FFFF" stroke-width="3.48988" stroke-miterlimit="10" stroke-linecap="round" stroke-linejoin="round"/>
<path d="M111.438 241.756C110.728 241.396 109.987 241.046 109.237 240.736C109.207 240.726 109.167 240.706 109.137 240.696C108.927 240.606 108.727 240.526 108.527 240.446C108.406 240.396 108.276 240.356 108.156 240.306C108.036 240.256 107.916 240.216 107.796 240.166C107.586 240.096 107.386 240.016 107.176 239.946C107.136 239.936 107.106 239.926 107.066 239.916C106.295 239.646 105.525 239.416 104.744 239.216" stroke="#F6FFFF" stroke-width="3.48988" stroke-miterlimit="10" stroke-linecap="round" stroke-linejoin="round"/>
<path d="M104.744 239.216L104.054 229.024L97.1792 228.324L94.4575 238.166" stroke="#F6FFFF" stroke-width="3.48988" stroke-miterlimit="10" stroke-linecap="round" stroke-linejoin="round"/>
<path d="M94.4573 238.166C93.6468 238.216 92.8463 238.286 92.0458 238.386C92.0057 238.396 91.9657 238.396 91.9257 238.406C91.7556 238.426 91.5755 238.446 91.3954 238.476C91.3553 238.476 91.3153 238.486 91.2753 238.496C91.1452 238.516 91.0151 238.536 90.885 238.556C90.765 238.576 90.6349 238.596 90.5048 238.616C90.2846 238.656 90.0745 238.696 89.8544 238.736C89.8244 238.746 89.7943 238.746 89.7643 238.756C89.7543 238.756 89.7543 238.756 89.7443 238.756C88.9438 238.916 88.1633 239.106 87.3828 239.316" stroke="#F6FFFF" stroke-width="3.48988" stroke-miterlimit="10" stroke-linecap="round" stroke-linejoin="round"/>
<path d="M87.3833 239.316L81.6897 230.835L75.3857 233.665L77.9574 243.557" stroke="#F6FFFF" stroke-width="3.48988" stroke-miterlimit="10" stroke-linecap="round" stroke-linejoin="round"/>
<path d="M77.9574 243.557C77.7873 243.667 77.6172 243.777 77.4471 243.887C76.9968 244.197 76.5565 244.507 76.1162 244.837C76.0661 244.877 76.0161 244.917 75.9661 244.947C75.9661 244.957 75.9561 244.957 75.9561 244.967C75.9261 244.977 75.9061 244.997 75.876 245.017C75.7059 245.157 75.5258 245.287 75.3557 245.427C75.2557 245.507 75.1556 245.587 75.0555 245.667C74.9554 245.747 74.8554 245.837 74.7553 245.917C74.7253 245.947 74.6853 245.967 74.6553 245.997C74.5252 246.117 74.3851 246.227 74.255 246.347C74.225 246.367 74.195 246.397 74.1649 246.417C73.5546 246.957 72.9642 247.507 72.4038 248.077" stroke="#F6FFFF" stroke-width="3.48988" stroke-miterlimit="10" stroke-linecap="round" stroke-linejoin="round"/>
<path d="M72.4039 248.078L63.2281 243.587L59.1855 249.178L66.3501 256.469" stroke="#F6FFFF" stroke-width="3.48988" stroke-miterlimit="10" stroke-linecap="round" stroke-linejoin="round"/>
<path d="M66.3497 256.469C65.9895 257.179 65.6493 257.919 65.3391 258.66C65.3191 258.7 65.3091 258.74 65.289 258.77C65.209 258.98 65.1189 259.18 65.0389 259.38C64.9989 259.5 64.9488 259.63 64.8988 259.75C64.8588 259.87 64.8087 259.99 64.7687 260.11C64.6886 260.32 64.6186 260.52 64.5486 260.73C64.5285 260.77 64.5186 260.8 64.5086 260.84C64.2484 261.61 64.0182 262.38 63.8081 263.16" stroke="#F6FFFF" stroke-width="3.48988" stroke-miterlimit="10" stroke-linecap="round" stroke-linejoin="round"/>
<path d="M63.8083 263.16L53.6118 263.85L52.9214 270.722L62.7676 273.442" stroke="#F6FFFF" stroke-width="3.48988" stroke-miterlimit="10" stroke-linecap="round" stroke-linejoin="round"/>
<path d="M62.7676 273.442C62.8076 274.242 62.8776 275.052 62.9877 275.852C62.9877 275.892 62.9977 275.932 62.9977 275.972C63.0277 276.192 63.0578 276.403 63.0878 276.623C63.1078 276.753 63.1278 276.883 63.1478 277.013C63.1778 277.133 63.1979 277.263 63.2179 277.393C63.2579 277.603 63.2979 277.823 63.3379 278.043C63.3479 278.073 63.3479 278.113 63.3579 278.153C63.518 278.953 63.6982 279.733 63.9183 280.513" stroke="#F6FFFF" stroke-width="3.48988" stroke-miterlimit="10" stroke-linecap="round" stroke-linejoin="round"/>
<path d="M63.918 280.513L55.4326 286.204L58.2644 292.505L68.1506 289.935" stroke="#F6FFFF" stroke-width="3.48988" stroke-miterlimit="10" stroke-linecap="round" stroke-linejoin="round"/>
<path d="M68.1509 289.935C68.5912 290.615 69.0615 291.275 69.5518 291.915C69.5718 291.955 69.5918 291.985 69.6218 292.015C69.7519 292.185 69.892 292.355 70.0221 292.535C70.1021 292.635 70.1922 292.735 70.2722 292.835C70.3523 292.935 70.4324 293.035 70.5124 293.135C70.6625 293.305 70.8026 293.466 70.9427 293.636C70.9727 293.666 70.9927 293.696 71.0227 293.726C71.553 294.336 72.1134 294.926 72.6838 295.486" stroke="#F6FFFF" stroke-width="3.48988" stroke-miterlimit="10" stroke-linecap="round" stroke-linejoin="round"/>
<path d="M72.684 295.486L68.1812 304.658L73.7847 308.698L81.0693 301.527" stroke="#F6FFFF" stroke-width="3.48988" stroke-miterlimit="10" stroke-linecap="round" stroke-linejoin="round"/>
<path d="M81.0698 301.527C81.7903 301.897 82.5208 302.237 83.2713 302.547C83.3013 302.567 83.3413 302.577 83.3713 302.597C83.5814 302.677 83.7816 302.757 83.9917 302.847C84.1118 302.887 84.2319 302.937 84.3519 302.977C84.472 303.027 84.5921 303.077 84.7122 303.117C84.9223 303.197 85.1324 303.267 85.3326 303.337C85.3726 303.347 85.4126 303.367 85.4526 303.377C86.2131 303.637 86.9936 303.867 87.7641 304.077" stroke="#F6FFFF" stroke-width="3.48988" stroke-miterlimit="10" stroke-linecap="round" stroke-linejoin="round"/>
<path d="M87.7632 304.077L88.4636 314.269L95.328 314.959L98.0597 305.118" stroke="#F6FFFF" stroke-width="3.48988" stroke-miterlimit="10" stroke-linecap="round" stroke-linejoin="round"/>
<path d="M98.0601 305.118C98.8606 305.078 99.6611 304.998 100.472 304.898C100.512 304.898 100.542 304.888 100.582 304.888C100.762 304.858 100.932 304.838 101.112 304.818C101.152 304.808 101.192 304.798 101.242 304.798C101.372 304.778 101.492 304.748 101.622 304.728C101.752 304.708 101.883 304.688 102.003 304.668C102.223 304.628 102.443 304.588 102.653 304.548C102.683 304.548 102.713 304.538 102.743 304.528C102.753 304.528 102.763 304.528 102.773 304.528C103.564 304.368 104.354 304.188 105.125 303.967" stroke="#F6FFFF" stroke-width="3.48988" stroke-miterlimit="10" stroke-linecap="round" stroke-linejoin="round"/>
<path d="M105.124 303.967L110.828 312.449L117.122 309.618L114.56 299.737" stroke="#F6FFFF" stroke-width="3.48988" stroke-miterlimit="10" stroke-linecap="round" stroke-linejoin="round"/>
<path d="M114.56 299.737C115.23 299.296 115.891 298.826 116.541 298.336C116.551 298.336 116.551 298.326 116.561 298.326C116.581 298.306 116.601 298.286 116.631 298.266C116.801 298.136 116.982 297.996 117.152 297.856C117.252 297.786 117.352 297.696 117.452 297.616C117.552 297.536 117.652 297.456 117.752 297.366C117.792 297.346 117.822 297.316 117.852 297.286C117.992 297.176 118.122 297.056 118.252 296.946C118.282 296.916 118.312 296.896 118.342 296.866C118.953 296.336 119.543 295.776 120.114 295.206" stroke="#F6FFFF" stroke-width="3.48988" stroke-miterlimit="10" stroke-linecap="round" stroke-linejoin="round"/>
<path d="M120.114 295.206L129.29 299.707L133.322 294.106L126.158 286.824" stroke="#F6FFFF" stroke-width="3.48988" stroke-miterlimit="10" stroke-linecap="round" stroke-linejoin="round"/>
<path d="M126.158 286.824C126.518 286.104 126.858 285.374 127.178 284.624C127.188 284.584 127.208 284.554 127.218 284.514C127.308 284.314 127.388 284.114 127.469 283.904C127.479 283.894 127.479 283.884 127.489 283.864C127.489 283.854 127.489 283.844 127.499 283.834C127.539 283.734 127.569 283.644 127.609 283.544C127.649 283.424 127.699 283.304 127.749 283.184C127.819 282.974 127.889 282.764 127.969 282.554C127.979 282.524 127.989 282.484 127.999 282.444C128.269 281.683 128.499 280.903 128.699 280.123" stroke="#F6FFFF" stroke-width="3.48988" stroke-miterlimit="10" stroke-linecap="round" stroke-linejoin="round"/>
<path d="M128.699 280.123L138.896 279.433L139.596 272.572L129.74 269.841" stroke="#F6FFFF" stroke-width="3.48988" stroke-miterlimit="10" stroke-linecap="round" stroke-linejoin="round"/>
<path d="M129.74 269.841C129.7 269.041 129.63 268.241 129.53 267.431C129.52 267.391 129.52 267.351 129.51 267.321" stroke="#F6FFFF" stroke-width="3.48988" stroke-miterlimit="10" stroke-linecap="round" stroke-linejoin="round"/>
<path d="M107.987 296.376C107.806 296.456 107.636 296.536 107.466 296.606C107.306 296.686 107.146 296.756 106.986 296.826C106.936 296.846 106.896 296.856 106.856 296.876C102.853 298.546 98.5006 299.257 94.1778 298.937C94.1278 298.927 94.0878 298.927 94.0377 298.927C93.8476 298.907 93.6575 298.886 93.4674 298.866C93.2973 298.846 93.1171 298.836 92.947 298.816C92.907 298.806 92.857 298.797 92.8169 298.797C88.5142 298.246 84.3916 296.676 80.7993 294.236C80.7693 294.216 80.7293 294.186 80.6893 294.166C80.5392 294.056 80.3791 293.936 80.229 293.826C80.0889 293.726 79.9388 293.626 79.7987 293.516C79.7687 293.496 79.7286 293.466 79.6886 293.436C76.2464 290.805 73.4547 287.394 71.5735 283.484C71.5535 283.444 71.5335 283.404 71.5135 283.364C71.4334 283.194 71.3533 283.014 71.2733 282.834C71.2032 282.684 71.1332 282.524 71.0632 282.364C71.0431 282.324 71.0331 282.284 71.0131 282.244C69.3421 278.243 68.6316 273.882 68.9518 269.561C68.9618 269.521 68.9618 269.481 68.9618 269.431C68.9818 269.241 69.0018 269.051 69.0218 268.861C69.0419 268.681 69.0519 268.511 69.0719 268.331C69.0819 268.291 69.0819 268.251 69.0919 268.211C69.6423 263.91 71.2132 259.78 73.6548 256.189C73.6748 256.159 73.7048 256.119 73.7248 256.089C73.8249 255.939 73.935 255.799 74.035 255.659C74.1451 255.499 74.2552 255.349 74.3753 255.189C74.3953 255.159 74.4253 255.119 74.4553 255.089C77.087 251.638 80.4991 248.848 84.4116 246.967C84.4516 246.947 84.4917 246.927 84.5317 246.917C84.6918 246.837 84.8519 246.767 85.022 246.687C85.1921 246.617 85.3622 246.537 85.5323 246.457C85.5724 246.447 85.6124 246.427 85.6524 246.407C89.6549 244.737 94.0177 244.037 98.3405 244.357C98.3805 244.357 98.4305 244.357 98.4706 244.367C98.6507 244.377 98.8308 244.397 99.0109 244.417C99.201 244.437 99.3811 244.457 99.5712 244.477C99.6113 244.477 99.6513 244.487 99.7013 244.497C104.004 245.047 108.127 246.607 111.709 249.048C111.749 249.078 111.789 249.098 111.819 249.128C111.969 249.228 112.109 249.338 112.259 249.438C112.409 249.548 112.559 249.658 112.71 249.768C112.75 249.798 112.78 249.828 112.82 249.848C116.272 252.478 119.064 255.899 120.945 259.8C120.965 259.84 120.985 259.88 120.995 259.92C121.075 260.08 121.145 260.24 121.215 260.4C121.295 260.57 121.375 260.75 121.455 260.93C121.465 260.97 121.485 261.01 121.505 261.05C123.176 265.051 123.877 269.401 123.556 273.722C123.556 273.772 123.546 273.812 123.546 273.862C123.536 274.042 123.516 274.212 123.496 274.382C123.476 274.572 123.456 274.762 123.436 274.952C123.426 274.992 123.426 275.042 123.416 275.092C122.866 279.383 121.305 283.504 118.863 287.084C118.833 287.124 118.813 287.164 118.783 287.204C118.673 287.354 118.563 287.515 118.443 287.675C118.343 287.815 118.243 287.955 118.143 288.095C118.113 288.125 118.083 288.165 118.063 288.195C115.431 291.645 112.009 294.436 108.107 296.316C108.067 296.336 108.027 296.356 107.987 296.376V296.376Z" stroke="#F6FFFF" stroke-width="3.48988" stroke-miterlimit="10" stroke-linecap="round" stroke-linejoin="round"/>
<path d="M-99.7251 363.168C-95.6825 324.301 -62.8117 294.006 -22.8564 294.006C17.0989 294.006 49.9697 324.301 54.0123 363.168" stroke="#F6FFFF" stroke-width="1.76499" stroke-miterlimit="10"/>
<path d="M-173.052 363.168C-168.85 283.894 -103.218 220.913 -22.8571 220.913C57.5038 220.913 123.135 283.894 127.338 363.168" stroke="#F6FFFF" stroke-width="0.882497" stroke-miterlimit="10"/>
<path d="M83.981 363.168V287.374H173.478V363.168" stroke="#F6FFFF" stroke-width="2.60738" stroke-miterlimit="10"/>
<path d="M82.0396 301.927V363.168H83.9808V301.927H82.0396Z" fill="#F6FFFF"/>
</g>
<path d="M62.1736 374C27.2017 353.108 9.76569 293.318 18.5722 252.734C29.6438 201.714 69.2594 165.28 85.0524 115.49C96.4252 79.6278 94.9037 39.9103 80.8154 5.00295C79.1264 0.816445 77.2567 -3.31831 75.5807 -7.51257L-402 -7.51257V374H62.1736Z" fill="url(#paint0_linear)"/>
<g filter="url(#filter0_d)">
<path d="M43.7393 360.829C19.031 330.159 7.98859 288.272 16.2723 249.62C26.6867 201.03 63.467 162.048 78.3225 114.629C89.0201 80.4742 87.589 42.6481 74.337 9.40298C72.7483 5.41584 70.9896 1.47798 69.4131 -2.51656L-384.089 -2.51656V360.829H43.7393Z" fill="white"/>
</g>
<mask id="mask0" mask-type="alpha" maskUnits="userSpaceOnUse" x="-385" y="-3" width="471" height="364">
<path d="M43.7393 360.829C19.031 330.159 7.98859 288.272 16.2723 249.62C26.6867 201.03 63.467 162.048 78.3225 114.629C89.0201 80.4742 87.589 42.6481 74.337 9.40298C72.7483 5.41584 70.9896 1.47798 69.4131 -2.51656L-384.089 -2.51656V360.829H43.7393Z" fill="white"/>
</mask>
<g mask="url(#mask0)">
<path d="M-8.03809 298.796L-6.60717 307.298L-0.783474 307.318L0.687462 298.826" stroke="#F2F2F2" stroke-width="3.48988" stroke-miterlimit="10" stroke-linecap="round" stroke-linejoin="round"/>
<path d="M0.6875 298.826C1.35793 298.716 2.02836 298.596 2.69879 298.436C2.72881 298.436 2.75882 298.426 2.78884 298.416C2.93894 298.386 3.08903 298.346 3.22912 298.316C3.26915 298.306 3.29917 298.296 3.33919 298.286C3.43926 298.256 3.54932 298.236 3.64939 298.206C3.75946 298.176 3.85951 298.146 3.96958 298.116C4.1497 298.066 4.32981 298.016 4.49992 297.966C4.52994 297.956 4.54995 297.946 4.57997 297.946C4.58998 297.946 4.58998 297.936 4.59999 297.936C5.2504 297.736 5.90081 297.516 6.53121 297.276" stroke="#F2F2F2" stroke-width="3.48988" stroke-miterlimit="10" stroke-linecap="round" stroke-linejoin="round"/>
<path d="M6.53125 297.276L12.0147 303.927L17.0679 301.037L14.1061 292.935" stroke="#F2F2F2" stroke-width="3.48988" stroke-miterlimit="10" stroke-linecap="round" stroke-linejoin="round"/>
<path d="M14.1064 292.935C14.6368 292.515 15.1471 292.075 15.6474 291.605C15.6574 291.605 15.6574 291.595 15.6674 291.595C15.6874 291.575 15.7074 291.555 15.7275 291.535C15.8575 291.415 15.9976 291.285 16.1277 291.155C16.2078 291.075 16.2778 291.005 16.3579 290.925C16.4379 290.845 16.518 290.775 16.588 290.695C16.618 290.665 16.648 290.645 16.668 290.615C16.7781 290.505 16.8782 290.405 16.9782 290.295C16.9983 290.265 17.0183 290.245 17.0483 290.225C17.5186 289.725 17.9589 289.205 18.3891 288.684" stroke="#F2F2F2" stroke-width="3.48988" stroke-miterlimit="10" stroke-linecap="round" stroke-linejoin="round"/>
<path d="M18.3887 288.685L26.4638 291.705L29.3956 286.664L22.7714 281.143" stroke="#F2F2F2" stroke-width="3.48988" stroke-miterlimit="10" stroke-linecap="round" stroke-linejoin="round"/>
<path d="M22.7715 281.143C23.0216 280.513 23.2518 279.863 23.4519 279.213C23.4619 279.183 23.4719 279.153 23.4819 279.123C23.532 278.943 23.582 278.763 23.632 278.583C23.6621 278.483 23.6921 278.373 23.7221 278.273C23.7421 278.183 23.7721 278.103 23.7921 278.013C23.7921 278.003 23.7921 277.993 23.8021 277.983C23.8021 277.973 23.8021 277.963 23.8121 277.953C23.8522 277.773 23.9022 277.593 23.9422 277.413C23.9522 277.383 23.9522 277.353 23.9623 277.323C24.1224 276.652 24.2524 275.982 24.3625 275.312" stroke="#F2F2F2" stroke-width="3.48988" stroke-miterlimit="10" stroke-linecap="round" stroke-linejoin="round"/>
<path d="M24.3628 275.312L32.8682 273.892L32.8782 268.071L24.3828 266.591" stroke="#F2F2F2" stroke-width="3.48988" stroke-miterlimit="10" stroke-linecap="round" stroke-linejoin="round"/>
<path d="M24.3828 266.591C24.2827 265.92 24.1526 265.25 24.0025 264.58C24.0025 264.55 23.9925 264.52 23.9825 264.49C23.9425 264.31 23.9025 264.13 23.8524 263.95C23.8224 263.84 23.7924 263.73 23.7724 263.63C23.7424 263.52 23.7123 263.42 23.6823 263.31C23.6323 263.13 23.5823 262.96 23.5322 262.78C23.5222 262.75 23.5122 262.72 23.5022 262.69C23.3021 262.03 23.0819 261.39 22.8418 260.75" stroke="#F2F2F2" stroke-width="3.48988" stroke-miterlimit="10" stroke-linecap="round" stroke-linejoin="round"/>
<path d="M22.8413 260.75L29.4955 255.269L26.5936 250.218L18.4985 253.188" stroke="#F2F2F2" stroke-width="3.48988" stroke-miterlimit="10" stroke-linecap="round" stroke-linejoin="round"/>
<path d="M18.4988 253.188C18.0785 252.658 17.6283 252.138 17.168 251.638C17.1479 251.618 17.1279 251.588 17.0979 251.568C16.9778 251.428 16.8478 251.298 16.7177 251.158C16.6376 251.088 16.5676 251.008 16.4875 250.928C16.4075 250.858 16.3374 250.778 16.2574 250.698C16.1273 250.568 15.9872 250.438 15.8571 250.318C15.8271 250.288 15.8071 250.268 15.7771 250.248C15.2868 249.778 14.7664 249.327 14.2461 248.897" stroke="#F2F2F2" stroke-width="3.48988" stroke-miterlimit="10" stroke-linecap="round" stroke-linejoin="round"/>
<path d="M14.246 248.897L17.2579 240.826L12.2247 237.895L6.70117 244.517" stroke="#F2F2F2" stroke-width="3.48988" stroke-miterlimit="10" stroke-linecap="round" stroke-linejoin="round"/>
<path d="M6.70142 244.517C6.07101 244.267 5.42059 244.047 4.77017 243.837C4.74015 243.837 4.71014 243.827 4.68012 243.817C4.5 243.757 4.31988 243.707 4.13976 243.657C4.0397 243.627 3.92963 243.597 3.82957 243.567C3.7195 243.537 3.61944 243.517 3.50937 243.487C3.32925 243.437 3.14913 243.397 2.96901 243.347C2.93899 243.347 2.90898 243.337 2.86896 243.327C2.20854 243.167 1.53811 243.036 0.867676 242.936" stroke="#F2F2F2" stroke-width="3.48988" stroke-miterlimit="10" stroke-linecap="round" stroke-linejoin="round"/>
<path d="M0.867623 242.937L-0.553276 234.435L-6.37698 234.415L-7.85791 242.907" stroke="#F2F2F2" stroke-width="3.48988" stroke-miterlimit="10" stroke-linecap="round" stroke-linejoin="round"/>
<path d="M-7.61816 280.553C-6.38738 281.073 -5.03653 281.353 -3.61563 281.363C-2.19473 281.363 -0.843869 281.083 0.386911 280.583" stroke="#F2F2F2" stroke-width="3.48988" stroke-miterlimit="10" stroke-linecap="round" stroke-linejoin="round"/>
<path d="M0.387207 280.583L6.6812 291.545" stroke="#F2F2F2" stroke-width="3.48988" stroke-miterlimit="10" stroke-linecap="round" stroke-linejoin="round"/>
<path d="M6.68178 291.545C3.63983 293.045 0.307695 293.865 -3.08447 293.945" stroke="#F2F2F2" stroke-width="3.48988" stroke-miterlimit="10" stroke-linecap="round" stroke-linejoin="round"/>
<path d="M-3.56532 263.29C0.617332 263.31 3.99948 266.711 3.98947 270.891C3.97947 275.062 0.567307 278.443 -3.60534 278.433C-7.78799 278.423 -11.1701 275.012 -11.1601 270.841C-11.1401 266.671 -7.73797 263.28 -3.56532 263.29V263.29Z" stroke="#F2F2F2" stroke-width="3.48988" stroke-miterlimit="10" stroke-linecap="round" stroke-linejoin="round"/>
<path d="M1.61816 279.983C1.62809 279.973 1.64793 279.963 1.65785 279.953C1.64793 279.963 1.62809 279.973 1.61816 279.983Z" stroke="#F2F2F2" stroke-width="3.48988" stroke-miterlimit="10" stroke-linecap="round" stroke-linejoin="round"/>
<path d="M16.6678 281.973C16.6478 282.003 16.6378 282.033 16.6178 282.073C16.5477 282.193 16.4677 282.323 16.3976 282.453C16.3076 282.593 16.2275 282.733 16.1475 282.873C16.1275 282.903 16.1075 282.933 16.0874 282.963C14.3063 285.844 11.9148 288.314 9.08301 290.165" stroke="#F2F2F2" stroke-width="3.48988" stroke-miterlimit="10" stroke-linecap="round" stroke-linejoin="round"/>
<path d="M9.08233 290.165L2.79834 279.203" stroke="#F2F2F2" stroke-width="3.48988" stroke-miterlimit="10" stroke-linecap="round" stroke-linejoin="round"/>
<path d="M2.79834 279.203C4.9397 277.553 6.44066 275.092 6.8209 272.282" stroke="#F2F2F2" stroke-width="3.48988" stroke-miterlimit="10" stroke-linecap="round" stroke-linejoin="round"/>
<path d="M6.82129 272.282L19.4693 272.322" stroke="#F2F2F2" stroke-width="3.48988" stroke-miterlimit="10" stroke-linecap="round" stroke-linejoin="round"/>
<path d="M19.4693 272.322C19.2491 275.702 18.2985 279.003 16.6675 281.973" stroke="#F2F2F2" stroke-width="3.48988" stroke-miterlimit="10" stroke-linecap="round" stroke-linejoin="round"/>
<path d="M6.8916 271.642C6.8916 271.622 6.8916 271.591 6.8916 271.561C6.8916 271.591 6.8916 271.622 6.8916 271.642Z" stroke="#F2F2F2" stroke-width="3.48988" stroke-miterlimit="10" stroke-linecap="round" stroke-linejoin="round"/>
<path d="M9.20264 251.638C12.0244 253.518 14.406 255.989 16.1671 258.879C16.1871 258.919 16.2071 258.949 16.2271 258.979C16.3072 259.119 16.3872 259.259 16.4673 259.399C16.5373 259.529 16.6174 259.659 16.6874 259.789C16.7074 259.819 16.7174 259.849 16.7374 259.889C18.3485 262.87 19.2791 266.171 19.4792 269.551" stroke="#F2F2F2" stroke-width="3.48988" stroke-miterlimit="10" stroke-linecap="round" stroke-linejoin="round"/>
<path d="M19.4796 269.551L6.83154 269.511" stroke="#F2F2F2" stroke-width="3.48988" stroke-miterlimit="10" stroke-linecap="round" stroke-linejoin="round"/>
<path d="M6.83165 269.511C6.46142 266.691 4.99048 264.23 2.84912 262.57" stroke="#F2F2F2" stroke-width="3.48988" stroke-miterlimit="10" stroke-linecap="round" stroke-linejoin="round"/>
<path d="M2.84912 262.57L9.20313 251.638" stroke="#F2F2F2" stroke-width="3.48988" stroke-miterlimit="10" stroke-linecap="round" stroke-linejoin="round"/>
<path d="M6.90161 270.231C6.89161 270.201 6.8916 270.171 6.8916 270.151C6.8916 270.171 6.89161 270.201 6.90161 270.231Z" stroke="#F2F2F2" stroke-width="3.48988" stroke-miterlimit="10" stroke-linecap="round" stroke-linejoin="round"/>
<path d="M1.67773 261.78C1.68777 261.79 1.70784 261.8 1.71788 261.8C1.70784 261.8 1.68777 261.79 1.67773 261.78Z" stroke="#F2F2F2" stroke-width="3.48988" stroke-miterlimit="10" stroke-linecap="round" stroke-linejoin="round"/>
<path d="M-13.8418 250.178C-10.8099 248.677 -7.47777 247.857 -4.08563 247.777C-4.05561 247.777 -4.01559 247.777 -3.97556 247.777C-3.81546 247.777 -3.65535 247.777 -3.48525 247.777C-3.34516 247.777 -3.19506 247.777 -3.04496 247.777C-3.01495 247.777 -2.97492 247.777 -2.93489 247.777C0.447243 247.877 3.77935 248.727 6.81127 250.248" stroke="#F2F2F2" stroke-width="3.48988" stroke-miterlimit="10" stroke-linecap="round" stroke-linejoin="round"/>
<path d="M6.81127 250.248L0.447266 261.17" stroke="#F2F2F2" stroke-width="3.48988" stroke-miterlimit="10" stroke-linecap="round" stroke-linejoin="round"/>
<path d="M0.447473 261.17C-0.78331 260.66 -2.13417 260.37 -3.55507 260.37C-4.96597 260.36 -6.32683 260.64 -7.55762 261.15" stroke="#F2F2F2" stroke-width="3.48988" stroke-miterlimit="10" stroke-linecap="round" stroke-linejoin="round"/>
<path d="M18.0584 347.355L27.5644 336.483L21.4005 328.922L8.83252 336.033" stroke="#F2F2F2" stroke-width="3.48988" stroke-miterlimit="10" stroke-linecap="round" stroke-linejoin="round"/>
<path d="M8.83289 336.033C7.98235 335.273 7.1018 334.533 6.20123 333.833C6.1612 333.802 6.12117 333.772 6.07114 333.742C5.83099 333.552 5.58083 333.362 5.32066 333.172C5.18057 333.062 5.03047 332.962 4.89038 332.852C4.74029 332.742 4.59019 332.632 4.4401 332.532C4.17993 332.352 3.92977 332.172 3.6696 332.002C3.62958 331.972 3.57955 331.942 3.52952 331.912C2.57891 331.272 1.60831 330.672 0.617676 330.102" stroke="#F2F2F2" stroke-width="3.48988" stroke-miterlimit="10" stroke-linecap="round" stroke-linejoin="round"/>
<path d="M0.617155 330.102L3.40892 315.939L-5.70686 312.479L-13.0415 324.911" stroke="#F2F2F2" stroke-width="3.48988" stroke-miterlimit="10" stroke-linecap="round" stroke-linejoin="round"/>
<path d="M75.5251 234.205L76.6258 233.105M59.8652 249.868L65.1886 244.547L59.8652 249.868Z" stroke="#F2F2F2" stroke-width="1.76499" stroke-miterlimit="10"/>
<path d="M66.1491 256.869L85.9116 237.125M52.9907 270.031L59.5649 263.45L52.9907 270.031Z" stroke="#F2F2F2" stroke-width="1.76499" stroke-miterlimit="10"/>
<path d="M91.6454 244.677L104.253 232.065M62.7671 273.532L69.2612 267.041L62.7671 273.532Z" stroke="#F2F2F2" stroke-width="1.76499" stroke-miterlimit="10"/>
<path d="M104.163 245.447L108.986 240.626M57.894 291.695L70.0418 279.553L57.894 291.695Z" stroke="#F2F2F2" stroke-width="1.76499" stroke-miterlimit="10"/>
<path d="M76.8959 239.486L83.24 233.145M63.1572 253.218L69.6413 246.727L63.1572 253.218Z" stroke="#F2F2F2" stroke-width="1.76499" stroke-miterlimit="10"/>
<path d="M95.5874 234.095L100.971 228.704M57.6333 272.021L74.1038 255.559L57.6333 272.021ZM80.1576 249.518L91.1646 238.516L80.1576 249.518Z" stroke="#F2F2F2" stroke-width="1.76499" stroke-miterlimit="10"/>
<path d="M98.5891 244.377L104.683 238.286M55.832 287.114L59.4143 283.534L55.832 287.114ZM63.617 279.333L68.9804 273.972L63.617 279.333Z" stroke="#F2F2F2" stroke-width="1.76499" stroke-miterlimit="10"/>
<path d="M108.886 247.367L120.433 235.825M65.6484 290.585L71.9624 284.274L65.6484 290.585Z" stroke="#F2F2F2" stroke-width="1.76499" stroke-miterlimit="10"/>
<path d="M112.948 249.948L124.296 238.606M70.1714 292.715L74.5541 288.324L70.1714 292.715Z" stroke="#F2F2F2" stroke-width="1.76499" stroke-miterlimit="10"/>
<path d="M116.411 253.128L120.774 248.778M71.3726 298.156L77.7366 291.795L71.3726 298.156Z" stroke="#F2F2F2" stroke-width="1.76499" stroke-miterlimit="10"/>
<path d="M119.313 256.889L123.746 252.448M70.1216 306.057L81.4888 294.685L70.1216 306.057Z" stroke="#F2F2F2" stroke-width="1.76499" stroke-miterlimit="10"/>
<path d="M121.584 261.25L131.29 251.558M81.2188 301.607L85.8617 296.956L81.2188 301.607Z" stroke="#F2F2F2" stroke-width="1.76499" stroke-miterlimit="10"/>
<path d="M123.115 266.371L135.633 253.858M85.9316 303.537L90.9748 298.496L85.9316 303.537Z" stroke="#F2F2F2" stroke-width="1.76499" stroke-miterlimit="10"/>
<path d="M76.2152 236.845L81.8988 231.154M61.5059 251.538L67.4196 245.637L61.5059 251.538Z" stroke="#F2F2F2" stroke-width="1.76499" stroke-miterlimit="10"/>
<path d="M96.8582 229.494L97.9489 228.404M55.0317 271.301L63.1368 263.21L55.0317 271.301ZM64.0474 262.29L87.2421 239.106L64.0474 262.29Z" stroke="#F2F2F2" stroke-width="1.76499" stroke-miterlimit="10"/>
<path d="M95.3476 244.297L104.463 235.175M63.0771 276.552L68.8908 270.741L63.0771 276.552Z" stroke="#F2F2F2" stroke-width="1.76499" stroke-miterlimit="10"/>
<path d="M106.614 246.317L111.267 241.666M61.1655 291.745L70.9117 282.003L61.1655 291.745Z" stroke="#F2F2F2" stroke-width="1.76499" stroke-miterlimit="10"/>
<path d="M114.75 251.468L121.174 245.057M71.7124 294.496L76.0752 290.135L71.7124 294.496Z" stroke="#F2F2F2" stroke-width="1.76499" stroke-miterlimit="10"/>
<path d="M120.533 258.989L126.797 252.718M72.0527 307.448L83.59 295.906L72.0527 307.448Z" stroke="#F2F2F2" stroke-width="1.76499" stroke-miterlimit="10"/>
<path d="M77.5762 242.116L84.5707 235.135M53.3608 266.33L56.0025 263.69L53.3608 266.33ZM64.8081 254.888L71.8726 247.827L64.8081 254.888Z" stroke="#F2F2F2" stroke-width="1.76499" stroke-miterlimit="10"/>
<path d="M87.1624 245.827L103.983 229.014M60.2354 272.742L70.4318 262.55L60.2354 272.742Z" stroke="#F2F2F2" stroke-width="1.76499" stroke-miterlimit="10"/>
<path d="M101.501 244.787L106.554 239.736M56.8628 289.405L69.3907 276.882L56.8628 289.405Z" stroke="#F2F2F2" stroke-width="1.76499" stroke-miterlimit="10"/>
<path d="M110.997 248.577L122.364 237.215M68.7402 290.815L73.1831 286.374L68.7402 290.815Z" stroke="#F2F2F2" stroke-width="1.76499" stroke-miterlimit="10"/>
<path d="M117.932 254.938L122.325 250.548M68.1904 304.657L79.5376 293.315L68.1904 304.657Z" stroke="#F2F2F2" stroke-width="1.76499" stroke-miterlimit="10"/>
<path d="M122.455 263.7L134.602 251.568M83.5 302.647L88.3131 297.826L83.5 302.647Z" stroke="#F2F2F2" stroke-width="1.76499" stroke-miterlimit="10"/>
<path d="M87.3824 239.316L81.6887 230.834L75.3848 233.665L77.9564 243.557" stroke="#F2F2F2" stroke-width="3.48988" stroke-miterlimit="10" stroke-linecap="round" stroke-linejoin="round"/>
<path d="M77.9559 243.556C77.7858 243.667 77.6157 243.777 77.4456 243.887C76.9953 244.197 76.555 244.507 76.1147 244.837C76.0647 244.877 76.0147 244.917 75.9646 244.947C75.9646 244.957 75.9546 244.957 75.9546 244.967C75.9246 244.977 75.9046 244.997 75.8746 245.017C75.7045 245.157 75.5244 245.287 75.3542 245.427C75.2542 245.507 75.1541 245.587 75.054 245.667C74.954 245.747 74.8539 245.837 74.7539 245.917C74.7238 245.947 74.6838 245.967 74.6538 245.997C74.5237 246.117 74.3836 246.227 74.2535 246.347C74.2235 246.367 74.1935 246.397 74.1635 246.417C73.5531 246.957 72.9627 247.507 72.4023 248.077" stroke="#F2F2F2" stroke-width="3.48988" stroke-miterlimit="10" stroke-linecap="round" stroke-linejoin="round"/>
<path d="M72.4024 248.077L63.2266 243.587L59.1841 249.178L66.3486 256.469" stroke="#F2F2F2" stroke-width="3.48988" stroke-miterlimit="10" stroke-linecap="round" stroke-linejoin="round"/>
<path d="M66.3487 256.469C65.9885 257.179 65.6483 257.919 65.3381 258.659C65.3181 258.699 65.3081 258.739 65.2881 258.769C65.208 258.979 65.118 259.179 65.0379 259.379C64.9979 259.499 64.9478 259.629 64.8978 259.75C64.8578 259.87 64.8077 259.99 64.7677 260.11C64.6877 260.32 64.6176 260.52 64.5476 260.73C64.5276 260.77 64.5176 260.8 64.5076 260.84C64.2474 261.61 64.0173 262.38 63.8071 263.16" stroke="#F2F2F2" stroke-width="3.48988" stroke-miterlimit="10" stroke-linecap="round" stroke-linejoin="round"/>
<path d="M63.8073 263.16L53.6109 263.85L52.9204 270.721L62.7667 273.442" stroke="#F2F2F2" stroke-width="3.48988" stroke-miterlimit="10" stroke-linecap="round" stroke-linejoin="round"/>
<path d="M62.7666 273.442C62.8066 274.242 62.8767 275.052 62.9867 275.852C62.9867 275.892 62.9968 275.932 62.9968 275.972C63.0268 276.192 63.0568 276.402 63.0868 276.622C63.1068 276.752 63.1268 276.882 63.1468 277.012C63.1769 277.132 63.1969 277.262 63.2169 277.392C63.2569 277.602 63.2969 277.823 63.337 278.043C63.347 278.073 63.347 278.113 63.357 278.153C63.5171 278.953 63.6972 279.733 63.9173 280.513" stroke="#F2F2F2" stroke-width="3.48988" stroke-miterlimit="10" stroke-linecap="round" stroke-linejoin="round"/>
<path d="M63.917 280.513L55.4316 286.204L58.2634 292.505L68.1497 289.935" stroke="#F2F2F2" stroke-width="3.48988" stroke-miterlimit="10" stroke-linecap="round" stroke-linejoin="round"/>
<path d="M68.1494 289.935C68.5897 290.615 69.06 291.275 69.5503 291.915C69.5703 291.955 69.5903 291.985 69.6204 292.015C69.7504 292.185 69.8905 292.355 70.0206 292.535C70.1007 292.635 70.1907 292.735 70.2708 292.835C70.3508 292.935 70.4309 293.035 70.5109 293.135C70.661 293.305 70.8011 293.465 70.9412 293.635C70.9712 293.665 70.9912 293.695 71.0212 293.725C71.5516 294.335 72.1119 294.926 72.6823 295.486" stroke="#F2F2F2" stroke-width="3.48988" stroke-miterlimit="10" stroke-linecap="round" stroke-linejoin="round"/>
<path d="M72.683 295.486L68.1802 304.657L73.7837 308.698L81.0684 301.527" stroke="#F2F2F2" stroke-width="3.48988" stroke-miterlimit="10" stroke-linecap="round" stroke-linejoin="round"/>
<path d="M81.0684 301.527C81.7888 301.897 82.5193 302.237 83.2698 302.547C83.2998 302.567 83.3398 302.577 83.3698 302.597C83.58 302.677 83.7801 302.757 83.9902 302.847C84.1103 302.887 84.2304 302.937 84.3505 302.977C84.4705 303.027 84.5906 303.077 84.7107 303.117C84.9208 303.197 85.131 303.267 85.3311 303.337C85.3711 303.347 85.4112 303.367 85.4512 303.377C86.2117 303.637 86.9922 303.867 87.7627 304.077" stroke="#F2F2F2" stroke-width="3.48988" stroke-miterlimit="10" stroke-linecap="round" stroke-linejoin="round"/>
<path d="M107.985 296.376C107.805 296.456 107.635 296.536 107.465 296.606C107.305 296.686 107.145 296.756 106.984 296.826C106.934 296.846 106.894 296.856 106.854 296.876C102.852 298.546 98.4991 299.256 94.1764 298.936C94.1263 298.926 94.0863 298.926 94.0363 298.926C93.8461 298.906 93.656 298.886 93.4659 298.866C93.2958 298.846 93.1157 298.836 92.9456 298.816C92.9055 298.806 92.8555 298.796 92.8155 298.796C88.5128 298.246 84.3902 296.676 80.7979 294.235C80.7679 294.215 80.7278 294.185 80.6878 294.165C80.5377 294.055 80.3776 293.935 80.2275 293.825C80.0874 293.725 79.9373 293.625 79.7972 293.515C79.7672 293.495 79.7272 293.465 79.6872 293.435C76.245 290.805 73.4532 287.394 71.572 283.484C71.552 283.444 71.532 283.404 71.512 283.364C71.4319 283.194 71.3519 283.013 71.2718 282.833C71.2018 282.683 71.1317 282.523 71.0617 282.363C71.0417 282.323 71.0317 282.283 71.0117 282.243C69.3406 278.243 68.6302 273.882 68.9504 269.561C68.9604 269.521 68.9603 269.481 68.9603 269.431C68.9804 269.241 69.0004 269.051 69.0204 268.861C69.0404 268.681 69.0504 268.511 69.0704 268.331C69.0804 268.291 69.0804 268.251 69.0904 268.211C69.6408 263.91 71.2118 259.779 73.6533 256.189C73.6733 256.159 73.7034 256.119 73.7234 256.089C73.8234 255.939 73.9335 255.799 74.0336 255.659C74.1436 255.499 74.2537 255.349 74.3738 255.189C74.3938 255.159 74.4238 255.119 74.4539 255.089C77.0855 251.638 80.4977 248.847 84.4102 246.967C84.4502 246.947 84.4902 246.927 84.5302 246.917C84.6903 246.837 84.8504 246.767 85.0206 246.687C85.1907 246.617 85.3608 246.537 85.5309 246.457C85.5709 246.447 85.6109 246.427 85.6509 246.407C89.6535 244.737 94.0163 244.037 98.339 244.357C98.379 244.357 98.4291 244.357 98.4691 244.367C98.6492 244.377 98.8293 244.397 99.0094 244.417C99.1995 244.437 99.3796 244.457 99.5698 244.477C99.6098 244.477 99.6498 244.487 99.6999 244.497C104.003 245.047 108.125 246.607 111.707 249.048C111.748 249.078 111.788 249.098 111.818 249.128C111.968 249.228 112.108 249.338 112.258 249.438C112.408 249.548 112.558 249.658 112.708 249.768C112.748 249.798 112.778 249.828 112.818 249.848C116.27 252.478 119.062 255.899 120.943 259.799C120.963 259.839 120.983 259.879 120.993 259.919C121.073 260.079 121.143 260.239 121.214 260.399C121.294 260.57 121.374 260.75 121.454 260.93C121.464 260.97 121.484 261.01 121.504 261.05C123.175 265.05 123.875 269.401 123.555 273.722C123.555 273.772 123.545 273.812 123.545 273.862C123.535 274.042 123.515 274.212 123.495 274.382C123.475 274.572 123.455 274.762 123.435 274.952C123.425 274.992 123.425 275.042 123.415 275.092C122.865 279.383 121.304 283.504 118.862 287.084C118.832 287.124 118.812 287.164 118.782 287.204C118.672 287.354 118.562 287.514 118.442 287.674C118.342 287.814 118.242 287.954 118.142 288.094C118.112 288.124 118.082 288.164 118.062 288.194C115.43 291.645 112.008 294.435 108.105 296.316C108.065 296.336 108.025 296.356 107.985 296.376V296.376Z" stroke="#F2F2F2" stroke-width="3.48988" stroke-miterlimit="10" stroke-linecap="round" stroke-linejoin="round"/>
<path d="M-99.7261 363.168C-95.6835 324.301 -62.8127 294.006 -22.8574 294.006C17.0979 294.006 49.9688 324.301 54.0113 363.168" stroke="#F2F2F2" stroke-width="1.76499" stroke-miterlimit="10"/>
<path d="M-173.053 363.168C-168.851 283.894 -103.219 220.913 -22.8581 220.913C57.5028 220.913 123.134 283.894 127.337 363.168" stroke="#F2F2F2" stroke-width="0.882497" stroke-miterlimit="10"/>
<path d="M83.98 363.168V287.374H173.477V363.168" stroke="#F2F2F2" stroke-width="2.60738" stroke-miterlimit="10"/>
<path d="M82.0391 301.927V363.168H83.9803V301.927H82.0391Z" fill="#F2F2F2"/>
</g>
<defs>
<filter id="filter0_d" x="-386.089" y="-10.5166" width="485.514" height="379.345" filterUnits="userSpaceOnUse" color-interpolation-filters="sRGB">
<feFlood flood-opacity="0" result="BackgroundImageFix"/>
<feColorMatrix in="SourceAlpha" type="matrix" values="0 0 0 0 0 0 0 0 0 0 0 0 0 0 0 0 0 0 127 0"/>
<feOffset dx="6"/>
<feGaussianBlur stdDeviation="4"/>
<feColorMatrix type="matrix" values="0 0 0 0 0 0 0 0 0 0 0 0 0 0 0 0 0 0 0.25 0"/>
<feBlend mode="normal" in2="BackgroundImageFix" result="effect1_dropShadow"/>
<feBlend mode="normal" in="SourceGraphic" in2="effect1_dropShadow" result="shape"/>
</filter>
<linearGradient id="paint0_linear" x1="62.4007" y1="418.056" x2="-234.471" y2="279.019" gradientUnits="userSpaceOnUse">
<stop stop-color="#E52D2D"/>
<stop offset="0.25098" stop-color="#E11F28"/>
<stop offset="0.490196" stop-color="#333867"/>
<stop offset="0.811765" stop-color="#46A8DE"/>
<stop offset="1" stop-color="#46A8DE"/>
</linearGradient>
</defs>
</svg>
