<svg width="633" height="272" viewBox="0 0 633 272" fill="none" xmlns="http://www.w3.org/2000/svg">
<path d="M159.469 199.203H136.828V239H81.9843V199.203H0V158.422L85.5 33.4062H136.828V157.719H159.469V199.203ZM81.9843 157.719V133.812C81.9843 129.312 82.125 123.266 82.4062 115.672C82.7812 107.984 83.0625 103.953 83.25 103.578H81.7031C78.5156 110.797 74.9062 117.547 70.875 123.828L48.0937 157.719H81.9843Z" fill="#F0F0F0"/>
<path d="M632.547 199.203H609.906V239H555.062V199.203H473.078V158.422L558.578 33.4062H609.906V157.719H632.547V199.203ZM555.062 157.719V133.812C555.062 129.312 555.203 123.266 555.484 115.672C555.859 107.984 556.141 103.953 556.328 103.578H554.781C551.594 110.797 547.984 117.547 543.953 123.828L521.172 157.719H555.062Z" fill="#F0F0F0"/>
<path fill-rule="evenodd" clip-rule="evenodd" d="M452.078 113.526V158.474L415.205 165.734C413.191 172.435 410.514 178.894 407.183 185.041L427.757 215.905L395.984 247.679L365.119 227.103C358.972 230.434 352.513 233.111 345.812 235.127L338.552 272H293.604L286.344 235.127C279.643 233.113 273.184 230.435 267.037 227.104L236.173 247.679L204.399 215.905L224.975 185.041C221.644 178.894 218.967 172.435 216.951 165.734L180.078 158.474V113.526L216.951 106.266C218.967 99.5652 221.643 93.1061 224.974 86.9586L204.399 56.0952L236.173 24.3208L267.037 44.8968C273.184 41.5658 279.643 38.8886 286.344 36.873L293.604 0H338.552L345.812 36.873C352.513 38.8886 358.972 41.5645 365.119 44.8955L395.983 24.3208L427.757 56.0952L407.181 86.9586C410.512 93.1061 413.19 99.5652 415.205 106.266L452.078 113.526ZM316.078 195.932C349.178 195.932 376.01 169.1 376.01 136C376.01 102.901 349.178 76.068 316.078 76.068C282.979 76.068 256.146 102.901 256.146 136C256.146 169.1 282.979 195.932 316.078 195.932Z" fill="#F0F0F0"/>
</svg>
