<svg width="129" height="264" viewBox="0 0 129 264" fill="none" xmlns="http://www.w3.org/2000/svg">
<path d="M268 154.144V109.856L231.669 102.702C229.684 96.101 227.046 89.7356 223.764 83.6785L244.036 53.269L212.73 21.9618L182.321 42.2353C176.264 38.9533 169.898 36.3154 163.296 34.3295L156.144 -2H111.857L104.702 34.3295C98.1019 36.3167 91.7365 38.9533 85.6794 42.2353L55.27 21.9618L23.963 53.269L44.2364 83.6785C40.9544 89.7356 38.3165 96.0997 36.3306 102.702L0 109.855V154.142L36.3306 161.297C38.3178 167.899 40.9544 174.263 44.2364 180.32L23.963 210.73L55.27 242.037L85.6794 221.763C91.7365 225.045 98.1006 227.683 104.702 229.669L111.856 266H156.143L163.298 229.669C169.898 227.683 176.264 225.045 182.321 221.763L212.73 242.036L244.037 210.73L223.764 180.32C227.046 174.263 229.684 167.899 231.669 161.296L268 154.144ZM134 219.861C85.5579 219.861 46.1387 180.442 46.1387 131.999C46.1387 83.557 85.5579 44.1376 134 44.1376C182.442 44.1376 221.861 83.557 221.861 131.999C221.861 180.442 182.442 219.861 134 219.861Z" fill="#414141"/>
</svg>
